<svg xmlns="http://www.w3.org/2000/svg" xmlns:xlink="http://www.w3.org/1999/xlink" width="278.635" height="169.047" viewBox="0 0 278.635 169.047">
  <defs>
    <clipPath id="clip-path">
      <rect id="Прямоугольник_3" data-name="Прямоугольник 3" width="188.177" height="127.085" fill="#f5b51a"/>
    </clipPath>
  </defs>
  <g id="Сгруппировать_67" data-name="Сгруппировать 67" transform="translate(-593.496 -8429.785)">
    <text id="_" data-name="#" transform="translate(593.496 8497.785)" fill="#f5b51a" font-size="63" font-family="SegoeUI, Segoe UI"><tspan x="0" y="0">#</tspan></text>
    <path id="Контур_246" data-name="Контур 246" d="M220.273,112.867c-1.93-4.907-6.776-3.22-7.548-.276-.671-2.994-5.644-4.957-7.738-.138-1.842,4.238,4.812,9.069,6.938,10.477a1.184,1.184,0,0,0,1.221.047l.421-.236s8.722-4.746,6.706-9.874" transform="translate(635.649 8398.452)" fill="#fff"/>
    <path id="Контур_247" data-name="Контур 247" d="M158.151,186.272c-1.93-4.907-6.776-3.22-7.548-.276-.671-2.993-5.644-4.956-7.738-.138-1.842,4.238,4.812,9.069,6.938,10.477a1.184,1.184,0,0,0,1.221.047l.422-.236s8.722-4.746,6.705-9.874" transform="translate(692.066 8277.655)" fill="#f5b51a"/>
    <path id="Контур_256" data-name="Контур 256" d="M158.151,186.272c-1.93-4.907-6.776-3.22-7.548-.276-.671-2.993-5.644-4.956-7.738-.138-1.842,4.238,4.812,9.069,6.938,10.477a1.184,1.184,0,0,0,1.221.047l.422-.236s8.722-4.746,6.705-9.874" transform="translate(713.678 8374.419)" fill="#fff"/>
    <path id="Контур_254" data-name="Контур 254" d="M158.151,186.272c-1.93-4.907-6.776-3.22-7.548-.276-.671-2.993-5.644-4.956-7.738-.138-1.842,4.238,4.812,9.069,6.938,10.477a1.184,1.184,0,0,0,1.221.047l.422-.236s8.722-4.746,6.705-9.874" transform="translate(493.686 8383.046)" fill="#f5b51a"/>
    <path id="Контур_255" data-name="Контур 255" d="M158.151,186.272c-1.93-4.907-6.776-3.22-7.548-.276-.671-2.993-5.644-4.956-7.738-.138-1.842,4.238,4.812,9.069,6.938,10.477a1.184,1.184,0,0,0,1.221.047l.422-.236s8.722-4.746,6.705-9.874" transform="translate(567.06 8254.664)" fill="#fff"/>
    <path id="Контур_248" data-name="Контур 248" d="M27.936,23.268H4.759A4.773,4.773,0,0,1,0,18.509V4.759A4.773,4.773,0,0,1,4.759,0H27.936A4.773,4.773,0,0,1,32.7,4.759v13.75a4.773,4.773,0,0,1-4.759,4.759" transform="translate(595.918 8518.16)" fill="#f5b51a"/>
    <path id="Контур_252" data-name="Контур 252" d="M27.936,23.268H4.759A4.773,4.773,0,0,1,0,18.509V4.759A4.773,4.773,0,0,1,4.759,0H27.936A4.773,4.773,0,0,1,32.7,4.759v13.75a4.773,4.773,0,0,1-4.759,4.759" transform="translate(771.9 8437.441)" fill="#2b5aa5"/>
    <path id="Контур_249" data-name="Контур 249" d="M50.913,44.4h6.656a1.676,1.676,0,0,1,1.676,1.687l-.059,8.9a1.676,1.676,0,0,1-3.022.986l-6.6-8.9A1.676,1.676,0,0,1,50.913,44.4" transform="translate(566.21 8491.37)" fill="#f5b51a"/>
    <path id="Контур_253" data-name="Контур 253" d="M57.566,44.4H50.91a1.676,1.676,0,0,0-1.676,1.687l.059,8.9a1.676,1.676,0,0,0,3.022.986l6.6-8.9A1.676,1.676,0,0,0,57.566,44.4" transform="translate(726.235 8410.735)" fill="#2b5aa5"/>
    <text id="_5" data-name="5" transform="translate(615.661 8526.576)" fill="#fff" font-size="5" font-family="OpenSans-Extrabold, Open Sans" font-weight="800"><tspan x="0" y="0">5</tspan></text>
    <text id="_20" data-name="20" transform="translate(789.66 8449.858)" fill="#fff" font-size="8" font-family="OpenSans-Extrabold, Open Sans" font-weight="800"><tspan x="0" y="0">20</tspan></text>
    <path id="Контур_250" data-name="Контур 250" d="M28.294,19.6c-1.463-3.343-4.771-2.05-5.228.007-.543-2.053-4.034-3.281-5.356.107-1.163,2.98,3.566,6.147,5.074,7.065a.82.82,0,0,0,.846,0l.285-.175s5.909-3.511,4.379-7.005" transform="translate(585.342 8507.57)" fill="#fff"/>
    <path id="Контур_251" data-name="Контур 251" d="M28.294,19.6c-1.463-3.343-4.771-2.05-5.228.007-.543-2.053-4.034-3.281-5.356.107-1.163,2.98,3.566,6.147,5.074,7.065a.82.82,0,0,0,.846,0l.285-.175s5.909-3.511,4.379-7.005" transform="translate(759.341 8426.853)" fill="#fff"/>
    <g id="Сгруппировать_66" data-name="Сгруппировать 66" transform="translate(652.139 8471.747)">
      <g id="Сгруппировать_1" data-name="Сгруппировать 1" clip-path="url(#clip-path)">
        <path id="Контур_2" data-name="Контур 2" d="M45.716,100.439l48.333-.621c-23.211,31.132-21.627,54.48-5.648,65.5H48.222c7.147-14.478,20.419-44.642,22.739-63.39-11.88,2.97-21.718,13.458-24.317,26.359Z" transform="translate(-18.089 -39.496)" fill="#f5b51a"/>
        <path id="Контур_3" data-name="Контур 3" d="M119.317,126.2c8.986,1.172,18.46,9.475,12.6,24.224a15.7,15.7,0,0,0-10.94-4.981,9.275,9.275,0,0,0-2.93.39c-9.865,3.223-6.251,18.852,6.935,18.754,10.549-.2,14.749-12.4,14.554-22.172-.293-13.968-12.4-25.2-26.275-25.2l3.81-16.9c9.765-.244,62.145-.347,62.145-.347s-6.878,1.079-12.387,12.374c-5.881,12.055-37.548-2.064-50.637-1.38l-1.172,5.177a68.245,68.245,0,0,1,9.963-.684c19.242,0,37.214,7.912,38.484,25.884,1.27,16.7-13.674,24.321-28.228,25.2-16.214.977-33.307-4.981-33.7-24.614-.2-11.526,9.28-16.8,17.777-15.726" transform="translate(-40.176 -39.557)" fill="#f5b51a"/>
        <path id="Контур_4" data-name="Контур 4" d="M237.562,99c42.693,0,42.6,67.1,0,67.1-42.508,0-42.6-67.1,0-67.1m0,65.989c12.808,0,12.808-64.875,0-64.875-12.715,0-12.715,64.875,0,64.875" transform="translate(-81.37 -39.173)" fill="#f5b51a"/>
        <path id="Контур_5" data-name="Контур 5" d="M33.205,3.79A61.346,61.346,0,0,0,39.649,2.1c.191.186.6-.4.751.059.5-.53,2.133-.082,2.191-.841.081-.008.028.2.129.329.287-.3,1.057-.109,1.334-.479C46.441,1.129,49.21.3,52.013.283c.071-.076-.029-.2.052-.211a6.089,6.089,0,0,0,2.966-.03c.483.5,1.736.027,2.353.306.163-.017-.019-.135.144-.152a5.37,5.37,0,0,1,4.107,1.633c.076.54.5.633.865.87-.2.363.239.524.133.945C60.715,3.5,58.5,3.59,56.855,3.621c-4.108.7-8.643,1.3-12.426,1.962-2.636.613-5.171,1.353-8.133,2-.134.219-.541.261-.874.227-1.226.674-2.617.748-3.77,1.346-1.072.589-.548,3.138-1.772,3.812.248.59-.484,1.831-.595,2.8A21.4,21.4,0,0,1,28.1,19.042c-.311.717-.278,1.536-.561,2.456-.24.641-.57,1.223-.819,1.8-.427,1.072-.571,2.388-1,3.46a2.379,2.379,0,0,0-.647,1.847c.19.186.688.2.641-.133a11.01,11.01,0,0,0,2-.412c.052-.211-.11-.194-.129-.329,1.33.069,5.95-1.091,6.759-1.79a1.509,1.509,0,0,0,1.6-.37c.234-.092.038.27.354.17.234-.093-.172-.051-.11-.194.244-.025.305-.168.641-.134-.073.076-.153.084-.144.152.272.178.449-.32.66,0,.234-.092.206-.295.531-.328.038.27.813-.083.785-.287.243-.025.181.119.2.254a.454.454,0,0,1,.45-.321c-.077.625,1.508-.428,2.215-.09a6.72,6.72,0,0,1-2.951.714c-.081.008-.023.413.211.32-.062.144-.479.117-.517-.152-.7.277-1.228.058-1.406.556-.028-.2-.353-.17-.535-.288.129.33-.722.143-.512.464-.234.092-.19-.186-.272-.178l-6.19,1.732a5.425,5.425,0,0,1-2.138.63c-.125.286-.9.025-.838.5a1.01,1.01,0,0,0-1.172.463c-.234.092-.119-.261-.344-.1a3.087,3.087,0,0,0-.235,1.257c3.793-.595,10.041-3.087,14.734-4.322-.163.017-.191-.186-.283-.245.172.05.354.169.364.237a4.887,4.887,0,0,0,.875-.227c-.019-.135-.182-.119-.2-.253.344.1.225-.161.478-.118-.019-.136-.172-.052-.182-.119a1.594,1.594,0,0,1,1.463-.15c.176,1.832-3.7,1.819-5.325,2.6-.9.024-2.277.234-2.669.959-.292-.312-3.573.983-3.8,1.144-1.943.268-3.421.9-5.515,1.252a4.427,4.427,0,0,1-.575.606c1.932-.335,4.114-1.244,5.721-1.547.105-.421,4.224-1.049,4.421-1.413,1.961-.133,4.96-1.674,7.175-1.764a13.166,13.166,0,0,1-6.454,2.786l-.215.228c-.307.168-.785.286-1.254.47a3.063,3.063,0,0,1,.559-.126.076.076,0,0,0,.091.059c-.081.008-1.506.428-2.454.732.622-.27,1.253-.472,1.8-.665-.956.236-2.544.673-2.544.673l.019.135a.467.467,0,0,0,.325-.033L25.118,33.6a4.453,4.453,0,0,0-1.76.387c-.513,1.628-.672,3.425-1.376,4.868a3.126,3.126,0,0,1-.446,2.1c.1,2.456-.8,4.26-.712,6.649-.364.928.089,2.388-.638,3.08a20.852,20.852,0,0,1-.506,6.353c-.267-1.89.2-7.35-.153-8.684.552-1.357.088-2.885.677-3.974.054-.211-.263-.11-.219-.388.081-.008.09.059.172.051-.191-.186.025-.414-.186-.734l.325-.034c-.2-.253-.119-.261-.167-.6.172.05.163-.017.244-.025-.129-.33-.048-.338-.167-.6.163-.017.143-.152.4-.109-.019-.135-.325.033-.272-.178.335.035.215-.227.368-.312-.3-.379.105-.421.029-.961-.162.017-.143.152-.124.286-.272-.177.1-.489.341-.514.052-.21-.255-.042-.273-.177-.11-.195.153-.085.306-.168-.029-.2-.2-.254-.229-.456.406-.042.005-.549.33-.583.034-.345-.283-.244-.32-.515.244-.025.2-.363.077-.624-.843,1.045-.351,2.776-1,4.007-.276,4.481-1.087,8.675-.692,13.223.592.692-.078,1.789.257,2.988a.733.733,0,0,1-.416-.026c-.153.084-.124.287-.015.48-.488.05-.259.507-.929.439-.564-.49-1.377-.407-2.031-.956.134-.219-.01-.068-.048-.337.081-.008.091.059.172.051-.1-.127-.129-.33-.373-.3-.019-.135.062-.144.226-.161a18.677,18.677,0,0,1-.866-7.309c-.029-.2-.254-.043-.283-.245.345-1.063,0-2.329.365-3.257-.133-.945.207-1.46,0-2.329.45-.321.03-.962.3-1.4.062-.143-.244.025-.192-.186a.661.661,0,0,0,.2-.912,26.482,26.482,0,0,0,.849-3.923.345.345,0,0,0-.253-.043c.378-.245.139-.768.436-1,.253.043.047.338.147.465.4-.11.331-.582.283-.919-.426-.094-.034.346-.36.379-.038-.27-.21-.32-.238-.523-.244.025-.559.126-.441.388-2.223.023-3.965,1.709-6.381,1.546a12.016,12.016,0,0,1-2.293-4.56c1.067-.041,1.575-1.121,2.421-.385a21.342,21.342,0,0,0,3.545-1.186c1.329.069,2.434-.867,4.161-.907-.019-.135-.316.1-.263-.11a.373.373,0,0,1,.416.026,2.381,2.381,0,0,0,.829-1.729c.143-.152.344.1.488-.05.034-.346-.354-.17-.383-.372.216-.228.1.126.344.1a.764.764,0,0,0,.249-.573c-.019-.135-.254-.042-.506-.085-.057-.405.521-.4.292-.852.163-.017.245-.025.263.109l.134-.219c-.1-.127-.153.084-.335-.034a4.369,4.369,0,0,1,.862-2.076c-.373-.3.34-.514.1-1.038.243-.025.4-.11.369-.312-.02-.135-.317.1-.264-.11.244-.025.225-.161.387-.177-.038-.27.034-.346-.076-.541.325-.033.105-.421.431-.455-.018-.135-.254-.043-.272-.178-.1-.127.153-.084.225-.16.062-.143-.11-.194-.129-.329l.243-.025c-.148-.465.364-.929.451-1.485-.526-.22-.067-.472-.287-.861.631-.2.977-1.265.6-1.569.162-.017.305-.168.459-.252-.426-.094.206-.3-.139-.4a.821.821,0,0,0,.335-1.131c.153-.084.163-.017.172.051.082-.008.025-.413-.138-.4.062-.144.172.05.325-.034a3.675,3.675,0,0,1,.34-1.679c.053-.212-.244.024-.264-.11.025-.414.331-.582.355-1-.315.1-.66,0-.531.329-.081.008-.1-.127-.109-.194-3.717,1.136-8.085,2.337-11.859,3.068A30.209,30.209,0,0,1,2.75,17.125c-.038-.27-.363-.237-.41-.574-.172-.05-.082.008-.245.025-.329-.583-.989-.583-.95-1.478-.1-.127-.272-.177-.588-.077l-.32-.515c-.582-1.79.034-1.51.513-1.628A5.358,5.358,0,0,1,2.428,12.5c2.908-.436,4.946-1.193,7.629-1.468.206-.3,1.67-.445,1.923-.4.134-.219.459-.252.693-.345.11.194-.234.092-.034.346a2.5,2.5,0,0,0,1.425-.421c-.019-.135-.315.1-.272-.177-.062.143-.225.161-.468.185-.12-.262.488-.05.449-.321.263.11.354.17.488-.05.01.068.091.059.182.119-.072.076-.134.218-.3.235.1.127.407-.041.488-.05.153-.084.043-.278.115-.354.344.1.163-.017.478-.118.173.052.192.187.517.154-.283-.246-.273-.178.187-.431.11.194-.235.093-.216.228.235-.093.363.237.761.128.043-.279.277-.371.411-.59.163-.017-.034.346.211.32s.134-.218.287-.3c.081-.008.1.127.191.186.234-.092.287-.3.431-.455a1.106,1.106,0,0,0,1.569-.572c.272.178.019.135.056.4a19.575,19.575,0,0,1,3.373-1.237c-.019-.135-.1-.127-.182-.119.316-.1.775-.353,1.038-.243.235-.093-.172-.051-.119-.263a.85.85,0,0,0,1.115-.868c.335.034.124-.287.368-.312A33.455,33.455,0,0,1,26.56,1.116C26.12.34,28.334.249,28.6.975a2.023,2.023,0,0,1,2.419.779c1.627-.167,1.483,1.15,2.084,1.91l-.163.017.02.135.162-.017-.019-.135c.009.068.019.135.1.127m-24.554,7.8c-.081.008-.163.017-.172-.051-.288.3-1.149.05-1.354.345a6.245,6.245,0,0,0,1.526-.294M8.8,11.5l.019.135c.263.11.124-.287-.019-.135m2.32-.513a3.8,3.8,0,0,0-1.985.548,5.81,5.81,0,0,0,1.985-.548m.722-.142c-.225.16-.182-.119-.335-.034.01.068-.071.076-.144.151.163-.017.5.018.479-.117m.928-.438a.44.44,0,0,1,.307-.168c.11.193-.144.151-.307.168m.588.077-.081.008-.019-.135.081-.008Zm1.028.854-.244.025.029.2c.153-.085.315-.1.215-.228m1.282,36.584c.106-.422-.253-1.207.106-1.587a1.28,1.28,0,0,1-.133-.945,3.053,3.053,0,0,0,.027,2.532m.036-2.675a23.549,23.549,0,0,1,.6-4.515l-.191-.185c-.436,1-.265,2.219-.481,3.611-.014.481-.536.877.072,1.089m-.047,6.1c-.158-.532.235-1.257-.237-1.688.157.532-.226,1.325.237,1.688m0,.616c-.253-.042-.3.236-.134.219-.11-.194.244-.025.134-.219m-.148.7c.1.127.047.337.21.321-.1-.126.116-.354-.21-.321m.123.878c.11.194-.086.557.176.667.163-.017.068-.692-.176-.667m2.4-18.057-.325.034a53.476,53.476,0,0,0-1.565,18.724c.234-1.257.188-2.76.322-4.143-.331-4.692.925-9.822,1.569-14.615m-2.055,4.732c.713-.21.345-1.062.369-1.476-.186.43-.191.979-.369,1.476m.129.33a.192.192,0,0,0,.062-.143c-.081.008-.073.076-.062.143m.2-2.076c.009.068.009.068.1.127l.081-.008-.019-.136Zm.225-.161c.044-.278.259-.506.3-.784l-.272-.178c-.124.287-.321.65-.029.962m.3,7.984c.1.743-.288,1.468.061,2.185l-.244.025c-.053.212.253.043.2.254-.287.3.023.75-.011,1.1.193-.979.624-2.6-.007-3.561m-.123,5.561.163-.017-.019-.135-.163.017Zm2.1-41.246c.254.042.225-.161.3-.236.655.55,1.263-.4,2.186-.293.819-.632,2.89-.571,2.827-1.592.01.068-.071.076-.071.076.052-.211-.192-.186-.21-.321s.234-.092.114-.354c-.315.1-.612.337-.966.168.072-.076.406-.042.387-.178-.559.127-1.157-.018-1.172.464.254.042.3-.236.488-.05-.206.3-.631.2-.937.37-.1-.126.115-.354-.139-.4-.052.21-.306.168-.478.118.21.32-.388.176-.36.379.1.127.254.043.264.11-.081.008.019.135-.062.143-.1-.126-.354-.169-.373-.3-.115.354-1.048.176-1.081.522.344.1.631-.2.947-.3.009.068.1.126.11.193a27.024,27.024,0,0,1-3.741,1.55c.091.059.02.135.028.2.67.068,1.479-.632,1.942-.268m-1.9-.627.019.135.244-.025-.019-.135ZM16.9,51.976l.01.068-.073.076.023.751.009.068.082-.008.009.068-.163.017.019.135.081-.008.038.27-.081.008.019.135.091.059.163-.017-.086-.608.081-.008-.067-.472.072-.076-.067-.473Zm-.026-20.068.009.068.243-.025-.009-.068Zm.111-22.616.305-.169c.02.135-.143.152-.305.169M17.357,54.6l-.081.008-.009-.068-.081.008-.057-.405-.244.025.009.067.091.06.009.068.081-.008.009.068-.244.025a1.267,1.267,0,0,1,.152,1.081c-.052.21.163-.017.192.185l-.081.008.02.135-.081.008.114.81.081-.008.038.27.082-.008-.048-.337.081-.008-.162-1.148.072-.076-.047-.338.081-.008-.029-.2.072-.076ZM18.918,35.26c-1.057,1.274-.753,3.434-1.356,5a1.144,1.144,0,0,0,.157.532c-.589,1.088-.442,2.717-.758,3.982.029.2.254.043.211.321-.072.076-.316.1-.287.3.517.152-.312.717.3.929.358-.38-.171-1.216.269-1.6-.118-2.59.787-4.944.817-7.071a7.314,7.314,0,0,0,.651-2.4M16.855,53.967l.019.135.163-.017-.019-.135Zm.309-3.662.028.2.163-.017-.028-.2-.091-.059-.01-.068-.163.017.01.068-.082.008.01.067ZM17,53.816l.244-.025c-.009-.068-.09-.059-.1-.126l-.163.017Zm.406-6.48-.019-.135-.163.017.019.135ZM17.365,57c.1.127-.2.363.129.33.081-.009.025-.414-.129-.33m.252-11.67-.163.017c-.163.017.028.2.038.27.254.043-.028-.2.125-.286m.119,7.865-.163.017c.009.068.028.2.11.195-.019-.135.153-.084.053-.212m.046,1.5c-.009-.068-.028-.2-.181-.118l.009.067a.311.311,0,0,1,.172.051m.1-12.135-.081.008.019.135.081-.008Zm.178-1.662a.541.541,0,0,0,.129.329c.172.051.1-.422-.129-.329m.12-31.317.019.135.243-.025a.2.2,0,0,0-.1-.126ZM18.17,30.543l.019.135c.263.109.134-.22-.019-.135M18.4,8.737l.162-.017c.1.126-.071.076-.052.21-.081.009-.1-.126-.11-.193m.183,20.6-.168.565c.335.034.35-.447.168-.565m.786-17.822-.038-.27a1.343,1.343,0,0,0-.774.354c.081-.008.081-.008.091.059.243-.025.387-.177.722-.143m-.525,43.071-.009-.068.081-.008-.019-.135-.163.017.01.068-.081.008.018.135c-.081.008-.233.093-.071.076l.081-.008.072-.076Zm-.076.625c-.091-.059-.1-.127-.182-.119.01.068.029.2.11.194-.009-.068-.009-.068.073-.076M19,54.569c.02.135-.325.033-.134.219.172.051.3-.236.134-.219m0-22.81c.009.068.009.068-.073.076l.02.135c.253.043.215-.228.052-.211m.025-.414c.172.051.124-.286.062-.143.019.135-.235.092-.062.143m-.044.278c.081-.008.091.06.254.043.052-.211-.354-.17-.254-.043m.158-22.278.019.135.163-.017a.205.205,0,0,1-.1-.127Zm4.812,5.465-.325.033c-.6,2.185-1.414,4.6-2.041,6.581a1.939,1.939,0,0,0,.094.675c-.253-.043-.234.092-.4.11-.5,2.86-1.855,4.985-2.158,8.1l.488-.05c1.333-4.59,2.369-8.943,3.821-13.271-.019-.135-.173-.051-.192-.186a3.888,3.888,0,0,0,.709-1.99m-.681-4.246c-.138-.4.287-.3.287-.3-.009-.068-.09-.059-.11-.194.163-.017.588.076.479-.118-1.584-.112-2.933.849-4.367,1.2.182.119.291.313.545.356.684-.413,1.444-.285,2.038-.758.192.186.713-.21,1.128-.185M19.748,31.2c.173.051.2-.362.134-.219.009.067-.072.075-.234.092a.206.206,0,0,0,.1.127m-.014.481.244-.025c-.1-.127.052-.212-.049-.338-.243.025-.305.168-.2.363M19.9,8.308l-.009-.068.244-.025.091.06Zm.2,21.9-.019-.135-.163.017.019.135Zm-.091-7.662-.019-.135.406-.042c.11.194-.233.092-.387.177m1.261,3.089A43.638,43.638,0,0,0,20.075,30c.551-1.359,1.3-3.079,1.2-4.371m-.468,14.227-.163.017-.019-.135.163-.017Zm.207-2.624-.244.025c.119.262-.225.16-.115.354.335.034.479-.117.359-.38m.407-1.206c-.234.094-.431.456-.24.642.134-.22.1-.49.24-.642m-.052-16.16c-.1-.127.125-.286-.129-.329.009.068-.034.346.129.329m.931,2.507-1.035,3.188A7.465,7.465,0,0,0,22.3,22.378m-.662-4.111-.163.017-.01-.068.163-.017Zm1.07,2.9c-.163.017-.24.641-.087.557-.12-.261.268-.439.087-.557M22.6,8.716c-.018-.135.144-.152.235-.093.019.135-.153.084-.235.093m.193,11.9.02.135.081-.008-.02-.135Zm.3-.785c-.163.017-.2.363-.034.346-.11-.194.235-.092.034-.346m.357-12.092.019.135.488-.05-.02-.135Zm.5,25.157c.191.186-.469.185-.288.3a1.077,1.077,0,0,1,.651-.067c.081-.008-.057-.405-.028-.2.009.067.019.135-.062.143-.163.017-.11-.194-.272-.177M24.658,12.2a.329.329,0,0,1-.234.092c.051.954-.623,1.434-.662,2.329.153-.084.071-.076.325-.033.058-.76.757-1.654.571-2.388m-.284-4.354c-.163.017-.325.033-.306.168.072-.076.469-.185.306-.168m-.125,7.89.019.135c.263.11.125-.287-.019-.135m.123,17.249a80.745,80.745,0,0,0,10.285-3.111c-2.392.588-8.175,2.278-10.285,3.111M25.865,9.065c-.335-.034-.134.22-.387.177.019.135-.053.211-.024.414l.244-.025c-.129-.33.3-.236.167-.566m.216-1.392.244-.025c.143-.152-.263-.111-.244.025m.464-.8-.02-.135-.162.017.02.135Zm1.713,20.921-.325.033c-.052.212.517.153.325-.033m2.93,3.81a.7.7,0,0,0,.315-.1.554.554,0,0,1-.315.1M60.582,2.554a1.628,1.628,0,0,0-1.258-.145c-.163.017-.038-.271-.272-.178a40.6,40.6,0,0,0-5.443.011c-3.515.224-8.127,1.451-12.273,1.877a11.062,11.062,0,0,1-3.114.731c-1.732.589-3.664.924-5.62,1.673.038.27-.187.43-.149.7A82.667,82.667,0,0,1,48.267,3.545a21.821,21.821,0,0,1,4.118-.629A1.144,1.144,0,0,1,53.523,2.8c.244-.025.044-.278.307-.168a39.419,39.419,0,0,0,4.357-.105c.607.211,1.955.415,2.4.028M32.657,8.094l-.019-.135-.163.017.019.135Zm1.55-.707c-.081.008-.091-.059-.172-.051-.286.3-.976.1-1.153.6.469-.186,1.21-.193,1.325-.547M60.531,1.6A5.338,5.338,0,0,0,56.862.743c.291.313.732-.075.942.246-1-.1-2.477-.019-3.228-.08C54.844.472,55.977.9,56.638.9c-.2-.254.235-.093.134-.22A7.368,7.368,0,0,0,54.051.69c-1.956-.416-4.085.282-5.984.272a.218.218,0,0,1-.052.211c-1.89.057-4.027.687-5.5.77-.052.211-.541.261-.593.473-.264-.111-.091-.059-.508-.085.009.068-.071.076-.143.152.163-.017.253.042.272.177-.254-.042-.56.126-.742.008-.019-.135.416.026.307-.168-.235.092-.11-.195-.344-.1a.712.712,0,0,1-.733.076C37.892,3.1,35.391,3.5,33.344,4.188c.12.261-.105.421-.149.7.009.068.163-.017.254.042a3.992,3.992,0,0,0-.474.734c.5.017.478-.118.751.059l.163-.017-.01-.067.325-.034-.01-.068.244-.025-.009-.068.243-.025-.009-.068-.081.009-.019-.135.243-.025.019.135.081-.008L34.9,5.26l.325-.034-.009-.068.325-.033-.009-.068L36.1,5l-.009-.067.325-.033.01.067.163-.017c.243-.025-.191-.186-.028-.2,1.535-.227,2.454-.732,3.836-.874a7.285,7.285,0,0,1,2.33-.445,7,7,0,0,1,2.908-.435c1.377-.758,3.955-.613,5.524-1.184,1.871-.192,5.73-.315,8.026-.414A5.845,5.845,0,0,1,57.967.973a8.551,8.551,0,0,1,2.564.627M34.736,4.113c-.153.084-.837.5-.967.168a2.286,2.286,0,0,1,.967-.168M45.3,4.74a74.305,74.305,0,0,0-8.873,2.008c-.885.159-1.779.251-2.048.69,3.493-.975,7.735-1.891,10.921-2.7m-6.671-1.1c-.234.092-.416-.026-.8.151-.11-.195-.038-.271.206-.3-.263-.11-.65.067-.894.092.034-.346.7-.277,1.191-.328-.134.219.344.1.3.381M37.366,28.023l-.244.025-.02-.136.244-.025Zm-.235.092.163-.017.02.135-.081.008a.208.208,0,0,1-.1-.127M39.223,3.172a1.593,1.593,0,0,0-.57.059c-.12-.262.531-.329.57-.059m.062-.143c-.02-.135.315-.1.478-.118.019.135-.325.033-.478.118m.626.346s-.263-.11-.244.025c-.253-.042.288-.3.244-.025m.695,21.3a4.412,4.412,0,0,0-.985.033c.369-.312,1.181-.4,1.641-.648-.215.228-.622.269-.655.615m-.406.042.163-.017.009.068-.163.017ZM42.15,1.707l-.019-.135.163-.017c.1.127-.062.143-.144.152m2.463.5a.369.369,0,0,1,.119.262,1.926,1.926,0,0,1-.66,0c.062-.143.216-.228.541-.261m-.272-.178c-.01-.068.153-.084.235-.092.009.068-.153.084-.235.092M47.233,4.4c-.407.041-.761-.128-.885.159.253.043.841.12.885-.159m.379-2.573c.01.067-.378.244-.406.042Zm-.373-.3c-.009-.068.153-.084.316-.1-.072.076-.153.085-.316.1m3.48,2.451a6.774,6.774,0,0,0-3.315.478c1.3-.134,2-.41,3.315-.478m-.094-3c-.043.278-1.832.461-1.788.184-.01-.068.081-.008.081-.008.387-.177,1.32,0,1.707-.176m.823-.016-.569.059c-.029-.2.531-.329.569-.059m1.437,2.592c-.081.008-.344-.1-.325.034.01.068.344.1.325-.034M53.654.8c-.134.219-.579-.008-.814.083-.172-.05.641-.134.814-.083m-.208,2.625-.325.034.019.135.163-.017-.009-.068.163-.017Zm1.067-.041c-.153.085-.578-.009-.559.126.153-.084.5.018.559-.126M54.313.8l-.243.025L54.06.757,54.3.732ZM55.376.143l-.02-.135L55.438,0l.019.135ZM58.46.374l.019.135.163-.017L58.623.357Z" transform="matrix(1, 0.017, -0.017, 1, 3.897, 2.034)" fill="#fff"/>
        <path id="Контур_6" data-name="Контур 6" d="M14.747,19.129a19.886,19.886,0,0,1-1.031,2.248.244.244,0,0,1,.21.043c.043-.21.365-.386.205-.572.059-.076.381-.252.146-.5.516-.267.67-.7,1.042-1.016a4.692,4.692,0,0,1,.973-2.172c.008.067.091.194.1.262-.519.815-.819,1.741-1.337,2.558.017.135.076.059.092.194-.865.789-1.872,4.953-2.645,5.936-.854,2.021-1.672,5.478-4.011,5.964-.043.21-.246.234-.365.387a.861.861,0,0,0-.81.1,9.729,9.729,0,0,1-3.938-.829c-.729-.94-1.875-1.35-2.621-2.427-1.3-3.406-.61-6.229-.252-8.945-.044-1.5,1.112-6.712,1.536-8.886.345-1.687,2.072-1,2.929-.146.546.55,1.1,1.169,1.5,1.669-.222,2.151-1.032,3.961-1.254,6.111-.389.184-.138.564-.216,1.054-.27.033-.178.227-.087.421A55.54,55.54,0,0,0,4.33,27.1a6.956,6.956,0,0,0,.216,2.373l.068-.009.016.135-.068.008a.249.249,0,0,1,.092.194c.938-.181,1.635-1.224,2.388-1.794a11.112,11.112,0,0,1-1.518,1.622c.076.059.076.059.084.127,1.643-1.157,3.234-3.883,4.662-6.247l-.008-.067.578-.892-.068.008c-.017-.135.119-.151.111-.219l.067-.008.23-.37a.955.955,0,0,1,.349-.521l.7-1.043c.186-.159.084.126.219.11.068-.008.06-.075.194-.091-.227-.178-.024-.2-.259-.448.136-.016.152.119.235.246.059-.076-.024-.2.187-.16-.017-.135-.091-.194-.1-.261.667-.149.307-.86.9-1.068a.252.252,0,0,1-.092-.2l-.135.016a2.26,2.26,0,0,1,.562-1.026c.024.2-.1.287-.146.5.721-.841,1.048-2.114,1.87-2.692-1.314,2.762-3.882,7.045-5.814,10.36.135-.016.043-.21.246-.235.016.135.084.127.108.33-.135.016-.179.227-.313.244a.255.255,0,0,1-.092-.2c-.459.741-.851,1.473-1.182,2.13.008.067.075.059.083.127.2-.024.119-.151.254-.167-.319-.374.694-.5.713-.909.187-.159.211.044.346.027l.91-1.548-.068.008c-.016-.135.111-.219.238-.3A55.127,55.127,0,0,0,13.848,20.2c1.064-1.977,2.2-3.963,3.11-6.06.218.111-.027.345.072.608a23.976,23.976,0,0,1-2.283,4.386M1.367,23.546c.1-.354.443-.875-.01-1.233-.068,1.722-.591,3.635-.035,5.418-.124-.465.308-.859-.154-1.283.135-.016.135-.016.211.043-.016-.135-.152-.119-.176-.321l.2-.024c.043-.211-.033-.27-.168-.254.314-.244.351-1.07.057-1.24.4-.117.062-.624.232-.919-.067.009-.067.009-.076-.058.254-.168.052-.144-.084-.127m.465-1.837c-.152-.119-.236-.246-.37-.23.024.2-.238.3-.07.557L1.662,22c.051-.144-.04-.337.171-.295m-.195-1.621c.092.195-.214.505.022.751-.017-.134.075.059.194-.091.035-.278.137-.564-.216-.659m.416-.529c-.128.084-.152-.119-.219-.111a1.289,1.289,0,0,1-.07.556c.068-.008.076.059.2-.024-.091-.194.036-.278.087-.421M4.295,6.269c-.008-.067-.194.092-.21-.043s.111-.218.17-.3a.254.254,0,0,1-.049-.4,3.337,3.337,0,0,1-.03-.819A32.049,32.049,0,0,1,4.549.962c.432-2.106,2.591-.1,2.8-.061.008.068-.06.075-.051.143.143.052.159.187.234.246l.009.067c.627,1.227-.181,2.489-.245,3.661l-.2.024c-.051.143-.111.218-.1.286-.441.328.111,1.495-.794,1.946-.491.47-.4.665-.746.638C3.8,7.837,4.217,6.759,4.295,6.269m.983,23.59-.008-.068-.135.016.008.068Zm1.592-2.726-.1.286c-.068.009.035-.278.1-.286m.483-.538.024.2c-.142-.051-.059.076-.194.092-.051.143.036-.278.17-.295m1.113-1.572.135-.016.016.135-.135.016Zm.978-1.557.135-.016c.084.127-.059.076-.051.143-.068.008-.075-.059-.084-.127m2.2,1.792c-.2.024-.33.108-.305.31.27-.032.178-.227.305-.31m2.07-3.881c-.733,1.322-1.584,2.794-1.8,3.3a14.593,14.593,0,0,0,1.8-3.3M12,20.829a.067.067,0,0,0,.076.06l.135-.016-.009-.067Zm.613-1.17.016.136c-.068.008-.127.083-.194.091s.111-.219.178-.227m.756-1.119.009.068c-.068.008-.009-.068-.009-.068m.2-.024c.051-.143.321-.175.146-.5-.051.143-.322.175-.146.5" transform="matrix(1, 0.017, -0.017, 1, 47.341, 18.136)" fill="#fff"/>
        <path id="Контур_7" data-name="Контур 7" d="M14.3,42.526a.48.48,0,0,1,.305-.312c-.008-.067-.076-.059-.092-.194-.127.083-.111.218-.238.3a3.227,3.227,0,0,1,.705-.975c.084.128-.195.092-.095.354.127-.084.222-.438.019-.414a.3.3,0,0,0,.154-.429c.262-.1.219.111.295.17l.1-.286c-.136.016-.092-.194-.176-.322.2-.024.178-.227.306-.311-.171.3.167.254.278.035-.016-.135-.143-.052-.092-.194a.238.238,0,0,0,.143.052c.127-.084-.025-.2-.04-.338.159.187.381-.251.289-.446-.2.024-.119.151-.035.279-.135.016-.219-.112-.295-.171.127-.084.262-.1.171-.294.127-.084.2-.024.465-.124-.167-.254-.151-.119-.116-.4.068-.008.025.2.108.329.051-.143.111-.219.246-.235a.128.128,0,0,1-.025-.2l-.269.033c-.084-.128.178-.228.262-.1l-.009-.068c.338-.041.163-.362.432-.394a14.638,14.638,0,0,1,1.261-2.618c.273-.58.579-.892.522-1.365a26.364,26.364,0,0,0,1.969-4.142c.211.043.024.2.116.4-1.337,2.559-2.44,5.364-3.777,7.922.591-.208.84-.992.969-1.624.4-.116.2-.641.595-.756a2.387,2.387,0,0,0-.2.64,4.884,4.884,0,0,0-.878,1.818c.187-.159.17-.295.373-.319.135-.016-.184-.388.162-.362.092.195-.052.144-.035.279a.066.066,0,0,1,.076.058.514.514,0,0,0,.138-.564,5.409,5.409,0,0,0,.8-1.329c.043-.21-.135.016-.151-.119-.159-.186.17-.294.027-.345.186-.159.159.187.184.389.034-.278.289-.446.315-.792-.127.084-.33.108-.321.176a.865.865,0,0,1,.459-.74c-.127.084-.1.286.048.405l.138-.565a.235.235,0,0,0-.127.084c-.116-.4.07-.557.181-.776.135-.016.135-.016.211.043a.373.373,0,0,0-.222.438c.127-.084.254-.167.23-.37l.068-.008.34-.589c-.21-.043-.127.084-.337.04a.739.739,0,0,1,.392-.732.249.249,0,0,1-.092-.195c.135-.017.2-.025.178-.227.076.06.025.2.286.1.195-.092-.048-.405.154-.43-.076-.059-.21-.043-.235-.245.489.078.44-.328.475-.606-.017-.135-.187.159-.2.024-.159-.186.186-.159.095-.354.127-.084.032.27.167.254a3.625,3.625,0,0,0,.324-.724c-.016-.135-.151-.119-.175-.322.127-.084.111-.218.23-.37l.068-.009a5.073,5.073,0,0,1,.964-2.24c.033.271-.154.43-.114.768.179-.227.432-.395.392-.733.186-.159.222-.437.408-.6.151.119-.027.347.141.6-.2.025-.187.16-.171.295l-.2.025a5.5,5.5,0,0,1-.906,2.165c.017.135.211.043.219.111.254-.167.146-.5.408-.6-.078.489-.133,1.181-.521,1.365a.51.51,0,0,0,.027-.346c-.151-.119-.4.117-.381.252.278.035.033.27.184.389a9.4,9.4,0,0,0-.9,2.78,7.06,7.06,0,0,0,.673-1.246c.2.524-.319,1.34-.457,1.9l-.016-.135c-.051.143-.246.236-.027.346.024.2.119-.151.135-.016a3.07,3.07,0,0,1-.308.859c.076.059.135-.017.195-.092a.436.436,0,0,0,.048.405c-.456.192-.45.808-.613,1.17a4.47,4.47,0,0,0-.216,1.054,9.631,9.631,0,0,1-.886,1.75c-.384.8-.743,1.8-1.135,2.535a2.718,2.718,0,0,1-.578.892,37.566,37.566,0,0,1-2.134,3.339c-1.6,2.111-4.49,3.691-6.311,3.362-.024-.2-.084-.127-.1-.262-1.173-.064-2-.718-3.067-1-.392-.981-1.74-1.367-1.786-2.321a.253.253,0,0,1,.043-.211l-.06.076a.25.25,0,0,0-.092-.195c.135-.016.135-.016.127-.083.043-.211.027-.347-.251-.382.119-.151.087-.421.13-.631.06-.076.076.06.151.119.2-.025.043-.211.019-.414-.035.279-.135.016-.329.108-.025-.2.1-.286.086-.422s-.219-.111-.235-.246c.254-.167-.133-.532.13-.632a.862.862,0,0,1-.319-.372c.2-.024.043-.211.238-.3-.076-.06-.135.016-.2.024.06-.076-.032-.27.111-.218-.075-.06-.091-.195-.218-.111-.084-.127.2-.024.186-.159-.092-.194-.278-.035-.362-.161-.016-.135.194-.092.254-.168a.745.745,0,0,1-.021-.752c-.295-.17.2-.64-.225-.726-.092-.195.254-.168.095-.354.119-.152.127-.085.329-.109-.033-.27-.219-.111-.236-.246l.135-.016-.008-.068-.135.016c.119-.151.321-.175.289-.445a.238.238,0,0,0-.143-.051c.2-.64-.011-1.232.127-1.8-.008-.067-.068.009-.084-.127-.068.008-.059.075-.051.143-.076-.06-.084-.127-.143-.051-.016-.135.194-.092.322-.176-.1-.262-.3-.238-.447-.289-.016-.135.112-.218.238-.3-.251-.381.035-.279-.216-.66.127-.084.119-.151.178-.226-.338.04-.033-.27-.133-.533.144.052.052-.143.187-.159-.025-.2-.21-.043-.3-.238.118-.151.413.018.524-.2-.084-.127-.119.151-.329.108-.016-.135-.016-.135-.084-.127.059-.076-.025-.2.111-.219l-.067.008c.058-.075.043-.21-.049-.405.084.127.338-.04.37.23.128-.084.365-.387.13-.632-.135.017-.119.152-.1.286l-.27.032c-.318-.373.578-.892.073-1.1.051-.143.027-.347.23-.371-.192-.457-.057-.473.038-.827-.219-.111-.025-.2-.185-.389.068-.008.128-.084.2-.092a.248.248,0,0,1-.092-.195c.143.051.043-.211.313-.244-.024-.2-.2.025-.219-.111.119-.151.086-.421.205-.573-.008-.068-.076-.059-.143-.051.06-.075.171-.3-.024-.2-.017-.135.127-.084.195-.092a.147.147,0,0,0-.152-.119,3.828,3.828,0,0,0,.327-1.272c-.084-.127.024.2-.186.159.161-.362.105-.835.419-1.078a.271.271,0,0,0-.347-.027c.052-.143.187-.159.381-.251a3.453,3.453,0,0,0-.208-.592c.051-.143.186-.159.321-.175.043-.211-.262.1-.219-.111.346.027.163-.362.07-.557.06-.076.329-.108.305-.31-.008-.068-.262.1-.219-.111.33-.108.145-.5.408-.6-.017-.135-.033-.269-.108-.329.262-.1.178-.228.161-.363-.06.076,1.556-7.587,1.221-8.095-.33.108-.381.251-.735.157-1.3.568-3.6,1.941-5.344,2.286-.59-.341-.527-.965-.787-1.414-.559-1.234.44-2.039,2.437-3.1-.024-.2.254-.167.3-.378.437.221,1.158-.619,1.664-.406.127-.084.111-.218.17-.295.127-.084.143.051.152.119.135-.016.094-.354.194-.092-.016-.135.289-.445.381-.251l.246-.235c.127-.084.144.05.151.118.27-.032.341-.589.525-.2.281-.514.794-.233,1.437-.585-.075-.059-.143-.051-.159-.186a.61.61,0,0,0,.508-.335c-.016-.135-.076-.06-.144-.051.187-.16.087-.422.062-.624.262-.1.246-.236.222-.438-.06.076-.052.143-.119.151-.025-.2.119-.151.019-.414.143.052.127-.084.186-.159-.008-.068-.068.008-.135.017.127-.084.027-.346.229-.371a.43.43,0,0,1,.2-.641c-.033-.27-.073-.607.181-.776-.009-.068-.135.017-.152-.119.381-.251.392-.732.26-1.264.338-.04.161-.362.34-.589-.017-.135-.278-.035-.167-.254-.084-.127-.127.083-.194.091A2.675,2.675,0,0,1,9.28,3.592a1.455,1.455,0,0,1,.327-1.273c-.116-.4-.165-.8.089-.969-.025-.2-.116-.4-.065-.541a1.218,1.218,0,0,0,.483-.538c.06-.076.135-.016.143.051.135-.017-.024-.2-.033-.27a.517.517,0,0,1,.632.129c1.443.032,3.364.624,3.786,2.423a1.12,1.12,0,0,0-.054.692c-.408.6-.151,1.593-.559,2.191.23,1.342-.829,2.224-.54,3.491A2.532,2.532,0,0,1,14.665,8.5c.127-.084-.084-.127-.033-.27.279.035.4-.116.489.078A17.958,17.958,0,0,1,18.537,7.07c-.016-.135.187-.159.178-.227,1.546-.254,2.7-.873,3.98-1.095.735-.157,1.721.068,2.523-.1a2.7,2.7,0,0,1-1.016.67c.067-.008.075.059.083.127.128-.084.27-.033.187-.159.075.06.48.01.151.119.008.068.194-.092.338-.041.016.135.041.339.159.187,0,.549-.738.705-.824,1.127-.262.1-.743.089-.643.351-.278-.035-.254.168-.372.319-.273.581-1.87.979-2.9,1.513-.583.276-1.242.492-1.767.692A22.8,22.8,0,0,1,16.2,11.6a9.66,9.66,0,0,0-3.272,1.284c-.9.518-1.366,8.592-1.936,9.551.054,1.021-.556,1.643-.645,2.613.346,1.74-.41,2.858-.443,4.3-.551,2.258-.505,4.926-.913,7.236a1.011,1.011,0,0,0,.125.464,5.553,5.553,0,0,0-.187,1.872c-.2.024-.043.211-.246.235A36.292,36.292,0,0,1,8.954,43.1a10.009,10.009,0,0,1,.408,2.829c.209.592.165.8.468,1.04a3.213,3.213,0,0,1,.754-.57l.017.135-.068.008c-.027.347-.559.479-.694.5.008.067.091.194.1.262.322-.175.5-.4.821-.578-.016-.135-.092-.2-.159-.187l.135-.016-.016-.135-.068.008c.313-.243.568-.411.586-.824.211.043.414.019.246-.235.854-.308,1.594-1.562,2.431-2.006-.167-.253.1-.286.07-.556a.314.314,0,0,0,.313-.242c-.068.008-.059.076-.127.084-.017-.135.051-.143.178-.227-.06.076-.06.076-.052.144M4,39.513l.135-.016.016.135c-.127.084-.144-.051-.195.092-.211-.043.127-.084.043-.211m.046-.759a.066.066,0,0,1,.059-.076l.016.135-.068.008Zm.207-1.122c-.075-.059-.135.017-.151-.118.135-.017.127-.084.262-.1.092.195-.111.218-.17.295-.068.008-.009-.068.059-.076m-.069.557c.21.043.183.388.056.472-.092-.194-.184-.388-.056-.472m.164.8L4.282,39c-.059.076.108.33-.094.354-.167-.254.1-.286.011-.481.068-.008.084.127.151.119m-.2-1.072c.067-.009.076.059.083.127l.009.068c-.068.009-.084-.127-.092-.194m.386-3.061c-.152-.119.034-.278-.1-.263,0,0-.035.279.1.263M5.2,31.832c-.195.092-.406.049-.44.327l.008.067c-.075-.06-.135.017-.2.025.076.06.076.06.085.128.127-.085.051-.144.2-.025a.067.067,0,0,1,.06-.076l-.076-.06a.451.451,0,0,0,.457-.192c-.016-.135-.084-.127-.092-.195m-.529,1.3.135-.016c-.076-.059-.076-.059-.084-.127l-.068.008ZM4.692,31l.024.2c.2-.025.1-.286-.024-.2m.222,4.7C4.784,36.336,5,37,4.728,37.576c.016.135.049.406.193.457l-.06.075.008.068c.06-.075.06-.075.052-.143l.059-.076-.016-.135.068-.008-.025-.2.068-.008-.04-.337.059-.076-.114-.945.068-.009-.04-.337.06-.076-.016-.135ZM4.79,43.8c-.068.008-.035.278.033.27s.035-.278-.033-.27m.089-4.4.008.068-.067.008-.06.075.008.068.068-.008.008.068.135-.017-.033-.27Zm-.011-1.232c-.111.219-.2.64.081.675a.3.3,0,0,0-.086.423c.246-.236.13-.634.005-1.1M4.8,39.9l.068-.008c.008.067.016.135.083.127l-.024-.2c-.068.008-.135.016-.127.084m.165,2.515c.388-.183-.106-.878.065-1.172-.314.242-.174.843-.065,1.172m-.079-1.224c.2-.024.086-.421.011-.481a1.01,1.01,0,0,0-.011.481M5,34.734c-.027.345-.181.775-.03.894l-.008-.068.068-.008L5,35.283l.068-.009-.049-.405.067-.009-.016-.135Zm.2-2.353c-.389.184-.343,1.138-.116,1.316A2.439,2.439,0,0,0,5.2,32.381M4.963,42.961c.211.043.171-.295.027-.345.092.194-.119.151-.027.345m0-13.088.067-.008-.016-.135-.059.076Zm.3,1.334c-.016-.135-.049-.4-.234-.245.083.127.016.135.032.27Zm-.2-.524c.135-.016.2-.025.187-.159l-.2.025Zm.009.068c.016.135.151.119.286.1-.024-.2-.151-.119-.286-.1m.106,12.87-.016-.136-.068.008.016.136ZM5.1,33.832l.008.067.067-.008-.008-.068Zm.487,10.9c-.2.024-.227-.178-.243-.313l-.2.024c.032.27.176.321.124.465a.4.4,0,0,0,.321-.175m-.424-1.251.068-.009-.008-.068-.068.009Zm-.007-14.32.016.135c.144.051.1-.286-.016-.135m.029,15.071.068-.008c.008.068.008.068.075.06-.008-.068-.124-.464-.108-.329.092.195-.119.151-.035.278m.228-15.787-.068.008.008.068-.068.009.008.068-.067.008.008.067c.135-.017.262-.1.178-.227m-.073-.608.2-.024-.017-.135-.068.008a.146.146,0,0,0-.119.151m.164.8-.067.008.008.068-.068.008.025.2.068-.008.008.068.068-.008c-.017-.135.086-.421.07-.557l-.135.016Zm.054,16.988c-.068.008-.06.075-.127.083a.066.066,0,0,0,.076.059l.068-.008ZM5.516,28.162l.008.068.136-.016-.025-.2-.076-.06.016.135Zm.008-1.645c.008.068.016.135.084.126-.008-.067.127-.083.052-.143Zm.325,6.127-.008-.068-.135.016.017.135.135-.016.059-.076ZM5.73,32.8l.008.068.068-.008L5.8,32.788Zm.017.135c.075.059-.111.218.092.194,0,0,.043-.21-.092-.194m.166-6.6c-.068.008-.075-.06-.135.016-.051.143.219.111.135-.016m-.1,5.425c.008.068-.051.143.024.2.143.051.035-.278-.024-.2M7.52,22.03c-.008-.067-.076-.059-.143-.051-.442.326.078,1.223-.43,1.558l.073.608a.238.238,0,0,1-.143-.051,1.454,1.454,0,0,0,.065.541c-.135.016-.06.076-.195.092.124.465-.273.581-.081,1.038l.008.068-.059.076.016.135-.06.076.008.068-.06.076.016.135-.059.076.008.067-.06.076.017.135-.06.076.009.068-.06.076.009.068-.051.143.017.135-.051.143.008.068L6.2,27.6l.008.068-.051.143.016.135-.059.076.016.135-.059.076.024.2-.06.076.025.2L6,28.79l.009.068L5.959,29l.016.135-.051.143.016.136-.051.143.033.27-.06.075.024.2-.059.076.049.406-.06.076.04.338-.06.075.057.473-.052.143.135-.016-.009-.068L6,31.6l-.048-.406-.068.008-.017-.135a3.891,3.891,0,0,0,.321-1.888c.527-.748.238-2.015.7-2.756-.033-.27.018-.414-.2-.524.2-.024.043-.211.035-.278.2-.024.119-.151.321-.175l-.008-.068-.068.008-.032-.27a.248.248,0,0,0,.194-.092l-.016-.135.067-.009-.033-.27.068-.009-.024-.2.06-.076-.024-.2.059-.076-.016-.135.06-.076-.025-.2.052-.143-.016-.135.06-.075-.025-.2L7.431,23l-.025-.2.06-.075-.024-.2.058-.076-.024-.2.06-.076ZM6.1,25.626c-.128.084-.025-.2-.219-.111.024.2.175.322.219.111m.078-.489-.024-.2-.2.024c.024.2.159.186.227.178m.04-1.375-.068.008.009.068-.068.008.009.068c.067-.008.2-.025.118-.152m-.032-.27.016.135c.144.05.1-.287-.016-.135m.065.54c.06-.076.06-.076.127-.084l-.008-.068-.135.016Zm.485-11.364.008.068.068-.008.008.068-.135.016.008.067-.068.008.008.068.135-.016-.008-.068.135-.016-.008-.067.068-.009-.017-.135Zm.469-1.222L7.2,11.378a.251.251,0,0,0,.195-.091l.016.135Zm.918,14.485L8.109,25.8l-.135.016.016.135Zm.5-16.367c.092.194-.127.084-.035.278.135-.016.171-.295.035-.278m.048-3.021-.017-.135L8.726,6.4l.008.068Zm.114-.767c-.092-.2.094-.355.3-.312-.043.211-.1.287-.3.312M8.953,8.29s.009.068-.067.008l.016.135c.143.051.111-.219.051-.143m.236.247a.21.21,0,0,0,.127-.085.212.212,0,0,0-.084-.127.209.209,0,0,0-.127.084l.016.136Zm.359.71.025.2L9.5,9.458l.016.135L9.453,9.6l.025.2-.068.008.049.405.068-.008.008.068.043-.21.067-.008L9.637,9.99l-.06.076L9.562,9.93l.067-.008.009.068.043-.211-.068.008.094-.354-.068.008-.024-.2Zm-.021.962-.017-.135.068-.008Zm.035-.278L9.546,9.8l.067-.008Zm.189-.709.008.068.052-.143-.068.009-.033-.27-.067.008.017.135L9.6,9.1l.017.135Zm.06-.076-.13.633.068-.009L9.74,9.7l.067-.008-.016-.134.068-.009-.033-.271.059-.076-.008-.068Zm.291-.994c-.127.083-.211-.044-.27.032l.008.068.068-.008.056.473.068-.008c-.024-.2.246-.234.07-.556m-.218-.111.068-.008-.009-.068.068-.008-.016-.136-.068.008Zm1.165,38.231.017.135.068-.008-.017-.135ZM13.976,9.605c.1-.286.525-.2.627-.486a6.538,6.538,0,0,0-1.37.576c.092.195-.111.219.056.473l.406-.049.06-.075.406-.049-.008-.068.2-.024.059-.076.135-.016-.008-.068.135-.017-.008-.068.135-.016-.008-.068.06-.076-.008-.067.068-.008-.009-.068c-.313.243-.635.419-.93.248M15.3,8.693c-.1-.262-.615,0-.667.149-.346-.027-1.2.281-1.294.635.726-.224,1.362-.643,1.961-.783m-1.431,1.2c-.06.076-.144-.052-.127.084-.135.017-.1-.262-.1-.262.076.059.218.111.227.179m-.163-1.351.135-.016.076.06a.251.251,0,0,1-.194.091Zm1.189,33.3c-.254.167-.068.008-.21-.043.091.195-.187.16-.095.354.2-.025.179-.227.305-.311m.235-32.849c-.2.024-.406.048-.465.123l.008.068.068-.008.009.068.135-.017-.008-.067.135-.017-.008-.068.068-.008Zm-.111.218.016.135c.21.043.111-.219-.016-.135m.132-1.18c.067-.009.059-.076.127-.084l.016.135-.068.008Zm.3,32.717.119-.152c-.076-.059-.119.152-.119.152m.494-32.4-.338.041-.059.075-.068.008.009.068.067-.008.008.067.135-.016.06-.076.068-.008.06-.076.068-.009Zm-.078.49-.068.008-.008-.068-.068.008.016.135.135-.016Zm.146,32.6a.067.067,0,0,1,.076.059c.262-.1.237-.3.273-.581.008.067-.06.076-.127.083a1.43,1.43,0,0,1-.221.439m.067-33.1a7.125,7.125,0,0,0,1.5-.659,7.137,7.137,0,0,0-1.5.659M16.267,40.1l.016.135c.211.044.111-.218-.016-.135m.244.314c-.135.016-.195.091-.1.286A.248.248,0,0,1,16.6,40.6a.25.25,0,0,1-.092-.194m.249-.784.016.135.068-.008-.016-.135-.067.008c.067-.008.067-.008.127-.084a.91.91,0,0,1,.435-.943c-.084-.127.043-.21-.041-.338-.135.016-.119.152-.254.168.057.473-1.038,1.631-.267,1.2m.481.011c-.008-.068-.076-.06-.152-.119-.008-.068-.016-.135-.084-.127.084.127-.119.151-.111.219.135-.017.3.238.346.027m.134-31.4s-.068.008-.084-.127c-.059.076-.27.033-.254.167.127-.084.354.094.337-.041m-.207,30.791c.075.059.616-.006.465-.125-.262.1-.144-.051-.084-.127-.143-.051-.127.084-.2.025.043-.211.238-.3.222-.438-.254.167-.289.446-.4.665M18.407,7.7l-.541.065-.059.076-.2.025-.06.076-.068.008.016.135Zm2.916-.83c-.2-.524-.962-.021-1.435.035a6.559,6.559,0,0,0-2.24.748c.887-.038,2.569-.856,3.675-.784m-3.275.12c-.008-.068-.008-.068-.083-.127l.2-.024.009.067c-.068.009-.135.017-.128.084m.4-.116c-.009-.068-.009-.068-.085-.127l.135-.016L18.5,6.8a.066.066,0,0,1-.059.076m1.723,25.762c-.358,1-1.064,1.978-1.423,2.981.157-.978,1-1.9,1.423-2.981M19.039,7.833,19.023,7.7c-.068.008-.068.008-.128.084l.017.135c.068-.008.136-.016.127-.084m.651-.284-.2.024-.008-.068-.27.033.008.068-.059.075.135-.016.008.068.135-.016.009.068.068-.008L19.5,7.708l.068-.008-.008-.068.068-.008.008.068.068-.008Zm-.135.016-.068.008-.329.108ZM19.7,34.476a.067.067,0,0,1,.06-.076c-.068.009-.068.009-.06.076M20.071,7.3a.509.509,0,0,0,.345.026c.043-.211-.437-.222-.345-.026m.1,25.341a.252.252,0,0,1,.044-.211.252.252,0,0,0-.044.211m1.016-2.383c-.154.43-.47,1.222-.691,1.659a2.624,2.624,0,0,1,.691-1.659m-.242-23.13-.2.025.009.068-.135.016.008.067-.068.008.008.068c.12-.151.084.127.21.043-.083-.127.314-.242.171-.295M20.793,32.7l-.009-.068.068-.008-.008-.067-.2.024.017.135Zm.218-3.315c.135-.016.127-.084.111-.218.218.11-.171.294-.079.489A.237.237,0,0,0,20.9,29.6c-.017-.136.194-.092.111-.219M22.5,26.946c-.008-.068-.075-.06-.084-.127a2.116,2.116,0,0,0-.589,1.372c.195-.092.178-.226.381-.251-.162.362-.232.918-.562,1.027.143.052.092.194.108.329a.69.69,0,0,0-.521-.348,23.727,23.727,0,0,0,1.118-2.67,7.928,7.928,0,0,0,.938-1.894c.173.87-1.038,1.632-.789,2.562.2-.025.179-.227.238-.3.151.119-.238.3-.146.5a.248.248,0,0,1-.092-.194M21.441,29.54l-.024-.2c.194-.092.226.179.024.2m.308-.859c-.4.116.1-.286-.108-.33-.195.092-.094.354-.222.438.068-.008.346.027.33-.108M22.1,6.506c-.262.1-.346-.027-.608.073.092.194.724.323.608-.073m-.459,28.7c.068-.008.06-.076.119-.151-.059.076-.127.084-.119.151m.067-6.86a.209.209,0,0,1,.084.127.18.18,0,0,0,.179-.227c-.136.016-.051.143-.262.1m.052,6.709c-.016-.135.036-.278.019-.414a.416.416,0,0,1-.019.414m.562-2.739c-.127.084-.295-.171-.167-.255.194-.092.159.187.167.255m-.1-4.853c.06-.076.194-.092.321-.176a1.1,1.1,0,0,0-.214.506c-.286-.1.23-.37-.108-.329m.438-20.884c-.016-.135-.1-.261-.227-.178a.617.617,0,0,0,.108.329.407.407,0,0,1,.262-.1l-.033-.27c-.21-.043-.052.143-.111.218m.226,17.857-.068.008-.009-.068.068-.008Z" transform="matrix(1, 0.017, -0.017, 1, 61.537, 5.383)" fill="#fff"/>
        <rect id="Прямоугольник_1" data-name="Прямоугольник 1" width="73.325" height="19.837" transform="translate(98.077 7.052)" fill="#2b5aa5"/>
        <path id="Контур_8" data-name="Контур 8" d="M0,0H73.325V19.837H0Z" transform="translate(98.077 32.019)" fill="#f5b51a"/>
      </g>
    </g>
  </g>
</svg>
