<svg xmlns="http://www.w3.org/2000/svg" width="172.379" height="79.07" viewBox="0 0 172.379 79.07">
  <g id="Сгруппировать_90" data-name="Сгруппировать 90" transform="translate(-871.661 -8984.205)">
    <path id="Контур_259" data-name="Контур 259" d="M0,0H80.7V21.831H0Z" transform="translate(920.153 9037.373)" fill="#f5b51a"/>
    <path id="Контур_260" data-name="Контур 260" d="M161.94,187.08c-2.4-6.1-8.421-4-9.381-.343-.835-3.72-7.014-6.16-9.617-.171-2.289,5.267,5.981,11.272,8.623,13.021a1.472,1.472,0,0,0,1.518.058l.524-.293s10.84-5.9,8.333-12.272" transform="translate(742.987 8829.426)" fill="#2b5aa5"/>
    <path id="Контур_262" data-name="Контур 262" d="M159.719,186.606c-2.124-5.4-7.457-3.543-8.307-.3-.739-3.294-6.211-5.455-8.516-.151-2.027,4.664,5.3,9.981,7.636,11.53a1.3,1.3,0,0,0,1.344.052l.464-.26s9.6-5.223,7.379-10.867" transform="translate(809.201 8801.259)" fill="#f5b51a"/>
    <path id="Контур_263" data-name="Контур 263" d="M159.719,186.606c-2.124-5.4-7.457-3.543-8.307-.3-.739-3.294-6.211-5.455-8.516-.151-2.027,4.664,5.3,9.981,7.636,11.53a1.3,1.3,0,0,0,1.344.052l.464-.26s9.6-5.223,7.379-10.867" transform="translate(883.987 8865.381)" fill="#f5b51a"/>
    <path id="Контур_261" data-name="Контур 261" d="M154.408,185.474c-1.467-3.73-5.151-2.447-5.738-.21-.51-2.275-4.29-3.768-5.882-.1-1.4,3.222,3.658,6.894,5.274,7.964a.9.9,0,0,0,.928.036l.32-.179s6.63-3.608,5.1-7.506" transform="translate(729.115 8861.31)" fill="#2b5aa5"/>
    <rect id="Прямоугольник_54" data-name="Прямоугольник 54" width="80.695" height="21.831" transform="translate(920.153 9009.897)" fill="#2b5aa5"/>
  </g>
</svg>
