<svg xmlns="http://www.w3.org/2000/svg" xmlns:xlink="http://www.w3.org/1999/xlink" width="1931.878" height="652.663" viewBox="0 0 1931.878 652.663">
  <defs>
    <clipPath id="clip-path">
      <rect id="Прямоугольник_32" data-name="Прямоугольник 32" width="1931.878" height="652.663" fill="#213847"/>
    </clipPath>
  </defs>
  <g id="Сгруппировать_31" data-name="Сгруппировать 31" transform="translate(0 -0.001)">
    <g id="Сгруппировать_30" data-name="Сгруппировать 30" transform="translate(0 0.001)" clip-path="url(#clip-path)">
      <path id="Контур_222" data-name="Контур 222" d="M0,0S494.075,192.709,798.857,212.528c0,0,129.5,10.08,174.941-2.392s64.408-27.845,64.408-27.845l52.106-38.44s8.713-7.175,24.6-7.858,51.764-1.2,51.764-1.2,18.28,8.2,2.734,29.385c0,0,2.905,5.466-43.393,14.521,0,0-31.094,9.909-36.9,24.43,0,0-2.734,4.956,37.927-4.612s138.21-28.873,140.6-29.385,27.335-7.858,30.923,3.418.171,18.451-13.5,22.721-86.274,21.1-86.274,21.1-12.814,3.157-10.934,11.7,43.906-3.586,43.906-3.586,83.03-25.113,89.35-25.284,19.135,5.124,13.156,22.037-109.681,37.073-122.324,39.807-25.626,4.953-19.476,12.641c0,0,76.2-11.616,91.4-15.888s39.295-11.618,42.542-1.367,3.757,16.913-8.544,23.749-105.751,26.31-141.8,31.776c0,0-13.154,7.858-1.707,10.422s84.736-16.742,96.7-13.156,11.958,14.352,7.688,18.793-90.888,47.666-193.734,31.265c0,0-50.4-22.552-58.6-22.211s-104.725,9.824-152.9-11.188S781,272.067,781,272.067l-68.936-1.282s-15.631,13.581,2.82,31.263c0,0-2.051,5.9,47.666,13.583,0,0,33.057,11.018,36.9,21.268L664.917,319.987s-73.035-14.862-80.979-12.043-8.457,18.449,1.025,23.319,106.092,24.088,106.092,24.088,10.761,3.589,5.637,11.532-75.342-11.276-76.365-11.532-49.973-17.169-66.886-14.094S542.165,362.526,551.9,367.4s128.388,34.852,128.388,34.852,18.451,1.794,16.4,8.457-121.211-19.22-121.211-19.22-21.783-4.355-19.989,11.533,20.5,22.294,60.477,29.215,96.867,14.35,98.4,16.144,7.431,3.843,1.282,9.995-85.337-11.276-87.385-11.532-27.164-2.307-22.3,7.688,19.989,27.933,81.492,34.851,112.5,4.1,119.675,1.794,74.058-31.519,117.879-30.5,252.163-14.35,326.992-34.6,422.578-92.253,675.764-241.912l4.1,468.5H0Z" transform="translate(0 -0.001)" fill="#213847"/>
    </g>
  </g>
</svg>
