<svg id="Компонент_1_1" data-name="Компонент 1 – 1" xmlns="http://www.w3.org/2000/svg" xmlns:xlink="http://www.w3.org/1999/xlink" width="259.845" height="44.296" viewBox="0 0 259.845 44.296">
  <defs>
    <clipPath id="clip-path">
      <rect id="Прямоугольник_30" data-name="Прямоугольник 30" width="259.845" height="44.296" fill="#612562"/>
    </clipPath>
  </defs>
  <rect id="Прямоугольник_26" data-name="Прямоугольник 26" width="9.006" height="27.322" transform="translate(138.647 8.444)" fill="#612562"/>
  <g id="Сгруппировать_25" data-name="Сгруппировать 25">
    <g id="Сгруппировать_24" data-name="Сгруппировать 24" clip-path="url(#clip-path)">
      <path id="Контур_212" data-name="Контур 212" d="M266.326,14.332H253.552l-7.4,7.4H256.41a8.582,8.582,0,1,1-3.161-10.7l6.928-6.885a18.244,18.244,0,1,0,6.668,14.116,22.769,22.769,0,0,0-.52-3.94" transform="translate(-130.579)" fill="#612562"/>
      <rect id="Прямоугольник_27" data-name="Прямоугольник 27" width="9.006" height="5.499" transform="translate(138.647 0.65)" fill="#612562"/>
      <path id="Контур_213" data-name="Контур 213" d="M363.676,47.039h-7.794l-.087-.217L345.1,19.5h9.656l5.066,15.2,5.109-15.2h9.483Z" transform="translate(-195.671 -11.056)" fill="#612562"/>
      <rect id="Прямоугольник_28" data-name="Прямоугольник 28" width="9.05" height="27.322" transform="translate(180.432 8.444)" fill="#612562"/>
      <rect id="Прямоугольник_29" data-name="Прямоугольник 29" width="9.05" height="5.499" transform="translate(180.432 0.65)" fill="#612562"/>
      <path id="Контур_214" data-name="Контур 214" d="M469.2,46.2h-9.006V31.044q0-4.287-3.507-4.287c-2.988,0-3.637,2.338-3.637,4.287V46.2H444V18.876h6.235l2.468,2.468a9.277,9.277,0,0,1,6.885-2.944c5.889,0,9.569,3.984,9.569,10.392Z" transform="translate(-251.747 -10.433)" fill="#612562"/>
      <path id="Контур_215" data-name="Контур 215" d="M12.124,37.036A14.5,14.5,0,0,1,.52,31.71L0,31.1,6.105,25l.346.39C8.4,27.51,10,28.419,11.908,28.419c2.425,0,3.594-1.472,3.594-4.633V1.4h9.31V24.133c.043,8.184-4.59,12.9-12.687,12.9" transform="translate(0 -0.794)" fill="#612562"/>
      <path id="Контур_216" data-name="Контур 216" d="M529.756,18.82l-2.295,2.295a10.93,10.93,0,0,0-7.621-2.815c-6.105,0-12.341,4.417-12.341,12.9v.087c0,8.487,6.192,12.9,12.341,12.9a10.57,10.57,0,0,0,7.274-2.6c-.39,3.248-2.338,5.369-6.235,5.369a15.234,15.234,0,0,1-6.5-1.386L508.5,51.468l.823.433a25.09,25.09,0,0,0,11.734,2.771c10.392,0,15.242-5.283,15.242-15.155V18.776h-6.538Zm-2.035,12.514c0,3.161-2.425,5.456-5.8,5.456s-5.759-2.252-5.759-5.456v-.087a5.431,5.431,0,0,1,5.759-5.456c3.377,0,5.8,2.295,5.8,5.456Z" transform="translate(-287.751 -10.376)" fill="#612562"/>
      <path id="Контур_217" data-name="Контур 217" d="M73.969,47.3c-5.889,0-9.569-3.984-9.569-10.392V19.5h9.006V34.612c0,2.858,1.169,4.287,3.464,4.287,3.031,0,3.637-2.338,3.637-4.287V19.5h9.05V46.822H83.279l-2.468-2.468A9.184,9.184,0,0,1,73.969,47.3" transform="translate(-36.515 -11.056)" fill="#612562"/>
      <path id="Контур_218" data-name="Контур 218" d="M193.945,36.993c-5.586,0-8.314-2.815-8.314-8.573V17.2H182.6V9.237h3.031V1.4h9.006V9.237h6.019V17.2h-6.019v10c0,1.212.346,1.559,1.429,1.559a6.405,6.405,0,0,0,3.118-.779l1.342-.736v7.881l-.433.26a11.526,11.526,0,0,1-6.149,1.6" transform="translate(-103.534 -0.794)" fill="#612562"/>
      <path id="Контур_219" data-name="Контур 219" d="M141.162,29.682l-.823-.26c-2.122-.693-4.114-1.386-4.114-2.295V27.04c0-.909,1.126-1.212,2.122-1.212a13.035,13.035,0,0,1,5.5,1.689l5.2-5.2-.433-.26A18.759,18.759,0,0,0,138.478,18.9c-6.105,0-10.219,3.594-10.219,8.963v.087c0,5.326,4.2,7.274,8.27,8.487.346.13.693.216,1,.3,2.165.65,4.027,1.169,4.027,2.165v.087c0,1.126-1.386,1.342-2.511,1.342a13.711,13.711,0,0,1-7.274-2.555l-4.98,4.98-.087.087.433.346A19.01,19.01,0,0,0,138.781,47.3c6.668,0,10.652-3.377,10.652-9.093v-.087c.087-5.672-5.369-7.491-8.27-8.444" transform="translate(-71.839 -10.716)" fill="#612562"/>
      <path id="Контур_220" data-name="Контур 220" d="M578.3,20.756h1.3v3.118h1.472V20.756h1.256V19.5H578.3Z" transform="translate(-327.894 -11.056)" fill="#612562"/>
      <path id="Контур_221" data-name="Контур 221" d="M592.121,19.5l-.953,1.516-.953-1.516H588.7v4.373h1.429V21.708l.649,1h.736l.65-1v2.165h1.472V19.5Z" transform="translate(-333.791 -11.056)" fill="#612562"/>
    </g>
  </g>
</svg>
