<svg id="Сгруппировать_2" data-name="Сгруппировать 2" xmlns="http://www.w3.org/2000/svg"
     xmlns:xlink="http://www.w3.org/1999/xlink" width="474.456" height="320.424" viewBox="0 0 474.456 320.424">
  <defs>
    <clipPath id="clip-path">
      <rect id="Прямоугольник_3" data-name="Прямоугольник 3" width="474.456" height="320.424" fill="#f5b51a"/>
    </clipPath>
  </defs>
  <g id="Сгруппировать_1" data-name="Сгруппировать 1" clip-path="url(#clip-path)">
    <path id="Контур_2" data-name="Контур 2"
          d="M45.716,101.383l121.863-1.565c-58.523,78.493-54.528,137.362-14.24,165.136H52.035c18.019-36.5,51.482-112.558,57.332-159.827-29.953,7.489-54.758,33.931-61.31,66.459Z"
          transform="translate(23.941 52.273)" fill="#f5b51a"/>
    <path id="Контур_3" data-name="Контур 3"
          d="M146.367,166.107c22.656,2.956,46.544,23.888,31.769,61.075-8.62-8.866-19.211-12.56-27.583-12.56a23.384,23.384,0,0,0-7.388.984c-24.873,8.127-15.761,47.531,17.486,47.285,26.6-.494,37.187-31.277,36.695-55.9-.739-35.217-31.277-63.538-66.247-63.538l9.605-42.605c24.621-.614,156.687-.875,156.687-.875s-17.341,2.72-31.233,31.2c-14.827,30.394-94.671-5.2-127.673-3.48l-2.954,13.052a172.067,172.067,0,0,1,25.119-1.725c48.514,0,93.829,19.948,97.03,65.263,3.2,42.112-34.476,61.321-71.171,63.536-40.881,2.462-83.978-12.56-84.964-62.06-.492-29.06,23.4-42.357,44.822-39.649"
          transform="translate(53.174 52.353)" fill="#f5b51a"/>
    <path id="Контур_4" data-name="Контур 4"
          d="M286.116,99c107.642,0,107.409,169.187,0,169.187C178.94,268.189,178.707,99,286.116,99m0,166.379c32.293,0,32.293-163.571,0-163.571-32.058,0-32.058,163.571,0,163.571"
          transform="translate(107.694 51.846)" fill="#f5b51a"/>
    <path id="Контур_5" class="white-style-path" data-name="Контур 5"
          d="M83.721,9.557A154.673,154.673,0,0,0,99.967,5.3c.482.468,1.521-1.02,1.894.15,1.268-1.337,5.378-.207,5.524-2.12.205-.021.071.51.326.83.724-.765,2.665-.274,3.364-1.208,6.018-.1,13-2.2,20.068-2.236.18-.191-.073-.511.132-.532A15.354,15.354,0,0,0,138.752.1c1.218,1.256,4.376.067,5.932.772.41-.042-.048-.341.363-.383,4.171.088,7.873,1.263,10.355,4.117.192,1.362,1.266,1.6,2.181,2.193-.495.916.6,1.321.335,2.384-4.834-.367-10.418-.137-14.567-.057-10.358,1.754-21.791,3.274-31.33,4.946-6.646,1.547-13.038,3.411-20.5,5.042-.337.553-1.363.657-2.2.572-3.09,1.7-6.6,1.886-9.506,3.395C77.1,24.571,78.425,31,75.338,32.7c.626,1.489-1.221,4.616-1.5,7.064-.484,2.467-1.921,5.549-3,8.251-.784,1.808-.7,3.872-1.414,6.191-.6,1.616-1.437,3.083-2.065,4.528-1.076,2.7-1.439,6.021-2.513,8.723-1.315,1-1.488,2.744-1.631,4.657.48.469,1.735.513,1.616-.336,1.663,0,3.232-.679,5.053-1.039.132-.532-.277-.49-.324-.83,3.352.173,15-2.75,17.041-4.514a3.805,3.805,0,0,0,4.028-.933c.59-.233.1.681.892.428.59-.234-.434-.129-.277-.49.615-.063.77-.423,1.616-.339-.183.191-.386.212-.363.383.687.448,1.132-.807,1.665,0,.59-.233.519-.743,1.339-.828.1.68,2.05-.21,1.979-.723.614-.063.456.3.5.64a1.145,1.145,0,0,1,1.134-.808c-.194,1.575,3.8-1.08,5.584-.226-1.953.89-5.524,2.12-7.441,1.8-.2.021-.059,1.042.531.807-.158.363-1.207.3-1.3-.383-1.772.7-3.1.146-3.545,1.4-.071-.512-.89-.428-1.35-.726.326.832-1.821.36-1.292,1.17-.59.233-.48-.469-.685-.448L74.011,70.485a13.678,13.678,0,0,1-5.39,1.589c-.315.722-2.281.062-2.112,1.253-1.916-.32-2.23.4-2.955,1.167-.59.233-.3-.658-.868-.256a7.784,7.784,0,0,0-.592,3.17c9.564-1.5,25.316-7.782,37.149-10.9-.41.042-.482-.469-.712-.617.434.127.892.426.917.6a12.324,12.324,0,0,0,2.206-.572c-.048-.341-.458-.3-.506-.638.868.254.566-.4,1.205-.3-.048-.342-.434-.13-.458-.3.725-.764,2.387-.762,3.69-.379.443,4.618-9.334,4.587-13.425,6.562-2.279.061-5.741.59-6.729,2.418-.736-.788-9.01,2.479-9.576,2.884-4.9.676-8.625,2.268-13.906,3.156A11.16,11.16,0,0,1,60.5,80.852c4.871-.845,10.373-3.138,14.425-3.9.266-1.063,10.651-2.646,11.146-3.562,4.944-.335,12.505-4.221,18.091-4.448-4.1,3.357-8.964,5.756-16.272,7.025l-.542.575c-.773.423-1.978.72-3.162,1.186a7.723,7.723,0,0,1,1.411-.317.19.19,0,0,0,.229.149c-.2.021-3.8,1.08-6.187,1.844,1.568-.681,3.16-1.189,4.547-1.677-2.411.594-6.414,1.7-6.414,1.7l.048.341a1.177,1.177,0,0,0,.819-.084L63.331,84.707a11.228,11.228,0,0,0-4.437.975c-1.294,4.1-1.694,8.636-3.47,12.273a7.882,7.882,0,0,1-1.124,5.3c.248,6.192-2.021,10.742-1.8,16.765-.918,2.339.224,6.02-1.61,7.765.795,2.681-.49,14.212-1.276,16.019-.673-4.766.507-18.532-.385-21.9,1.391-3.422.223-7.275,1.707-10.019.135-.532-.663-.277-.553-.979.205-.021.227.149.432.129-.482-.468.062-1.043-.469-1.852l.821-.085c-.5-.638-.3-.659-.421-1.511.434.127.41-.042.615-.063-.326-.831-.121-.852-.421-1.511.41-.042.361-.382,1-.275-.048-.341-.819.084-.687-.45.844.088.542-.572.929-.786-.758-.957.266-1.063.074-2.424-.409.042-.361.383-.313.722-.687-.447.242-1.233.859-1.3.132-.529-.643-.106-.689-.446-.277-.492.387-.214.771-.424-.073-.512-.506-.64-.577-1.151,1.024-.106.013-1.384.832-1.469.084-.87-.712-.616-.808-1.3.615-.064.495-.916.194-1.574-2.125,2.636-.884,7-2.526,10.1-.7,11.3-2.74,21.872-1.746,33.34,1.493,1.746-.2,4.51.647,7.534a1.849,1.849,0,0,1-1.05-.065c-.387.212-.313.723-.037,1.211-1.229.127-.652,1.277-2.341,1.107-1.421-1.236-3.471-1.026-5.122-2.412.337-.552-.025-.17-.121-.85.205-.021.229.15.432.129-.251-.32-.324-.831-.94-.767-.048-.341.158-.363.569-.4a47.091,47.091,0,0,1-2.184-18.428c-.073-.512-.639-.108-.712-.619.871-2.679,0-5.872.921-8.212-.335-2.382.523-3.681,0-5.872,1.134-.808.075-2.426.751-3.531.156-.362-.615.064-.483-.468a1.668,1.668,0,0,0,.508-2.3c1.232-3.063,1.368-6.531,2.14-9.89a.871.871,0,0,0-.638-.109c.953-.617.35-1.935,1.1-2.531.638.109.119.852.372,1.172,1-.276.834-1.467.715-2.318-1.073-.236-.086.871-.907.955-.1-.68-.529-.807-.6-1.318-.615.063-1.411.318-1.112.977-5.606.058-10,4.309-16.088,3.9C20.892,92,19.7,87.981,18.3,83.978c2.691-.1,3.97-2.827,6.1-.972,3.16-1.19,6.055-1.312,8.938-2.991,3.351.174,6.137-2.185,10.492-2.287-.048-.339-.8.254-.663-.277a.94.94,0,0,1,1.048.066,6,6,0,0,0,2.091-4.36c.359-.384.868.257,1.229-.125.084-.873-.892-.429-.965-.939.544-.574.253.318.868.256a1.925,1.925,0,0,0,.629-1.445c-.048-.341-.639-.106-1.277-.214-.144-1.022,1.314-1,.735-2.147.41-.042.617-.064.663.275l.339-.552c-.253-.32-.385.212-.844-.085.579-1.789.7-3.873,2.174-5.233-.94-.766.857-1.3.255-2.617.614-.064,1-.276.931-.786-.049-.341-.8.254-.665-.277.615-.064.568-.4.977-.447-.1-.681.086-.873-.192-1.363.821-.084.266-1.063,1.086-1.146-.046-.341-.639-.108-.687-.448-.253-.32.386-.212.568-.4.158-.362-.277-.49-.324-.83l.614-.063c-.373-1.172.917-2.341,1.136-3.745-1.326-.555-.168-1.191-.723-2.172,1.592-.508,2.463-3.189,1.524-3.956.409-.042.77-.423,1.156-.636-1.073-.236.519-.745-.35-1a2.07,2.07,0,0,0,.845-2.851c.386-.212.41-.042.434.129.207-.021.062-1.042-.348-1,.158-.363.434.127.821-.085-.326-.831.411-2.98.858-4.232.134-.533-.615.061-.665-.278.064-1.043.834-1.467.894-2.51-.8.255-1.663,0-1.339.829-.2.021-.251-.32-.275-.49-9.372,2.864-20.384,5.893-29.9,7.735A76.167,76.167,0,0,1,6.934,43.178c-.1-.68-.916-.6-1.035-1.448-.434-.127-.207.021-.617.064-.83-1.469-2.495-1.471-2.4-3.726-.253-.32-.687-.447-1.484-.193L.6,36.575c-1.468-4.512.087-3.808,1.292-4.105a13.51,13.51,0,0,1,4.234-.954c7.331-1.1,12.47-3.007,19.235-3.7.519-.744,4.21-1.123,4.849-1.017.337-.553,1.158-.636,1.748-.87.278.489-.59.233-.084.871a6.3,6.3,0,0,0,3.593-1.06c-.048-.339-.8.254-.687-.447-.156.362-.566.4-1.18.467-.3-.661,1.229-.127,1.132-.808.663.278.892.428,1.231-.125.025.17.229.149.458.3-.181.191-.337.55-.749.593.253.32,1.026-.1,1.231-.127.385-.211.108-.7.29-.892.868.257.41-.042,1.205-.3.436.13.483.471,1.3.387-.712-.62-.689-.45.471-1.086.277.489-.592.234-.544.574.592-.234.916.6,1.918.322.108-.7.7-.935,1.037-1.488.41-.043-.084.871.531.807s.337-.55.724-.764c.205-.021.251.32.482.468.59-.232.724-.764,1.086-1.148,1.4,1.064,3.713-.208,3.957-1.441.685.448.048.341.141,1.021a49.354,49.354,0,0,1,8.506-3.119c-.048-.341-.253-.32-.46-.3.8-.253,1.955-.89,2.618-.612.592-.234-.434-.129-.3-.662a2.144,2.144,0,0,0,2.811-2.187c.844.087.313-.725.929-.787.521-3.679,2.223-7.826,3.361-11.571C65.856.856,71.44.629,72.114,2.459c2.953-1.167,4.858.536,6.1,1.964,4.1-.421,3.738,2.9,5.255,4.815l-.41.042.049.341.409-.042-.048-.341c.024.17.048.341.253.32M21.811,29.215c-.205.021-.41.042-.432-.129-.725.765-2.9.125-3.415.869,1-.275,2.689-.1,3.847-.74M22.2,29l.048.341c.663.277.313-.723-.048-.341m5.849-1.294a9.583,9.583,0,0,0-5,1.381c1.819-.361,3.871-.571,5-1.381m1.821-.357c-.566.4-.458-.3-.844-.087.025.17-.18.191-.363.381.41-.042,1.255.046,1.207-.294m2.34-1.105a1.111,1.111,0,0,1,.773-.423c.277.487-.363.381-.773.423m1.484.193-.205.021-.048-.341.205-.021Zm2.592,2.153-.615.063.073.511c.385-.214.8-.255.542-.574m3.232,92.24c.267-1.064-.637-3.044.268-4a3.227,3.227,0,0,1-.335-2.382c-1.063,1.317-.715,5.254.067,6.383m.091-6.745c.448-4.192.377-7.64,1.513-11.383l-.482-.467c-1.1,2.53-.668,5.594-1.214,9.1-.035,1.212-1.351,2.212.182,2.745m-.12,15.383c-.4-1.341.592-3.17-.6-4.256.4,1.341-.57,3.34.6,4.256m.011,1.553c-.638-.1-.748.6-.337.553-.278-.489.615-.063.337-.553m-.374,1.766c.253.32.119.85.529.809-.253-.318.291-.892-.529-.809M39.434,135c.278.49-.217,1.4.445,1.681.41-.043.171-1.744-.445-1.681m6.058-45.528-.821.085c-3.589,14.357-5.734,30.123-3.947,47.21.591-3.17.474-6.958.812-10.446-.835-11.831,2.332-24.763,3.956-36.849m-5.181,11.931c1.8-.529.871-2.678.93-3.721-.469,1.085-.482,2.467-.93,3.721m.326.832a.483.483,0,0,0,.158-.362c-.205.021-.183.191-.158.362M41.148,97c.022.172.022.172.253.32l.205-.021-.048-.342Zm.566-.4c.11-.7.652-1.275.761-1.976l-.687-.45c-.313.725-.81,1.639-.074,2.426m.759,20.131c.264,1.873-.726,3.7.155,5.51l-.615.063c-.134.533.638.108.506.64-.724.765.058,1.892-.028,2.765.486-2.467,1.574-6.55-.017-8.978m-.31,14.02.41-.042-.048-.339-.41.042Zm5.3-104c.641.1.568-.4.748-.6,1.652,1.386,3.184-1.017,5.512-.739,2.065-1.594,7.285-1.439,7.129-4.014.025.17-.18.191-.18.191.132-.532-.483-.469-.529-.81s.59-.232.288-.892c-.8.255-1.543.85-2.435.424.181-.191,1.024-.106.977-.448-1.411.319-2.918-.044-2.955,1.169.639.106.748-.595,1.229-.127-.519.744-1.592.508-2.363.932-.253-.318.29-.892-.35-1-.132.531-.771.424-1.205.3.529.807-.978.444-.907.955.256.32.641.108.665.278-.2.021.048.339-.158.36-.251-.318-.892-.426-.94-.767-.29.894-2.642.445-2.726,1.316.868.259,1.592-.508,2.389-.762.024.17.253.317.277.487a68.135,68.135,0,0,1-9.433,3.907c.229.148.049.341.071.51,1.689.172,3.728-1.592,4.9-.675m-4.8-1.581.048.341.615-.064-.048-.341Zm-.044,105.875.025.17-.183.191.058,1.894.024.17.207-.021.024.17-.41.042.048.341.205-.021.1.681-.205.021.048.341.229.149.41-.043-.216-1.532.205-.021-.168-1.191.181-.191-.168-1.193Zm-.065-50.6.024.17.614-.063-.022-.17Zm.279-57.022L43.6,23c.051.341-.359.384-.77.426m.928,114.239-.205.021-.024-.17-.205.021-.143-1.022-.615.064.022.169.231.151.024.17.2-.021.024.17-.615.063a3.2,3.2,0,0,1,.384,2.724c-.132.531.41-.043.483.467l-.205.021.049.341-.205.021.287,2.043.2-.021.1.681.207-.021-.121-.85.205-.021-.41-2.895.181-.191-.119-.852.205-.021-.073-.511.181-.191ZM47.7,88.9c-2.666,3.211-1.9,8.659-3.419,12.614a2.885,2.885,0,0,0,.4,1.341c-1.484,2.744-1.113,6.85-1.911,10.041.073.511.639.108.531.81-.181.191-.8.254-.724.765,1.3.383-.786,1.808.745,2.342.9-.958-.432-3.065.678-4.044-.3-6.531,1.984-12.465,2.06-17.827,1.219-1.681,1.089-4.086,1.643-6.042m-5.2,47.166.048.341.41-.042-.048-.341Zm.778-9.234.071.511.41-.042-.071-.511-.229-.148-.025-.17-.41.042.025.17-.207.021.025.169Zm-.417,8.852.615-.064c-.022-.17-.227-.15-.253-.318l-.41.043Zm1.025-16.339-.048-.341-.41.042.048.341Zm-.1,24.362c.253.32-.493.914.326.831.205-.022.062-1.043-.326-.831m.635-29.425-.41.042c-.41.042.071.51.1.68.639.108-.071-.511.315-.722m.3,19.829-.41.042c.024.172.071.512.277.492-.048-.341.385-.212.134-.533m.117,3.788c-.022-.17-.071-.51-.456-.3l.024.169a.783.783,0,0,1,.432.129m.262-30.6-.205.021.048.341.205-.021Zm.449-4.191a1.364,1.364,0,0,0,.326.83c.432.129.264-1.064-.326-.83m.3-78.959.048.341.614-.064a.51.51,0,0,0-.251-.318Zm-.035,52.852.048.341c.663.275.339-.554-.048-.341m.566-54.979.409-.043c.256.318-.18.191-.132.531-.205.022-.253-.318-.277-.487m.462,51.937-.423,1.426c.844.087.881-1.127.423-1.426m1.981-44.934-.1-.681a3.387,3.387,0,0,0-1.951.892c.2-.021.2-.021.229.149.614-.063.977-.447,1.819-.36M47.5,137.628l-.024-.17.205-.021-.048-.339-.41.042.025.17-.205.021.046.339c-.2.021-.588.234-.18.191l.205-.021.181-.191Zm-.193,1.575c-.231-.149-.254-.32-.46-.3.025.17.073.511.277.49-.022-.17-.022-.17.183-.191m.6-1.617c.049.341-.821.084-.337.553.432.129.748-.6.337-.553m0-57.512c.024.17.024.17-.183.191l.051.341c.638.108.542-.574.132-.532m.062-1.043c.434.129.312-.722.156-.362.048.341-.592.233-.156.362m-.11.7c.205-.021.229.151.639.109.132-.532-.894-.427-.639-.109m.4-56.17.048.341.41-.042a.517.517,0,0,1-.254-.32Zm12.134,13.78-.821.084c-1.51,5.51-3.565,11.593-5.147,16.592a4.89,4.89,0,0,0,.238,1.7c-.638-.108-.59.233-1,.276-1.271,7.212-4.677,12.569-5.44,20.419l1.229-.125c3.36-11.572,5.972-22.547,9.634-33.459-.048-.341-.436-.129-.483-.469a9.8,9.8,0,0,0,1.789-5.018M58.677,26.636c-.348-1,.724-.765.724-.765-.024-.17-.227-.149-.277-.489.41-.042,1.482.192,1.207-.3-3.993-.282-7.4,2.141-11.012,3.03.458.3.735.789,1.374.9,1.726-1.041,3.642-.72,5.139-1.91.483.468,1.8-.53,2.845-.466M49.792,78.671c.436.129.495-.913.339-.552.024.169-.181.19-.59.232a.518.518,0,0,0,.251.32m-.035,1.213.615-.063c-.254-.321.132-.533-.122-.852-.614.063-.77.424-.493.914m.422-58.936-.024-.172.615-.064.229.151Zm.507,55.214-.048-.341-.41.042.048.341Zm-.229-19.319L50.41,56.5l1.024-.106c.278.49-.588.233-.977.447m3.179,7.789a110.025,110.025,0,0,0-3.021,11.021c1.389-3.426,3.273-7.763,3.021-11.021M52.457,100.5l-.412.043L52,100.205l.41-.042Zm.522-6.616-.615.064c.3.661-.566.4-.29.894.844.087,1.207-.3.905-.958m1.026-3.041c-.59.236-1.086,1.149-.6,1.618.337-.554.244-1.234.6-1.618M53.875,50.1c-.253-.32.315-.722-.324-.83.024.17-.086.871.324.83m2.347,6.322-2.61,8.038a18.822,18.822,0,0,0,2.61-8.038M54.553,46.058l-.41.042-.025-.17.412-.042Zm2.7,7.323c-.41.042-.606,1.616-.218,1.4-.3-.659.676-1.106.218-1.4m-.271-31.405c-.046-.341.363-.384.592-.234.048.341-.387.212-.592.234m.488,30,.049.341.2-.021-.049-.341ZM58.227,50c-.41.043-.495.916-.084.873-.277-.49.592-.233.084-.873m.9-30.489.048.339,1.231-.127-.049-.339Zm1.249,63.429c.482.468-1.183.466-.725.765a2.715,2.715,0,0,1,1.641-.169c.2-.021-.144-1.022-.071-.511.024.169.048.341-.158.362-.41.043-.277-.49-.687-.447m1.793-52.17a.829.829,0,0,1-.59.233c.13,2.4-1.57,3.616-1.668,5.871.385-.212.18-.191.819-.084.147-1.916,1.909-4.169,1.439-6.021m-.716-10.979c-.41.042-.821.084-.771.424.181-.191,1.182-.467.771-.424M61.14,39.682l.048.341c.663.277.315-.723-.048-.341m.311,43.49c5.282-.887,20.02-5.51,25.931-7.843-6.031,1.483-20.611,5.745-25.931,7.843m3.764-60.317c-.844-.085-.337.554-.977.447.048.341-.134.532-.061,1.043l.615-.063c-.326-.831.748-.6.422-1.427m.545-3.509.615-.063c.361-.384-.663-.279-.615.063m1.171-2.019-.049-.341-.409.042.049.341Zm4.32,52.749-.821.084c-.132.533,1.3.386.821-.084m7.386,9.605a1.77,1.77,0,0,0,.8-.254,1.4,1.4,0,0,1-.8.254m74.11-73.243a4.1,4.1,0,0,0-3.171-.365c-.41.043-.1-.683-.687-.448-4.449-.578-8.32-.008-13.723.028-8.863.566-20.49,3.659-30.945,4.734-2.8.806-5.549,1.952-7.852,1.842C92,13.713,87.131,14.56,82.2,16.448c.1.681-.473,1.085-.376,1.766A208.43,208.43,0,0,1,121.7,8.938a55.018,55.018,0,0,1,10.382-1.586c.339-.552,2.184-.741,2.871-.3.615-.063.11-.7.773-.423,3.58.322,6.632-.164,10.986-.265,1.53.532,4.93,1.047,6.04.07M82.34,20.407l-.048-.341-.41.042.048.341Zm3.908-1.784c-.2.021-.229-.149-.434-.129-.722.766-2.46.253-2.907,1.509,1.183-.469,3.052-.488,3.342-1.38M152.617,4.034c-2.546-1.81-5.329-2.388-9.249-2.16.735.789,1.845-.189,2.374.621-2.53-.256-6.245-.048-8.139-.2.676-1.1,3.534-.016,5.2-.014-.507-.641.592-.234.339-.554a18.578,18.578,0,0,0-6.862.015c-4.931-1.049-10.3.712-15.087.686a.548.548,0,0,1-.132.532c-4.765.144-10.154,1.733-13.868,1.941-.132.532-1.363.659-1.5,1.192-.665-.279-.231-.149-1.28-.215.024.172-.18.193-.361.384.41-.042.638.106.687.446-.641-.106-1.412.318-1.87.019-.048-.339,1.05.066.773-.423-.592.233-.278-.492-.867-.259a1.8,1.8,0,0,1-1.848.191c-5.391,1.59-11.7,2.584-16.86,4.324.3.658-.266,1.063-.376,1.764.024.17.41-.042.639.106a10.064,10.064,0,0,0-1.195,1.851c1.253.044,1.205-.3,1.892.15l.412-.042-.025-.169.821-.085-.025-.17.615-.063-.022-.17.614-.064L87.4,13.5l-.205.022-.048-.341.614-.064.048.341.205-.021-.024-.17.821-.085-.024-.17.821-.084-.024-.17,1.434-.148-.024-.169.819-.084.025.169.41-.042c.614-.064-.482-.468-.071-.51,3.871-.571,6.187-1.846,9.671-2.2a18.367,18.367,0,0,1,5.875-1.122,17.652,17.652,0,0,1,7.331-1.1C118.524,5.636,125.025,6,128.98,4.562c4.717-.485,14.446-.793,20.235-1.043a14.739,14.739,0,0,1-3.063-1.066,21.559,21.559,0,0,1,6.464,1.581M87.581,10.369c-.386.212-2.111,1.253-2.438.422a5.765,5.765,0,0,1,2.438-.422m26.635,1.581c-8.1,1.524-16.412,3.068-22.372,5.063-2.231.4-4.486.633-5.162,1.739,8.806-2.459,19.5-4.767,27.534-6.8M97.4,9.189c-.59.233-1.05-.066-2.026.381-.277-.492-.1-.683.519-.747-.663-.277-1.64.169-2.255.233.084-.871,1.773-.7,3-.826-.337.553.868.256.76.959M94.211,70.655l-.615.063-.049-.342.615-.063Zm-.593.233.41-.042.049.341-.205.021a.525.525,0,0,1-.254-.32M98.893,8a4.016,4.016,0,0,0-1.436.148c-.3-.661,1.339-.829,1.436-.148m.158-.362c-.049-.341.8-.255,1.205-.3.048.341-.821.084-1.205.3m1.577.873s-.663-.278-.615.063c-.638-.106.725-.764.615-.063m1.751,53.7a11.124,11.124,0,0,0-2.484.083c.931-.786,2.979-1,4.137-1.633-.542.574-1.568.678-1.653,1.55m-1.024.106.41-.042.022.17-.41.042ZM106.274,4.3l-.048-.341.41-.043c.253.32-.158.362-.363.384m6.21,1.261a.931.931,0,0,1,.3.661,4.855,4.855,0,0,1-1.663,0c.156-.362.544-.575,1.363-.659m-.687-.448c-.025-.17.385-.212.592-.233.024.17-.386.212-.592.233m7.292,5.987c-1.026.1-1.918-.322-2.231.4.638.109,2.121.3,2.231-.4m.956-6.487c.025.169-.953.616-1.024.106Zm-.94-.768c-.024-.17.386-.212.8-.255-.181.193-.385.214-.8.255m8.775,6.179a17.081,17.081,0,0,0-8.359,1.2c3.281-.337,5.054-1.035,8.359-1.2m-.237-7.573c-.108.7-4.62,1.163-4.509.464-.025-.17.2-.021.2-.021.977-.447,3.328,0,4.305-.443m2.075-.041-1.434.148c-.073-.511,1.338-.829,1.434-.148m3.624,6.536c-.205.021-.868-.256-.821.085.025.17.868.256.821-.085m1.935-6.935c-.339.553-1.46-.021-2.052.21-.434-.126,1.617-.338,2.052-.21m-.525,6.617-.821.085.048.341.412-.043-.024-.17.41-.042Zm2.689-.1c-.385.214-1.458-.023-1.411.318.385-.212,1.255.045,1.411-.318m-.5-6.512-.614.064-.024-.17.614-.064ZM139.62.36l-.049-.339L139.776,0l.048.339ZM147.4.942l.048.341.41-.042L147.807.9Z"
          transform="matrix(1, 0.017, -0.017, 1, 9.827, 5.13)" fill="#fff"/>
    <path id="Контур_6" class="white-style-path" data-name="Контур 6"
          d="M37.183,48.231a50.137,50.137,0,0,1-2.6,5.667.616.616,0,0,1,.529.11c.11-.53.92-.974.518-1.443.149-.192.962-.634.368-1.255,1.3-.674,1.689-1.756,2.628-2.56a11.829,11.829,0,0,1,2.454-5.477c.019.169.23.49.252.661-1.308,2.055-2.064,4.39-3.372,6.45.042.34.192.149.233.49-2.18,1.988-4.721,12.488-6.67,14.966-2.152,5.1-4.215,13.811-10.113,15.037-.11.53-.619.591-.92.975a2.172,2.172,0,0,0-2.042.245,24.529,24.529,0,0,1-9.928-2.09c-1.838-2.37-4.727-3.4-6.607-6.119C-1.366,65.3.372,58.182,1.277,51.336c-.111-3.787,2.8-16.922,3.872-22.406.871-4.253,5.225-2.529,7.384-.369,1.377,1.388,2.773,2.947,3.79,4.209-.559,5.424-2.6,9.986-3.161,15.409-.981.464-.348,1.423-.544,2.658-.682.083-.449.572-.219,1.062a140.034,140.034,0,0,0-1.482,16.418,17.539,17.539,0,0,0,.545,5.984l.17-.022.041.341-.17.019a.627.627,0,0,1,.231.49c2.364-.456,4.123-3.087,6.022-4.523a28.017,28.017,0,0,1-3.828,4.089c.191.149.191.149.212.319,4.142-2.916,8.153-9.79,11.755-15.751l-.02-.169,1.458-2.248-.17.02c-.042-.341.3-.381.279-.553l.169-.02.58-.933a2.409,2.409,0,0,1,.879-1.315l1.757-2.629c.469-.4.211.318.552.277.17-.02.15-.189.49-.23-.572-.449-.061-.51-.653-1.131.342-.039.383.3.592.621.149-.191-.061-.511.471-.4-.042-.341-.23-.49-.252-.659,1.681-.376.775-2.168,2.268-2.693a.635.635,0,0,1-.233-.492l-.341.041a5.7,5.7,0,0,1,1.418-2.586c.061.513-.26.724-.368,1.254,1.818-2.12,2.643-5.329,4.715-6.787C36.174,45.59,29.7,56.387,24.827,64.745c.341-.041.108-.53.619-.592.041.341.211.321.273.832-.341.041-.45.573-.79.614a.644.644,0,0,1-.233-.492c-1.158,1.868-2.145,3.714-2.981,5.37.019.169.189.149.208.321.511-.061.3-.381.641-.422-.8-.943,1.75-1.248,1.8-2.291.471-.4.532.111.872.069l2.294-3.9-.17.02c-.041-.341.28-.553.6-.763a138.993,138.993,0,0,0,6.955-12.584c2.684-4.984,5.537-9.993,7.841-15.28.551.279-.069.871.183,1.532-1.8,3.674-3.207,7.815-5.755,11.057M3.448,59.367c.241-.893,1.117-2.207-.026-3.108-.17,4.34-1.491,9.165-.088,13.66-.312-1.171.778-2.165-.388-3.235.341-.041.341-.041.532.108-.041-.341-.383-.3-.444-.81l.513-.06c.108-.533-.084-.682-.425-.641.791-.614.886-2.7.145-3.127,1-.295.156-1.574.584-2.318-.169.022-.169.022-.191-.147.641-.423.131-.362-.212-.321m1.173-4.633c-.383-.3-.594-.621-.933-.58.061.513-.6.764-.176,1.405l.679-.083c.13-.364-.1-.851.43-.743M4.13,50.647c.231.491-.538,1.274.055,1.892-.042-.338.189.149.49-.23.089-.7.346-1.423-.545-1.662m1.05-1.335c-.322.211-.383-.3-.553-.28a3.25,3.25,0,0,1-.176,1.4c.17-.02.191.149.51-.061-.23-.49.091-.7.219-1.062m5.65-33.5c-.019-.169-.49.233-.53-.108s.279-.55.429-.744a.64.64,0,0,1-.123-1.02,8.413,8.413,0,0,1-.076-2.064c-.047-3.276.626-6.3.94-9.445,1.089-5.31,6.532-.264,7.065-.154.02.17-.15.189-.13.36.36.13.4.471.591.621l.022.169C20.6,6.516,18.56,9.7,18.4,12.653l-.511.061c-.13.361-.28.55-.258.721-1.112.826.279,3.768-2,4.906-1.239,1.186-1.009,1.676-1.88,1.608-4.169-.189-3.114-2.908-2.918-4.142m2.478,59.479-.019-.172-.341.041.02.172Zm4.013-6.874-.258.722c-.17.022.089-.7.258-.722m1.219-1.355.061.51c-.358-.129-.149.192-.49.233-.13.36.091-.7.429-.743m2.807-3.964.341-.041.041.341-.341.041Zm2.466-3.927.341-.041c.212.321-.149.192-.13.361-.17.02-.189-.149-.211-.321m5.552,4.518c-.51.06-.832.272-.77.782.682-.081.449-.572.77-.782m5.22-9.785c-1.848,3.334-3.994,7.044-4.533,8.318.342-.041,4.781-7.657,4.533-8.318m-4.315-1.382a.169.169,0,0,0,.191.151l.341-.041-.022-.169Zm1.546-2.95.041.344c-.17.02-.319.21-.49.23s.279-.553.449-.573m1.907-2.821.022.172c-.17.02-.022-.172-.022-.172m.511-.06c.13-.361.81-.442.368-1.252-.128.361-.812.442-.368,1.252"
          transform="matrix(1, 0.017, -0.017, 1, 119.361, 45.727)" fill="#fff"/>
    <path id="Контур_7" class="white-style-path" data-name="Контур 7"
          d="M36.05,107.221a1.209,1.209,0,0,1,.77-.786c-.02-.169-.191-.149-.231-.488-.321.21-.28.549-.6.762a8.137,8.137,0,0,1,1.779-2.459c.211.322-.491.233-.239.893.319-.211.559-1.1.047-1.043a.758.758,0,0,0,.388-1.082c.66-.253.552.279.743.429l.26-.721c-.342.039-.233-.49-.444-.812.511-.061.449-.573.771-.784-.43.744.421.641.7.088-.041-.34-.361-.13-.231-.49a.6.6,0,0,0,.361.13c.321-.211-.062-.511-.1-.852.4.471.96-.632.728-1.124-.511.061-.3.381-.089.7-.341.041-.552-.281-.743-.431.321-.211.661-.252.43-.741.319-.211.511-.061,1.171-.314-.422-.64-.381-.3-.294-1,.17-.02.062.51.273.829.128-.361.279-.552.619-.592a.322.322,0,0,1-.062-.51l-.679.082c-.212-.322.449-.575.66-.254l-.022-.17c.852-.1.41-.912,1.09-.994.157-1.574,2.364-4.777,3.18-6.6.688-1.464,1.459-2.249,1.316-3.441,2.377-3.221,3.289-7.132,4.965-10.443.532.11.061.511.294,1-3.372,6.452-6.152,13.523-9.522,19.975,1.491-.525,2.117-2.5,2.444-4.094,1-.294.5-1.615,1.5-1.907a6.019,6.019,0,0,0-.5,1.614c-1.239,1.186-1.546,2.95-2.214,4.584.471-.4.429-.743.94-.8.341-.039-.464-.979.408-.912.231.491-.13.362-.088.7a.167.167,0,0,1,.191.147,1.3,1.3,0,0,0,.348-1.423,13.638,13.638,0,0,0,2.015-3.352c.11-.53-.341.041-.381-.3-.4-.469.429-.741.069-.871.468-.4.4.471.464.981.087-.7.728-1.124.8-2-.321.211-.832.273-.81.444a2.18,2.18,0,0,1,1.158-1.867c-.319.211-.258.721.122,1.021l.349-1.424a.592.592,0,0,0-.321.212c-.294-1,.176-1.405.456-1.956.339-.041.339-.041.532.108a.942.942,0,0,0-.559,1.1c.319-.211.641-.422.579-.933l.172-.02.856-1.485c-.53-.108-.321.211-.851.1A1.863,1.863,0,0,1,52,81.808a.627.627,0,0,1-.231-.491c.339-.042.511-.062.449-.572.191.15.062.51.722.258.491-.231-.122-1.021.388-1.083-.191-.149-.53-.108-.592-.618,1.234.2,1.11-.826,1.2-1.527-.042-.341-.471.4-.511.061-.4-.469.469-.4.239-.891.319-.211.081.68.422.64A9.14,9.14,0,0,0,54.9,75.76c-.041-.341-.381-.3-.442-.812.321-.211.279-.55.579-.933l.17-.022a12.792,12.792,0,0,1,2.431-5.647c.083.683-.388,1.083-.287,1.936.45-.572,1.09-1,.989-1.848.469-.4.559-1.1,1.028-1.505.381.3-.068.874.356,1.512-.513.062-.471.4-.43.743l-.51.062A13.857,13.857,0,0,1,56.5,74.7c.042.341.533.108.552.279.641-.422.369-1.254,1.029-1.507-.2,1.234-.334,2.978-1.315,3.441a1.285,1.285,0,0,0,.068-.872c-.381-.3-1,.295-.96.636.7.088.083.68.464.981a23.713,23.713,0,0,0-2.268,7.009,17.8,17.8,0,0,0,1.7-3.141c.5,1.321-.8,3.379-1.151,4.8l-.041-.341c-.129.361-.621.594-.068.872.06.51.3-.381.339-.041a7.741,7.741,0,0,1-.776,2.167c.192.149.341-.042.491-.233a1.1,1.1,0,0,0,.122,1.021c-1.15.484-1.135,2.038-1.545,2.95a11.271,11.271,0,0,0-.545,2.658c-.2,1.234-1.546,2.95-2.234,4.413-.967,2.017-1.873,4.545-2.861,6.391a6.853,6.853,0,0,1-1.457,2.248c-1.225,2.739-3.943,6-5.381,8.42-4.025,5.322-11.321,9.307-15.913,8.477-.061-.51-.212-.321-.252-.661-2.957-.162-5.055-1.811-7.733-2.525-.987-2.473-4.388-3.448-4.5-5.851a.639.639,0,0,1,.11-.533l-.15.192a.63.63,0,0,0-.231-.491c.341-.041.341-.041.319-.21.11-.533.069-.874-.633-.963.3-.38.219-1.062.327-1.592.15-.191.191.15.381.3.511-.062.11-.532.047-1.043-.088.7-.341.041-.83.273-.062-.513.258-.722.218-1.063s-.552-.279-.592-.619c.64-.422-.334-1.342.327-1.595a2.174,2.174,0,0,1-.8-.939c.511-.061.108-.533.6-.764-.191-.15-.341.041-.511.061.15-.191-.081-.68.279-.551-.189-.15-.23-.491-.551-.28-.211-.321.51-.061.469-.4-.231-.49-.7-.089-.913-.407-.041-.341.49-.233.641-.423a1.88,1.88,0,0,1-.054-1.9c-.743-.429.5-1.614-.567-1.831-.231-.491.64-.423.239-.891.3-.384.319-.214.83-.275-.083-.682-.552-.28-.594-.621l.341-.041-.019-.17-.341.041c.3-.38.809-.441.728-1.123a.6.6,0,0,0-.361-.13c.5-1.614-.027-3.107.319-4.53-.019-.169-.17.022-.211-.319-.17.019-.149.189-.129.36-.191-.15-.212-.321-.361-.128-.041-.341.49-.231.812-.444-.253-.661-.764-.6-1.127-.729-.039-.34.281-.55.6-.762-.633-.962.089-.7-.544-1.664.319-.211.3-.381.449-.571-.852.1-.083-.682-.335-1.343.362.13.13-.361.471-.4-.062-.511-.53-.11-.762-.6.3-.381,1.04.046,1.32-.5-.211-.321-.3.38-.83.272-.041-.341-.041-.341-.211-.321.149-.191-.062-.513.279-.553l-.169.02c.147-.189.108-.53-.124-1.021.211.321.852-.1.933.58.322-.212.921-.975.327-1.595-.34.042-.3.383-.26.722l-.682.081c-.8-.94,1.458-2.248.185-2.785.13-.361.068-.874.579-.935-.484-1.151-.143-1.192.1-2.084-.553-.28-.062-.51-.465-.981.172-.02.322-.211.492-.231a.626.626,0,0,1-.231-.491c.36.13.108-.532.789-.614-.061-.511-.51.062-.552-.279.3-.381.218-1.062.518-1.445-.02-.17-.191-.149-.361-.128.15-.189.43-.744-.061-.511-.042-.341.319-.211.491-.233a.369.369,0,0,0-.383-.3,9.651,9.651,0,0,0,.824-3.208c-.211-.321.061.51-.469.4.407-.913.265-2.106,1.056-2.717a.684.684,0,0,0-.874-.069c.131-.361.471-.4.96-.633a8.707,8.707,0,0,0-.523-1.493c.128-.36.469-.4.81-.441.108-.532-.66.252-.552-.28.872.068.41-.913.177-1.4.15-.191.83-.272.77-.782-.02-.17-.66.252-.552-.28.832-.272.367-1.254,1.029-1.507-.042-.341-.083-.679-.272-.829.66-.253.449-.575.407-.914-.15.191,3.922-19.13,3.078-20.409-.833.273-.962.633-1.854.395-3.283,1.431-9.087,4.894-13.473,5.765-1.486-.859-1.33-2.432-1.984-3.564-1.409-3.112,1.11-5.141,6.145-7.821-.061-.51.64-.422.751-.952,1.1.557,2.92-1.561,4.194-1.024.321-.211.28-.55.429-.743.321-.211.361.13.383.3.341-.041.237-.893.49-.231-.041-.341.729-1.123.96-.633l.619-.592c.321-.212.362.127.381.3.682-.081.859-1.485,1.323-.5.707-1.3,2-.587,3.622-1.474-.189-.149-.36-.128-.4-.469a1.538,1.538,0,0,0,1.281-.844c-.041-.34-.192-.15-.362-.128.471-.4.219-1.064.157-1.574.661-.253.619-.594.56-1.1-.151.191-.13.36-.3.381-.062-.51.3-.381.047-1.044.361.13.319-.211.469-.4-.02-.17-.17.02-.339.042.319-.212.068-.872.578-.935a1.084,1.084,0,0,1,.5-1.615c-.083-.68-.184-1.531.457-1.956-.022-.17-.341.042-.383-.3.96-.633.989-1.846.655-3.188.852-.1.407-.912.858-1.485-.042-.341-.7-.089-.422-.64-.211-.321-.319.21-.49.23-.035-1.722-.049-3.275.851-4.42a3.669,3.669,0,0,1,.824-3.21c-.294-1-.417-2.022.225-2.443-.062-.511-.294-1-.164-1.363A3.07,3.07,0,0,0,25.5.684c.15-.191.341-.041.361.128C26.2.771,25.8.3,25.78.132a1.3,1.3,0,0,1,1.595.326c3.637.081,8.482,1.574,9.545,6.11a2.823,2.823,0,0,0-.137,1.745c-1.029,1.5-.38,4.017-1.409,5.524.58,3.384-2.091,5.606-1.362,8.8a6.383,6.383,0,0,1,2.964-1.22c.319-.211-.212-.321-.083-.682.7.089,1-.294,1.234.2,1.3-.675,6.737-2.884,8.611-3.108-.041-.339.471-.4.449-.572,3.9-.64,6.818-2.2,10.035-2.761,1.854-.395,4.339.172,6.363-.243a6.806,6.806,0,0,1-2.56,1.689c.169-.02.189.149.21.319.322-.212.682-.083.472-.4.189.15,1.211.026.38.3.02.172.49-.233.852-.1.041.341.1.853.4.471-.007,1.384-1.86,1.779-2.078,2.842-.661.253-1.873.225-1.622.885-.7-.088-.64.423-.939.8-.688,1.465-4.714,2.467-7.317,3.814-1.47.7-3.133,1.242-4.454,1.745-2.153.779-4.714,2.47-6.076,2.632A24.355,24.355,0,0,0,32.6,32.484c-2.262,1.307-3.445,21.663-4.881,24.081.137,2.575-1.4,4.142-1.627,6.587.872,4.386-1.035,7.207-1.116,10.845-1.39,5.694-1.274,12.421-2.3,18.245a2.549,2.549,0,0,0,.315,1.17,14,14,0,0,0-.471,4.721c-.511.061-.108.532-.619.592.239,3.427.818,6.812.675,9.94A25.237,25.237,0,0,1,23.6,115.8c.526,1.492.417,2.023,1.179,2.623a8.1,8.1,0,0,1,1.9-1.438l.042.34-.172.02c-.068.874-1.409,1.208-1.749,1.248.019.169.23.49.25.66.812-.442,1.261-1.013,2.071-1.457-.041-.341-.231-.492-.4-.472l.34-.041-.041-.34-.17.02c.79-.613,1.431-1.036,1.477-2.078.533.11,1.044.047.621-.592,2.152-.778,4.02-3.937,6.13-5.057-.422-.638.26-.721.177-1.4a.792.792,0,0,0,.79-.611c-.17.02-.149.191-.319.211-.042-.341.129-.361.449-.574-.15.192-.15.192-.13.363M10.088,99.626l.341-.041.041.341c-.321.211-.362-.13-.491.231-.532-.11.321-.211.11-.532m.116-1.914a.167.167,0,0,1,.149-.191l.041.341-.17.02Zm.522-2.828c-.189-.149-.34.042-.38-.3.339-.042.319-.212.66-.253.231.491-.28.55-.429.743-.17.02-.022-.17.149-.192m-.174,1.405c.53.108.461.979.142,1.19-.231-.488-.464-.979-.142-1.19m.414,2.022-.17.02c-.149.191.272.832-.238.893-.422-.64.26-.722.027-1.213.172-.02.211.321.381.3m-.5-2.7c.169-.022.191.149.21.319l.022.17c-.17.022-.211-.319-.231-.49m.974-7.718c-.384-.3.087-.7-.254-.663,0,0-.088.7.254.663m1.675-7.631c-.491.233-1.023.123-1.11.825l.019.169c-.189-.15-.34.042-.511.062.192.15.192.15.214.322.319-.214.128-.364.51-.062a.169.169,0,0,1,.15-.192l-.192-.15a1.138,1.138,0,0,0,1.152-.483c-.041-.341-.211-.321-.231-.491m-1.335,3.269.341-.041c-.191-.149-.191-.149-.212-.319l-.17.02Zm.047-5.359.061.51c.511-.062.258-.722-.061-.51m.559,11.853c-.326,1.595.219,3.256-.469,4.721.041.341.123,1.023.486,1.152l-.152.189.02.17c.15-.189.15-.189.131-.36l.149-.192-.041-.341.17-.02-.062-.511.17-.02-.1-.851.149-.191-.287-2.383.17-.022-.1-.851.15-.192-.041-.341Zm-.311,20.423c-.17.02-.088.7.083.682s.088-.7-.083-.682M12.3,99.361l.02.17-.169.02-.15.189.02.17.17-.019.02.17.341-.042-.083-.682Zm-.027-3.107c-.279.553-.5,1.614.2,1.7a.767.767,0,0,0-.218,1.066c.619-.6.327-1.6.014-2.769m-.169,4.34.17-.02c.02.169.041.339.21.319l-.061-.51c-.17.02-.341.041-.319.211m.417,6.341c.979-.463-.268-2.214.164-2.955-.791.611-.438,2.125-.164,2.955m-.2-3.085c.51-.061.218-1.062.027-1.213a2.547,2.547,0,0,0-.027,1.213m.292-16.274c-.069.871-.457,1.954-.076,2.255l-.02-.17.172-.02-.083-.68.17-.022-.123-1.021.169-.022-.041-.341Zm.5-5.934c-.982.464-.866,2.869-.294,3.318a6.149,6.149,0,0,0,.294-3.318m-.6,26.677c.532.108.43-.743.068-.871.233.49-.3.381-.068.871m.011-33,.169-.02-.041-.341-.149.191Zm.749,3.364c-.041-.34-.123-1.02-.591-.618.21.321.041.341.081.68Zm-.5-1.32c.341-.041.511-.062.471-.4l-.511.064Zm.022.17c.041.341.381.3.721.258-.061-.511-.38-.3-.721-.258m.268,32.449-.041-.342-.17.019.041.342ZM12.86,85.3l.02.169.169-.02-.02-.17Zm1.228,27.494c-.51.061-.572-.449-.613-.79l-.511.061c.081.682.444.81.314,1.171a1,1,0,0,0,.81-.442m-1.07-3.154.17-.022-.02-.17-.17.022ZM13,73.535l.041.341c.362.128.261-.721-.041-.341m.073,38,.17-.02c.019.17.019.17.189.15-.019-.17-.312-1.17-.272-.83.231.491-.3.381-.088.7m.575-39.8-.17.02.02.17-.17.022.02.172-.169.02.02.169c.34-.042.66-.252.449-.573M13.465,70.2l.511-.061-.042-.341-.17.02a.368.368,0,0,0-.3.381m.414,2.023-.169.02.02.17-.17.02.062.511.17-.02.02.17.17-.02c-.042-.341.218-1.062.176-1.4l-.34.041Zm.135,42.831c-.17.019-.15.188-.321.21a.167.167,0,0,0,.191.149l.17-.019Zm-.107-44.044.02.17.342-.041-.062-.51-.191-.15.041.341Zm.02-4.147c.02.17.041.34.211.318-.02-.169.319-.21.13-.36Zm.818,15.449-.02-.17-.341.041.042.341.341-.041.149-.191Zm-.3.381.02.17.17-.02-.022-.17Zm.042.341c.189.149-.28.55.231.49,0,0,.108-.53-.231-.49M14.908,66.4c-.17.02-.189-.15-.341.041-.128.361.552.28.341-.041m-.257,13.679c.02.17-.13.361.061.511.36.128.088-.7-.061-.511M18.96,55.544c-.02-.169-.191-.149-.36-.128-1.113.822.2,3.084-1.083,3.929l.184,1.532a.6.6,0,0,1-.361-.13,3.666,3.666,0,0,0,.164,1.363c-.341.041-.15.191-.491.231.312,1.171-.688,1.465-.2,2.616l.02.17-.149.192.041.34-.15.191.02.17-.15.191.041.341-.149.191.02.169-.15.192.042.341-.151.191.022.17L15.963,68l.022.17-.13.36.042.341-.13.361.02.172-.15.189.02.17-.13.361.041.341-.149.191.041.339-.149.191.061.511-.15.192.062.51-.151.192.022.17-.13.361.041.34-.128.36.041.342-.13.361.083.682-.15.189.061.51-.149.191.123,1.023-.15.191.1.852-.15.189.143,1.193-.13.361.341-.041-.022-.17.172-.02L15,78.65l-.17.02-.042-.341c.858-1.484.694-2.846.81-4.761,1.328-1.886.6-5.082,1.758-6.948-.083-.682.046-1.043-.5-1.321.51-.061.108-.532.088-.7.51-.061.3-.381.81-.442l-.02-.17-.17.02-.081-.682a.626.626,0,0,0,.49-.231l-.039-.34.169-.022-.082-.68.17-.022-.061-.51.15-.192-.061-.511.149-.191-.041-.34.15-.191-.062-.513.13-.36-.041-.341.15-.189-.062-.511.15-.191-.062-.511.151-.189-.061-.511.147-.191-.061-.511L19,55.883ZM15.385,64.61c-.322.212-.062-.51-.552-.279.06.511.442.812.552.279m.2-1.234-.061-.509-.511.061c.061.51.4.469.572.448m.1-3.467-.17.02.022.172-.17.02.022.17c.169-.02.51-.062.3-.383m-.081-.68.041.341c.362.127.26-.724-.041-.341m.164,1.362c.15-.191.15-.191.321-.211l-.02-.17-.341.041ZM16.989,31.94l.02.17.17-.02.02.17-.339.041.019.169-.17.02.02.17.341-.041-.02-.17.339-.041-.019-.169.17-.022-.042-.341Zm1.184-3.081-.019-.17a.633.633,0,0,0,.491-.23l.039.339ZM20.487,65.38l-.041-.34-.341.041.041.34Zm1.263-41.267c.231.49-.321.211-.089.7.341-.041.43-.743.089-.7m.122-7.618-.042-.341.17-.02.02.17Zm.287-1.933c-.233-.492.237-.894.768-.786-.108.532-.258.724-.768.786m.414,6.34s.022.17-.169.02l.041.341c.361.13.28-.552.128-.361m.594.622a.529.529,0,0,0,.321-.214.535.535,0,0,0-.211-.319.528.528,0,0,0-.321.211l.041.342Zm.906,1.789.062.513-.17.02.041.341-.17.02.062.51-.17.02.123,1.021.17-.02.019.17.11-.53.169-.02-.019-.17-.15.191-.041-.341.169-.02.022.17.108-.532-.17.02.238-.891-.17.02-.061-.513Zm-.053,2.425-.042-.34.17-.02Zm.088-.7-.041-.341.169-.02Zm.476-1.787.019.17.131-.361-.172.022-.083-.68-.169.02.042.341-.151.191.042.339Zm.15-.191-.327,1.6.17-.022-.02-.17.169-.02-.041-.338.172-.022-.082-.683.149-.191-.019-.17Zm.734-2.5c-.319.21-.532-.111-.68.08l.02.17.17-.02.142,1.193.17-.02c-.061-.51.621-.591.177-1.4m-.551-.28.17-.02-.022-.17.17-.019-.041-.342-.17.02Zm2.938,96.393.042.341.17-.02-.042-.341Zm7.381-92.451c.261-.721,1.323-.5,1.581-1.225a16.484,16.484,0,0,0-3.453,1.451c.233.491-.279.553.142,1.192l1.023-.123.15-.189L35.7,25.2l-.02-.17.511-.061.149-.191.341-.041-.02-.17L37,24.525l-.02-.172.339-.039-.02-.17.15-.192-.02-.169.17-.02-.022-.17c-.789.613-1.6,1.056-2.344.626m3.352-2.3c-.252-.661-1.551.012-1.681.375-.872-.069-3.024.709-3.262,1.6,1.831-.565,3.433-1.62,4.944-1.975M34.98,24.942c-.15.191-.362-.13-.321.211-.341.043-.252-.661-.252-.661.191.149.551.28.572.45m-.41-3.407.34-.041.192.151a.633.633,0,0,1-.49.229Zm3,83.948c-.641.422-.17.02-.53-.11.23.491-.471.4-.239.893.511-.062.45-.572.77-.783m.592-82.823c-.511.06-1.023.122-1.173.311l.02.17.17-.019.022.17.34-.042-.02-.169.341-.042-.02-.17.17-.02Zm-.279.551.041.341c.53.11.279-.552-.041-.341m.333-2.976c.169-.022.149-.192.319-.212l.041.341-.17.02Zm.751,82.49.3-.383c-.191-.149-.3.383-.3.383M40.211,21.03l-.852.1-.149.189-.17.02.022.17.169-.019.02.169.341-.041.15-.191.17-.02.15-.191.17-.022Zm-.2,1.235-.172.02-.02-.17-.17.02.041.34.341-.041Zm.369,82.19a.168.168,0,0,1,.191.149c.66-.252.6-.763.687-1.465.02.169-.15.191-.321.21a3.605,3.605,0,0,1-.557,1.106m.168-83.465a17.964,17.964,0,0,0,3.774-1.662,18,18,0,0,0-3.774,1.662m.464,80.1.041.341c.533.111.28-.55-.041-.341m.614.793c-.341.041-.491.23-.258.721a.626.626,0,0,1,.49-.231.63.63,0,0,1-.231-.49m.628-1.976.039.341.17-.02-.041-.341-.169.02c.169-.02.169-.02.319-.211a2.294,2.294,0,0,1,1.1-2.378c-.211-.321.108-.53-.1-.852-.341.041-.3.383-.641.423.143,1.192-2.616,4.113-.672,3.018m1.212.027c-.02-.17-.192-.15-.383-.3-.02-.17-.041-.34-.211-.319.211.319-.3.381-.279.552.341-.042.762.6.872.068m.338-79.167s-.17.02-.211-.319c-.149.191-.682.083-.64.422.321-.211.893.238.851-.1M43.285,98.4c.189.149,1.553-.015,1.171-.315-.661.253-.362-.129-.211-.319-.361-.128-.321.211-.511.062.11-.532.6-.763.559-1.1-.641.422-.729,1.124-1.008,1.676M46.41,19.422l-1.363.164-.149.191-.51.062-.15.191-.17.02.041.341Zm7.351-2.092c-.5-1.321-2.425-.054-3.618.089-2.172.606-4.557.893-5.647,1.887,2.236-.095,6.478-2.159,9.265-1.976m-8.258.3c-.019-.17-.019-.17-.21-.321l.51-.061.022.169c-.17.022-.341.042-.322.212m1-.294c-.022-.17-.022-.17-.214-.321l.341-.041.022.17a.167.167,0,0,1-.149.191M50.85,82.293c-.9,2.528-2.682,4.987-3.588,7.515.395-2.467,2.533-4.8,3.588-7.515M48,19.749l-.041-.341c-.17.02-.17.02-.322.211l.042.341c.172-.02.342-.041.321-.211m1.642-.716-.511.061-.02-.17-.682.083.02.17-.149.189.341-.041.019.17.341-.041.022.17.17-.02-.022-.17.17-.02-.02-.17.17-.02.02.17.17-.02Zm-.341.041-.17.02-.83.272Zm.375,67.851a.169.169,0,0,1,.15-.191c-.17.022-.17.022-.15.191M50.607,18.4a1.283,1.283,0,0,0,.871.066c.11-.532-1.1-.559-.871-.066m.243,63.892a.636.636,0,0,1,.111-.532.636.636,0,0,0-.111.532m2.562-6.01c-.388,1.083-1.185,3.08-1.742,4.184-.185-1.534.864-2.869,1.742-4.184M52.8,17.964l-.513.062.022.17-.341.041.02.169-.17.02.02.17c.3-.38.211.321.53.11-.21-.321.791-.611.431-.743m-.375,64.485-.022-.17.17-.02-.02-.169-.511.061.042.34Zm.551-8.359c.341-.041.321-.211.28-.55.55.277-.431.741-.2,1.234a.6.6,0,0,0-.36-.13c-.042-.342.49-.231.279-.553m3.752-6.15c-.019-.17-.189-.15-.211-.321-.749.952-1.629,2.268-1.485,3.46.491-.233.449-.571.96-.633-.408.912-.584,2.316-1.416,2.589.361.13.231.488.273.829a1.741,1.741,0,0,0-1.315-.876c.925-2.358,2.233-4.416,2.819-6.732,1.219-1.355,1.527-3.119,2.364-4.776.436,2.194-2.617,4.116-1.99,6.46.511-.062.45-.573.6-.764.381.3-.6.764-.368,1.253a.625.625,0,0,1-.233-.488m-2.669,6.54L54,73.966c.49-.231.571.452.061.513m.776-2.167c-1,.292.257-.722-.273-.832-.491.231-.238.893-.559,1.1.17-.02.872.069.832-.272M55.722,16.4c-.66.252-.872-.069-1.532.184.231.488,1.826.816,1.532-.184M54.564,88.757c.17-.02.15-.191.3-.381-.149.191-.319.211-.3.381m.169-17.3a.528.528,0,0,1,.211.321.455.455,0,0,0,.45-.572c-.342.041-.13.361-.661.252m.13,16.915c-.041-.341.091-.7.049-1.043a1.05,1.05,0,0,1-.049,1.043m1.416-6.906c-.319.211-.743-.43-.421-.642.49-.231.4.472.421.642m-.258-12.236c.15-.192.49-.233.81-.445a2.782,2.782,0,0,0-.538,1.275c-.722-.26.579-.933-.272-.83m1.1-52.655c-.039-.339-.25-.659-.572-.448a1.557,1.557,0,0,0,.273.83,1.026,1.026,0,0,1,.661-.253l-.083-.68c-.53-.108-.13.361-.28.551M57.7,61.6l-.17.02-.022-.17.172-.02Z"
          transform="matrix(1, 0.017, -0.017, 1, 155.155, 13.573)" fill="#fff"/>
    <rect id="Прямоугольник_1" data-name="Прямоугольник 1" width="184.876" height="50.015"
          transform="translate(247.284 17.781)" fill="#2b5aa5"/>
    <path id="Контур_8" data-name="Контур 8" d="M0,0H184.876V50.015H0Z" transform="translate(247.284 80.729)"
          fill="#f5b51a"/>
  </g>
</svg>
