<svg id="Сгруппировать_4" data-name="Сгруппировать 4" xmlns="http://www.w3.org/2000/svg" xmlns:xlink="http://www.w3.org/1999/xlink" width="123.915" height="83.686" viewBox="0 0 123.915 83.686">
  <defs>
    <clipPath id="clip-path">
      <rect id="Прямоугольник_3" data-name="Прямоугольник 3" width="123.915" height="83.686" fill="#fff"/>
    </clipPath>
  </defs>
  <g id="Сгруппировать_1" data-name="Сгруппировать 1" clip-path="url(#clip-path)">
    <path id="Контур_2" data-name="Контур 2" d="M45.716,100.227l31.827-.409c-15.285,20.5-14.241,35.875-3.719,43.129H47.366c4.706-9.534,13.446-29.4,14.973-41.742-7.823,1.956-14.3,8.862-16.012,17.357Z" transform="translate(-27.524 -60.096)" fill="#fff"/>
    <path id="Контур_3" data-name="Контур 3" d="M113.245,117.244c5.917.772,12.156,6.239,8.3,15.951a10.342,10.342,0,0,0-7.2-3.28,6.107,6.107,0,0,0-1.93.257c-6.5,2.123-4.116,12.414,4.567,12.349,6.947-.129,9.712-8.169,9.584-14.6-.193-9.2-8.169-16.594-17.3-16.594l2.509-11.127c6.43-.16,40.922-.228,40.922-.228s-4.529.71-8.157,8.148c-3.872,7.938-24.725-1.359-33.345-.909l-.772,3.409a44.939,44.939,0,0,1,6.56-.45c12.671,0,24.505,5.21,25.341,17.045.836,11-9,16.015-18.588,16.594-10.677.643-21.933-3.28-22.19-16.208-.129-7.59,6.111-11.062,11.706-10.355" transform="translate(-61.131 -60.188)" fill="#fff"/>
    <path id="Контур_4" data-name="Контур 4" d="M226.663,99c28.113,0,28.052,44.187,0,44.187-27.991,0-28.052-44.187,0-44.187m0,43.453c8.434,0,8.434-42.72,0-42.72-8.373,0-8.373,42.72,0,42.72" transform="translate(-123.811 -59.605)" fill="#fff"/>
    <path id="Контур_5" data-name="Контур 5" d="M21.866,2.5a40.4,40.4,0,0,0,4.243-1.113c.126.122.4-.266.495.039.331-.349,1.4-.054,1.443-.554.054-.005.019.133.085.217.189-.2.7-.072.879-.316C30.581.743,32.4.2,34.251.186c.047-.05-.019-.133.035-.139a4.01,4.01,0,0,0,1.953-.02c.318.328,1.143.017,1.549.2.107-.011-.012-.089.095-.1a3.536,3.536,0,0,1,2.7,1.075c.05.356.331.417.57.573-.129.239.157.345.087.623-1.263-.1-2.721-.036-3.8-.015-2.705.458-5.691.855-8.182,1.292-1.736.4-3.405.891-5.355,1.317-.088.144-.356.172-.576.149-.807.444-1.723.493-2.483.887-.706.388-.361,2.067-1.167,2.51.164.389-.319,1.206-.392,1.845a14.094,14.094,0,0,1-.783,2.155c-.2.472-.183,1.011-.369,1.617-.158.422-.375.805-.539,1.183-.281.706-.376,1.572-.656,2.278a1.566,1.566,0,0,0-.426,1.216c.125.123.453.134.422-.088a7.25,7.25,0,0,0,1.32-.271c.035-.139-.072-.128-.085-.217a12.344,12.344,0,0,0,4.451-1.179.994.994,0,0,0,1.052-.244c.154-.061.025.178.233.112.154-.061-.113-.034-.072-.128.161-.016.2-.11.422-.089-.048.05-.1.055-.095.1.179.117.3-.211.435,0,.154-.061.135-.194.35-.216.025.178.535-.055.517-.189.16-.016.119.078.132.167a.3.3,0,0,1,.3-.211c-.051.411.993-.282,1.458-.059a4.425,4.425,0,0,1-1.943.47c-.053.005-.015.272.139.211-.041.095-.315.077-.341-.1-.463.183-.809.038-.926.366-.019-.134-.233-.112-.353-.19.085.217-.476.094-.337.306-.154.061-.125-.123-.179-.117L19.33,18.409a3.572,3.572,0,0,1-1.408.415c-.082.189-.6.016-.552.327a.665.665,0,0,0-.772.3c-.154.061-.078-.172-.227-.067a2.033,2.033,0,0,0-.155.828c2.5-.392,6.612-2.032,9.7-2.846-.107.011-.126-.123-.186-.161.113.033.233.111.24.156a3.219,3.219,0,0,0,.576-.149c-.012-.089-.12-.078-.132-.167.227.066.148-.106.315-.078-.012-.089-.113-.034-.12-.078a1.049,1.049,0,0,1,.964-.1c.116,1.206-2.438,1.2-3.506,1.714-.6.016-1.5.154-1.757.632-.192-.206-2.353.647-2.5.753-1.279.177-2.253.592-3.632.824a2.915,2.915,0,0,1-.378.4c1.272-.221,2.709-.819,3.767-1.019.069-.278,2.782-.691,2.911-.93,1.291-.088,3.266-1.1,4.725-1.162a8.67,8.67,0,0,1-4.25,1.835l-.142.15c-.2.11-.517.188-.826.31a2.017,2.017,0,0,1,.368-.083.05.05,0,0,0,.06.039c-.053.005-.992.282-1.616.482.41-.178.825-.31,1.188-.438-.63.155-1.675.443-1.675.443l.012.089a.307.307,0,0,0,.214-.022l-4,1.313a2.932,2.932,0,0,0-1.159.255,24,24,0,0,1-.906,3.205,2.058,2.058,0,0,1-.294,1.383c.065,1.617-.528,2.806-.469,4.378-.24.611.059,1.572-.42,2.028a13.731,13.731,0,0,1-.333,4.184c-.176-1.245.132-4.84-.1-5.719.363-.894.058-1.9.446-2.617.035-.139-.173-.072-.144-.256.054-.005.059.039.113.034-.126-.122.016-.272-.122-.484l.214-.022c-.132-.167-.078-.172-.11-.395.113.033.107-.011.161-.016-.085-.217-.032-.222-.11-.395.107-.011.094-.1.261-.072-.012-.089-.214.022-.179-.117.221.023.142-.149.243-.205-.2-.25.069-.278.019-.633-.107.011-.094.1-.082.189-.179-.117.063-.322.224-.339.034-.138-.168-.028-.18-.116-.072-.128.1-.056.2-.111-.019-.134-.132-.167-.151-.3.267-.028,0-.361.217-.384.022-.227-.186-.161-.211-.339.161-.017.129-.239.051-.411-.555.688-.231,1.828-.66,2.638-.182,2.951-.716,5.712-.456,8.707.39.456-.051,1.178.169,1.968a.483.483,0,0,1-.274-.017c-.1.055-.082.189-.01.316-.321.033-.17.334-.611.289-.371-.323-.907-.268-1.338-.63.088-.144-.007-.044-.032-.222.054-.005.06.039.113.034-.066-.084-.085-.217-.245-.2-.012-.089.041-.095.149-.106a12.3,12.3,0,0,1-.57-4.813c-.019-.134-.167-.028-.186-.162.227-.7,0-1.534.241-2.145-.087-.622.136-.961,0-1.534.3-.211.02-.633.2-.922.041-.094-.161.017-.126-.122a.436.436,0,0,0,.133-.6,17.438,17.438,0,0,0,.559-2.583.227.227,0,0,0-.167-.028c.249-.161.091-.505.287-.661.167.028.031.222.1.306.261-.072.218-.383.187-.605-.28-.062-.022.228-.237.249-.025-.178-.138-.211-.157-.344-.161.016-.368.083-.29.255-1.464.015-2.611,1.125-4.2,1.018a7.913,7.913,0,0,1-1.51-3c.7-.027,1.037-.738,1.594-.254A14.053,14.053,0,0,0,8.709,20.9c.875.045,1.6-.571,2.74-.6-.012-.089-.208.066-.173-.072a.246.246,0,0,1,.274.017,1.568,1.568,0,0,0,.546-1.139c.094-.1.227.067.321-.033.022-.228-.233-.112-.252-.245.142-.15.066.083.227.067a.5.5,0,0,0,.164-.377c-.012-.089-.167-.028-.333-.056-.038-.267.343-.261.192-.561.107-.011.161-.017.173.072l.089-.144c-.066-.084-.1.055-.221-.022a2.877,2.877,0,0,1,.568-1.367c-.245-.2.224-.339.067-.683.16-.017.262-.072.243-.205-.013-.089-.209.066-.174-.072.161-.017.148-.106.255-.117-.025-.178.022-.228-.05-.356.214-.022.069-.278.284-.3-.012-.089-.167-.028-.179-.117-.066-.084.1-.055.148-.105.041-.094-.072-.128-.085-.217l.16-.016c-.1-.306.239-.612.3-.978-.346-.145-.044-.311-.189-.567.416-.133.643-.833.4-1.033.107-.011.2-.11.3-.166-.28-.062.135-.195-.091-.261a.541.541,0,0,0,.221-.745c.1-.055.107-.011.113.034.054-.005.016-.272-.091-.261.041-.095.113.033.214-.022a2.42,2.42,0,0,1,.224-1.105c.035-.139-.161.016-.174-.073.017-.272.218-.383.234-.656-.208.067-.434,0-.35.217-.053.005-.066-.084-.072-.128-2.448.748-5.324,1.539-7.809,2.02a19.893,19.893,0,0,1-5.109.75c-.025-.178-.239-.156-.27-.378-.113-.033-.054.005-.161.017-.217-.384-.652-.384-.626-.973-.066-.084-.179-.117-.388-.05l-.21-.339C-.228,8.374.179,8.558.493,8.48A3.528,3.528,0,0,1,1.6,8.231c1.915-.287,3.257-.785,5.024-.967.135-.194,1.1-.293,1.266-.266.088-.144.3-.166.457-.227.073.128-.154.061-.022.228a1.645,1.645,0,0,0,.938-.277c-.012-.089-.208.066-.179-.117-.041.094-.148.106-.308.122-.079-.173.321-.033.3-.211.173.073.233.112.321-.033.007.044.06.039.12.078-.047.05-.088.144-.2.155.066.084.268-.027.321-.033.1-.055.028-.183.076-.233.227.067.107-.011.315-.078.114.034.126.123.341.1-.186-.162-.18-.117.123-.284.072.128-.155.061-.142.15.155-.061.239.156.5.084.028-.184.182-.244.271-.389.107-.011-.022.228.139.211s.088-.144.189-.2c.054-.005.066.084.126.122.154-.061.189-.2.284-.3a.729.729,0,0,0,1.033-.376c.179.117.012.089.037.267a12.89,12.89,0,0,1,2.221-.814c-.012-.089-.066-.084-.12-.078.208-.066.511-.233.684-.16.155-.061-.113-.034-.078-.173a.56.56,0,0,0,.734-.571c.221.023.082-.189.243-.206A22.03,22.03,0,0,1,17.49.735C17.2.224,18.658.164,18.834.642a1.332,1.332,0,0,1,1.593.513c1.071-.11.976.757,1.372,1.257l-.107.011.013.089.107-.011L21.8,2.412c.006.044.012.089.066.084M5.7,7.63c-.054.005-.107.011-.113-.034-.189.2-.756.033-.892.227a4.112,4.112,0,0,0,1-.193m.1-.055.012.089c.173.072.082-.189-.012-.089m1.528-.338A2.5,2.5,0,0,0,6.018,7.6a3.826,3.826,0,0,0,1.307-.361M7.8,7.143c-.148.105-.12-.078-.221-.023.007.044-.047.05-.095.1.107-.011.328.012.315-.077m.611-.289a.29.29,0,0,1,.2-.11c.072.127-.095.1-.2.11m.388.05-.054.005-.012-.089.054-.005Zm.677.562-.161.016.019.133c.1-.056.208-.067.142-.15m.844,24.091c.07-.278-.166-.8.07-1.045a.843.843,0,0,1-.087-.622,2.011,2.011,0,0,0,.017,1.667m.024-1.762a15.507,15.507,0,0,1,.4-2.973l-.126-.122a10.809,10.809,0,0,0-.317,2.378c-.009.317-.353.578.048.717m-.031,4.018c-.1-.35.155-.828-.156-1.112.1.35-.149.872.156,1.112m0,.406c-.167-.027-.2.156-.088.144-.073-.128.161-.016.088-.144m-.1.461c.066.084.031.222.138.211-.066-.083.076-.233-.138-.211m.081.578c.073.128-.057.367.116.439.107-.011.045-.456-.116-.439m1.582-11.891-.214.022a35.214,35.214,0,0,0-1.031,12.33c.154-.828.124-1.817.212-2.728-.218-3.09.609-6.467,1.033-9.624m-1.353,3.116c.469-.138.227-.7.243-.972-.123.283-.126.644-.243.972m.085.217a.126.126,0,0,0,.041-.094c-.054.005-.048.05-.041.094m.133-1.367c.006.045.006.045.066.084l.054-.005-.012-.089Zm.148-.106c.029-.183.17-.333.2-.516l-.179-.117c-.082.189-.212.428-.019.633m.2,5.258c.069.489-.19.966.04,1.439l-.161.016c-.035.139.167.028.132.167-.189.2.015.494-.007.722.127-.644.411-1.711,0-2.345m-.081,3.662.107-.011-.012-.089L11,34.059ZM12.4,6.987c.167.027.148-.106.2-.156.431.362.832-.266,1.44-.193.539-.416,1.9-.376,1.862-1.048.007.044-.047.05-.047.05.034-.139-.126-.123-.138-.212s.154-.061.075-.233c-.208.067-.4.222-.636.111.047-.05.267-.028.255-.117-.368.083-.762-.012-.772.305.167.028.2-.155.321-.033-.135.194-.416.133-.617.243-.066-.083.076-.233-.091-.261-.034.139-.2.111-.315.078.138.211-.255.116-.237.249.067.084.167.028.174.073-.053.005.012.089-.041.094-.066-.083-.233-.111-.245-.2-.076.233-.69.116-.712.344.227.068.416-.133.624-.2.006.044.066.083.072.127A17.8,17.8,0,0,1,11.1,7.03c.06.039.013.089.019.133.441.045.974-.416,1.279-.176m-1.253-.413.012.089.161-.017L11.3,6.558Zm-.011,27.652.007.044-.048.05.015.495.006.044.054-.005.006.044-.107.011.012.089.054-.005.025.178-.054.005.012.089.06.039.107-.011-.056-.4.054-.005-.044-.311.047-.05-.044-.311Zm-.017-13.215.006.044.16-.016L11.275,21Zm.073-14.893.2-.111c.013.089-.094.1-.2.111m.242,29.836-.054.005-.006-.044-.054.005-.037-.267-.161.017.006.044.06.039.006.044.053-.005.006.044-.161.016a.835.835,0,0,1,.1.712c-.034.139.107-.011.126.122l-.054.005.013.089-.054.005.075.534.053-.005.025.178.054-.005-.032-.222.054-.005-.107-.756.047-.05-.031-.222.054-.005-.019-.133.047-.05Zm1.028-12.736c-.7.839-.5,2.261-.893,3.294a.753.753,0,0,0,.1.35,12.024,12.024,0,0,0-.5,2.622c.019.133.167.028.139.212-.047.05-.208.066-.189.2.34.1-.205.472.195.612.236-.25-.113-.8.177-1.056-.078-1.706.518-3.256.538-4.656a4.816,4.816,0,0,0,.429-1.578M11.1,35.537l.012.089.107-.011-.012-.089Zm.2-2.412.019.133.107-.011-.019-.133-.06-.039-.007-.044-.107.011.007.044-.054.005.007.044Zm-.109,2.312.161-.017c-.006-.044-.059-.039-.066-.083l-.107.011Zm.268-4.267-.012-.089-.107.011.012.089Zm-.026,6.363c.066.084-.129.239.085.217.054-.006.016-.272-.085-.217m.166-7.685-.107.011c-.107.011.019.133.025.178.167.028-.019-.133.082-.189m.079,5.179-.107.011c.006.045.019.134.072.128-.012-.089.1-.055.035-.139m.03.989c-.006-.044-.019-.133-.119-.078l.006.044a.2.2,0,0,1,.113.034m.068-7.991-.054.005.012.089.054-.005Zm.117-1.094a.356.356,0,0,0,.085.217c.113.034.069-.278-.085-.217m.079-20.622.012.089.16-.017a.133.133,0,0,0-.066-.083Zm-.009,13.8.012.089c.173.072.089-.145-.012-.089m.148-14.359.107-.011c.067.083-.047.05-.034.139-.054.006-.066-.083-.072-.127m.121,13.564-.111.372c.221.023.23-.294.111-.372m.517-11.736L12.726,7.4a.885.885,0,0,0-.51.233c.053-.005.053-.005.06.039.16-.016.255-.117.475-.094m-.346,28.362L12.4,35.9l.054-.005-.012-.089-.107.011.007.044-.054.005.012.089c-.053.005-.154.061-.047.05L12.305,36l.047-.05Zm-.05.411c-.06-.039-.066-.084-.12-.078.007.044.019.133.072.128-.006-.044-.006-.044.048-.05m.158-.422c.013.089-.214.022-.088.144.113.034.2-.156.088-.144m0-15.021c.006.044.006.044-.048.05l.013.089c.167.028.142-.15.035-.139m.016-.272c.113.034.081-.189.041-.094.012.089-.155.061-.041.094m-.029.183c.054-.005.06.039.167.028.035-.139-.233-.112-.167-.028m.1-14.67.012.089.107-.011a.135.135,0,0,1-.066-.084Zm3.169,3.6-.214.022c-.394,1.439-.931,3.028-1.344,4.333a1.277,1.277,0,0,0,.062.444c-.167-.028-.154.061-.261.072-.332,1.884-1.221,3.283-1.421,5.333l.321-.033c.877-3.022,1.56-5.889,2.516-8.739-.012-.089-.114-.034-.126-.123a2.56,2.56,0,0,0,.467-1.311m-.449-2.8c-.091-.261.189-.2.189-.2-.006-.044-.059-.039-.072-.128.107-.011.387.05.315-.078-1.043-.074-1.931.559-2.876.791.12.078.192.206.359.234.451-.272.951-.188,1.342-.5.126.122.469-.138.743-.122M13,20.547c.114.034.129-.238.089-.144.006.044-.047.05-.154.061a.135.135,0,0,0,.066.084M13,20.864l.161-.016c-.066-.084.035-.139-.032-.222-.16.016-.2.111-.129.239m.11-15.393L13.1,5.426l.161-.017.06.039Zm.132,14.42-.012-.089-.107.011.012.089Zm-.06-5.046-.012-.089.267-.028c.073.128-.154.061-.255.117m.83,2.034a28.736,28.736,0,0,0-.789,2.878,7.454,7.454,0,0,0,.789-2.878M13.7,26.249l-.108.011-.012-.089.107-.011Zm.136-1.728-.161.017c.078.173-.148.105-.076.233.221.023.315-.077.236-.25m.268-.794c-.154.062-.284.3-.158.423.088-.145.064-.322.158-.423m-.034-10.642c-.066-.084.082-.189-.085-.217.006.044-.022.228.085.217m.613,1.651L14,16.835a4.916,4.916,0,0,0,.682-2.1m-.436-2.707-.107.011L14.134,12l.108-.011Zm.7,1.913c-.107.011-.158.422-.057.367-.079-.172.177-.289.057-.367m-.071-8.2c-.012-.089.095-.1.155-.061.012.089-.1.055-.155.061m.127,7.835.013.089.053-.005-.013-.089Zm.2-.517c-.107.011-.129.239-.022.228-.072-.128.155-.061.022-.228M15.443,5.1l.012.089.321-.033-.013-.089Zm.326,16.566c.126.122-.309.122-.189.2a.709.709,0,0,1,.429-.044c.053-.005-.038-.267-.019-.133.006.044.012.089-.041.094-.107.011-.072-.128-.179-.117m.468-13.625a.217.217,0,0,1-.154.061c.034.628-.41.944-.436,1.533.1-.055.047-.05.214-.022.038-.5.5-1.089.376-1.572M16.05,5.168c-.107.011-.214.022-.2.111.047-.05.309-.122.2-.111m-.082,5.2.012.089c.173.072.082-.189-.012-.089m.081,11.358a53.171,53.171,0,0,0,6.773-2.048c-1.575.387-5.383,1.5-6.773,2.048m.983-15.753c-.221-.022-.088.145-.255.117.012.089-.035.139-.016.272l.161-.016c-.085-.217.2-.156.11-.373m.142-.916.161-.016c.094-.1-.173-.073-.161.016m.306-.527-.013-.089-.107.011.013.089ZM18.609,18.3l-.214.022c-.035.139.34.1.214-.022m1.929,2.509a.462.462,0,0,0,.208-.066.365.365,0,0,1-.208.066M39.893,1.681a1.072,1.072,0,0,0-.828-.1c-.107.011-.025-.178-.179-.117a26.734,26.734,0,0,0-3.584.007c-2.315.148-5.351.955-8.082,1.236a7.284,7.284,0,0,1-2.051.481c-1.141.388-2.413.609-3.7,1.1.025.178-.123.283-.1.461A54.436,54.436,0,0,1,31.784,2.334a14.369,14.369,0,0,1,2.711-.414.753.753,0,0,1,.75-.077c.161-.016.029-.183.2-.11a25.957,25.957,0,0,0,2.869-.069c.4.139,1.287.274,1.577.018M21.5,5.33l-.012-.089-.107.011.012.089Zm1.021-.466c-.053.005-.06-.039-.113-.034-.189.2-.643.066-.759.394.309-.122.8-.127.873-.36m17.334-3.81A3.515,3.515,0,0,0,37.444.489c.192.206.482-.049.62.162C37.4.584,36.433.639,35.938.6c.177-.288.923,0,1.358,0-.132-.167.155-.061.089-.145a4.852,4.852,0,0,0-1.792,0C34.3.181,32.9.641,31.652.634a.143.143,0,0,1-.035.139C30.373.81,28.965,1.225,28,1.28c-.035.139-.356.172-.39.311-.174-.073-.06-.039-.334-.056.006.045-.047.05-.094.1.107-.011.167.028.179.116-.167-.028-.369.083-.488,0-.012-.089.274.017.2-.11-.155.061-.073-.128-.226-.068a.469.469,0,0,1-.483.05c-1.408.415-3.055.675-4.4,1.129.079.172-.069.278-.1.461.006.044.107-.011.167.028a2.628,2.628,0,0,0-.312.483c.327.011.315-.078.494.039l.108-.011-.007-.044.214-.022-.007-.044.161-.016-.006-.044.16-.017-.006-.044-.054.006-.012-.089.16-.017.012.089.054-.005-.006-.044.214-.022L23.188,3.4l.214-.022L23.4,3.331l.375-.039-.006-.044.214-.022.007.044.107-.011c.16-.017-.126-.122-.019-.133,1.011-.149,1.616-.482,2.526-.576a4.8,4.8,0,0,1,1.534-.293,4.61,4.61,0,0,1,1.915-.287c.907-.5,2.6-.4,3.638-.78,1.232-.127,3.773-.207,5.285-.272a3.849,3.849,0,0,1-.8-.278,5.631,5.631,0,0,1,1.688.413M22.874,2.708c-.1.055-.551.327-.637.11a1.506,1.506,0,0,1,.637-.11m6.956.413a48.93,48.93,0,0,0-5.843,1.322c-.583.1-1.172.165-1.348.454,2.3-.642,5.094-1.245,7.191-1.776M25.437,2.4c-.154.061-.274-.017-.529.1-.072-.128-.025-.178.135-.2-.173-.072-.428.044-.589.061.022-.228.463-.183.784-.216-.088.144.227.067.2.251m-.832,16.053-.161.016-.013-.089.161-.016Zm-.155.061.107-.011.013.089-.054.005a.137.137,0,0,1-.066-.084M25.828,2.089a1.049,1.049,0,0,0-.375.039c-.079-.173.35-.217.375-.039m.041-.094c-.013-.089.208-.067.315-.078.012.089-.214.022-.315.078m.412.228s-.173-.073-.161.016c-.167-.028.189-.2.161-.016m.457,14.026a2.905,2.905,0,0,0-.649.022c.243-.205.778-.26,1.08-.426-.142.15-.41.177-.432.4m-.267.028.107-.011.006.044-.107.011ZM27.756,1.124l-.012-.089.107-.011c.066.084-.041.094-.095.1m1.622.329a.243.243,0,0,1,.078.173,1.268,1.268,0,0,1-.434,0c.041-.094.142-.15.356-.172M29.2,1.336c-.007-.044.1-.055.155-.061.006.044-.1.055-.155.061M31.1,2.9c-.268.027-.5-.084-.583.1.167.028.554.079.583-.1m.25-1.694c.007.044-.249.161-.267.028Zm-.245-.2c-.006-.044.1-.055.208-.067-.047.05-.1.056-.208.067M33.4,2.619a4.461,4.461,0,0,0-2.183.314c.857-.088,1.32-.27,2.183-.314M33.337.641c-.028.183-1.207.3-1.178.121-.007-.044.053-.005.053-.005.255-.117.869,0,1.124-.116M33.879.63,33.5.669c-.019-.133.349-.217.375-.039m.947,1.707c-.054.005-.227-.067-.214.022.007.044.227.067.214-.022M35.331.526C35.242.67,34.95.52,34.8.581c-.113-.033.422-.088.536-.055m-.137,1.728-.214.022.012.089.108-.011-.006-.044L35.2,2.3Zm.7-.027c-.1.056-.381-.006-.368.083.1-.055.328.012.368-.083m-.131-1.7L35.6.543,35.6.5l.16-.017Zm.7-.432L36.452.005,36.506,0l.012.089ZM38.5.246l.012.089.107-.011L38.6.235Z" transform="matrix(1, 0.017, -0.017, 1, 2.566, 1.34)" fill="#fff"/>
    <path id="Контур_6" data-name="Контур 6" d="M9.711,12.6a13.094,13.094,0,0,1-.679,1.48.161.161,0,0,1,.138.029c.029-.138.24-.254.135-.377.039-.05.251-.166.1-.328.34-.176.441-.459.686-.669a3.089,3.089,0,0,1,.641-1.43c0,.044.06.128.066.173-.342.537-.539,1.147-.881,1.685.011.089.05.039.061.128-.569.519-1.233,3.262-1.742,3.909-.562,1.331-1.1,3.607-2.641,3.927-.029.138-.162.154-.24.255a.567.567,0,0,0-.533.064A6.406,6.406,0,0,1,2.225,20.9C1.745,20.277.99,20.007.5,19.3c-.856-2.243-.4-4.1-.166-5.89A51.305,51.305,0,0,1,1.345,7.556c.227-1.111,1.365-.661,1.928-.1.36.362.724.77.99,1.1-.146,1.417-.68,2.608-.826,4.024-.256.121-.091.372-.142.694-.178.022-.117.149-.057.277a36.573,36.573,0,0,0-.387,4.288,4.581,4.581,0,0,0,.142,1.563l.045-.006.011.089-.045,0a.164.164,0,0,1,.06.128c.617-.119,1.077-.806,1.573-1.181a7.317,7.317,0,0,1-1,1.068c.05.039.05.039.055.083,1.082-.762,2.129-2.557,3.07-4.114l-.005-.044.381-.587-.045.005c-.011-.089.078-.1.073-.144l.044-.005.152-.244a.629.629,0,0,1,.23-.343l.459-.687c.123-.1.055.083.144.072.045-.005.039-.049.128-.06-.149-.117-.016-.133-.171-.3.089-.01.1.078.155.162.039-.05-.016-.134.123-.105-.011-.089-.06-.128-.066-.172.439-.1.2-.566.592-.7A.166.166,0,0,1,8.9,12.2l-.089.011a1.488,1.488,0,0,1,.37-.675c.016.134-.068.189-.1.327.475-.554.69-1.392,1.231-1.773-.865,1.819-2.557,4.639-3.829,6.822.089-.011.028-.138.162-.155.011.089.055.084.071.217-.089.011-.118.15-.206.16A.168.168,0,0,1,6.45,17c-.3.488-.56.97-.779,1.4,0,.044.049.039.054.084.134-.016.078-.1.167-.11-.21-.246.457-.326.47-.6.123-.1.139.029.228.018l.6-1.02-.045.005c-.011-.089.073-.144.156-.2A36.3,36.3,0,0,0,9.119,13.3c.7-1.3,1.446-2.61,2.048-3.991.144.073-.018.227.048.4a15.788,15.788,0,0,1-1.5,2.888M.9,15.505c.063-.233.292-.577-.007-.812a10.4,10.4,0,0,0-.023,3.568c-.082-.306.2-.566-.1-.845.089-.011.089-.011.139.028-.011-.089-.1-.078-.116-.212l.134-.016c.028-.139-.022-.178-.111-.167.207-.16.231-.7.038-.817.261-.077.041-.411.153-.605-.044.006-.044.006-.05-.039.167-.111.034-.095-.055-.084m.306-1.21c-.1-.078-.155-.162-.244-.152.016.134-.156.2-.046.367l.177-.022c.034-.1-.026-.222.112-.194m-.128-1.068c.06.128-.141.333.014.494-.011-.088.049.039.128-.06.023-.183.09-.372-.142-.434m.274-.349c-.084.055-.1-.078-.144-.073a.849.849,0,0,1-.046.366c.045-.005.05.039.133-.016-.06-.128.024-.183.057-.277M2.828,4.128c0-.044-.128.061-.138-.028s.073-.144.112-.194a.167.167,0,0,1-.032-.266A2.2,2.2,0,0,1,2.75,3.1,21.1,21.1,0,0,1,3,.634C3.28-.753,4.7.565,4.84.593c.005.045-.039.049-.034.094.094.034.1.123.154.162l.006.044c.413.808-.119,1.639-.161,2.411l-.134.016c-.034.094-.073.144-.067.188-.29.216.073.984-.523,1.281-.324.31-.264.438-.491.42-1.089-.049-.813-.76-.762-1.082m.647,15.534,0-.045-.089.011.005.045Zm1.048-1.8-.067.189c-.045.006.023-.183.067-.189m.318-.354.016.133c-.094-.034-.039.05-.128.061-.034.094.024-.183.112-.194m.733-1.035.089-.011.011.089-.089.011Zm.644-1.026.089-.011c.055.084-.039.05-.034.094-.045.005-.049-.039-.055-.084m1.45,1.18c-.133.016-.217.071-.2.2.178-.021.117-.149.2-.2m1.363-2.555c-.483.871-1.043,1.84-1.184,2.173a9.609,9.609,0,0,0,1.184-2.173m-1.127-.361a.044.044,0,0,0,.05.04l.089-.011L8.038,13.7Zm.4-.77.011.09c-.045.005-.083.055-.128.06s.073-.144.117-.15m.5-.737.006.045c-.045.005-.006-.045-.006-.045m.134-.016c.034-.094.212-.116.1-.327-.034.094-.212.116-.1.327" transform="matrix(1, 0.017, -0.017, 1, 31.174, 11.943)" fill="#fff"/>
    <path id="Контур_7" data-name="Контур 7" d="M9.415,28a.316.316,0,0,1,.2-.205c-.005-.044-.05-.039-.06-.128-.084.055-.073.143-.156.2a2.125,2.125,0,0,1,.465-.642c.055.084-.128.061-.063.233.083-.055.146-.288.012-.272a.2.2,0,0,0,.1-.283c.172-.066.144.073.194.112l.068-.188c-.089.01-.061-.128-.116-.212.134-.016.117-.15.2-.2-.112.194.11.167.183.023-.011-.089-.094-.034-.06-.128a.157.157,0,0,0,.094.034c.084-.055-.016-.134-.026-.223.1.123.251-.165.19-.294-.134.016-.078.1-.023.184-.089.011-.144-.073-.194-.113.084-.055.173-.066.112-.194.083-.055.134-.016.306-.082-.11-.167-.1-.078-.077-.261.045-.005.016.133.071.217.034-.094.073-.144.162-.155a.084.084,0,0,1-.016-.133l-.177.022c-.055-.084.117-.15.172-.066l-.006-.045c.223-.027.107-.238.285-.26a9.639,9.639,0,0,1,.831-1.724c.18-.382.381-.587.344-.9a17.361,17.361,0,0,0,1.3-2.728c.139.029.016.134.077.262-.881,1.685-1.607,3.532-2.487,5.217.389-.137.553-.654.638-1.069.262-.077.13-.422.392-.5a1.572,1.572,0,0,0-.13.421,3.216,3.216,0,0,0-.578,1.2c.123-.1.112-.194.246-.21.089-.01-.121-.256.107-.238.06.128-.034.095-.023.184a.044.044,0,0,1,.05.039.338.338,0,0,0,.091-.372,3.562,3.562,0,0,0,.526-.875c.029-.138-.089.011-.1-.078-.1-.123.112-.194.018-.227.122-.1.1.123.121.256.023-.183.19-.294.208-.521-.084.055-.217.071-.212.116a.569.569,0,0,1,.3-.487c-.083.055-.067.188.032.267L13.1,22.6a.155.155,0,0,0-.084.055c-.077-.262.046-.367.119-.511.089-.011.089-.011.139.028a.246.246,0,0,0-.146.288c.083-.055.167-.11.151-.244l.045-.005.224-.388c-.138-.028-.084.055-.222.026a.486.486,0,0,1,.258-.482.164.164,0,0,1-.06-.128c.089-.011.134-.016.117-.149.05.039.016.133.189.067.128-.06-.032-.267.1-.283-.05-.039-.138-.028-.155-.161.322.052.29-.216.313-.4-.011-.089-.123.1-.134.016-.1-.123.123-.1.063-.233.083-.055.021.178.11.167a2.387,2.387,0,0,0,.213-.477c-.011-.089-.1-.078-.116-.212.084-.055.073-.144.151-.244l.045-.006a3.341,3.341,0,0,1,.635-1.475c.022.178-.1.283-.075.506.118-.149.285-.26.258-.483.123-.1.146-.288.268-.393.1.078-.018.228.093.395-.134.016-.123.105-.112.194l-.133.016a3.619,3.619,0,0,1-.6,1.425c.011.089.139.028.144.073.167-.11.1-.327.269-.394-.052.322-.087.778-.343.9a.336.336,0,0,0,.018-.228c-.1-.078-.261.077-.251.166.183.023.022.178.121.256a6.193,6.193,0,0,0-.592,1.831,4.649,4.649,0,0,0,.443-.82c.132.345-.21.882-.3,1.254l-.011-.089c-.034.094-.162.155-.018.228.016.133.078-.1.089-.011a2.022,2.022,0,0,1-.2.566c.05.039.089-.011.128-.061a.287.287,0,0,0,.032.267c-.3.126-.3.532-.4.77a2.944,2.944,0,0,0-.142.694,6.342,6.342,0,0,1-.584,1.153c-.253.527-.489,1.187-.747,1.669a1.79,1.79,0,0,1-.38.587,24.737,24.737,0,0,1-1.405,2.2c-1.051,1.39-2.957,2.431-4.156,2.214-.016-.133-.055-.084-.066-.173a9.456,9.456,0,0,1-2.02-.66c-.258-.646-1.146-.9-1.176-1.528a.167.167,0,0,1,.029-.139l-.039.05a.165.165,0,0,0-.06-.128c.089-.011.089-.011.083-.055.029-.139.018-.228-.165-.252.078-.1.057-.277.085-.416.039-.05.05.039.1.078.134-.016.029-.139.012-.272-.023.184-.089.011-.217.071-.016-.134.067-.189.057-.278s-.144-.073-.155-.162c.167-.11-.087-.35.085-.416a.568.568,0,0,1-.21-.245c.134-.016.028-.139.156-.2-.05-.039-.089.011-.134.016.039-.05-.021-.178.073-.144-.049-.039-.06-.128-.144-.073-.055-.084.133-.016.123-.1-.06-.128-.183-.023-.238-.106-.011-.089.128-.061.167-.111a.491.491,0,0,1-.014-.495c-.194-.112.13-.421-.148-.478-.06-.128.167-.111.063-.233.078-.1.083-.056.217-.072-.022-.178-.144-.073-.155-.162l.089-.011,0-.045L2.768,26c.078-.1.211-.115.19-.293a.156.156,0,0,0-.094-.034c.13-.421-.007-.811.083-1.183,0-.044-.045.006-.055-.083-.045,0-.039.049-.034.094-.05-.039-.055-.084-.094-.034-.011-.089.128-.06.212-.116-.066-.173-.2-.156-.294-.19-.01-.089.073-.144.157-.2-.165-.251.023-.184-.142-.435.083-.055.078-.1.117-.149-.223.026-.022-.178-.088-.351.095.034.034-.094.123-.1-.016-.134-.138-.029-.2-.156.078-.1.272.012.345-.131-.055-.084-.078.1-.217.071-.011-.089-.011-.089-.055-.084.039-.05-.016-.134.073-.144l-.044.005c.039-.049.028-.138-.033-.267.055.084.223-.026.244.152.084-.055.241-.255.085-.416-.089.011-.078.1-.068.189l-.178.021c-.209-.246.381-.587.048-.727.034-.094.018-.228.151-.244-.126-.3-.037-.311.025-.544-.144-.073-.016-.133-.122-.256.045-.005.084-.055.129-.06a.164.164,0,0,1-.06-.128c.094.034.028-.139.206-.16-.016-.134-.133.016-.144-.073.078-.1.057-.277.135-.377-.005-.045-.05-.039-.094-.034.039-.049.112-.194-.016-.134-.011-.089.083-.055.128-.061a.1.1,0,0,0-.1-.078,2.521,2.521,0,0,0,.215-.838c-.055-.084.016.133-.123.1.106-.238.069-.55.276-.71a.179.179,0,0,0-.228-.018c.034-.094.123-.1.251-.165a2.274,2.274,0,0,0-.137-.39c.034-.094.123-.1.212-.115.028-.139-.172.066-.144-.073.228.018.107-.238.046-.367.039-.05.217-.071.2-.2-.005-.045-.172.066-.144-.073.217-.071.1-.327.269-.394-.011-.089-.022-.177-.071-.217.172-.066.117-.15.106-.239-.039.05,1.024-5,.8-5.33-.218.071-.251.165-.484.1A19.715,19.715,0,0,1,.619,11.868c-.388-.224-.347-.635-.518-.931-.368-.813.29-1.343,1.6-2.043-.016-.133.167-.11.2-.249.288.146.763-.408,1.1-.267.084-.055.073-.144.112-.194.084-.055.094.034.1.078.089-.011.062-.233.128-.06-.011-.089.19-.293.251-.165l.162-.155c.084-.055.095.033.1.078.178-.021.224-.388.345-.131.185-.338.523-.153.946-.385-.049-.039-.094-.034-.1-.123a.4.4,0,0,0,.335-.22c-.011-.089-.05-.039-.095-.034.123-.105.057-.278.041-.411.173-.066.162-.155.146-.288-.04.05-.034.094-.078.1-.016-.133.078-.1.012-.273.094.034.083-.055.123-.1-.005-.045-.045.005-.089.011.083-.055.018-.228.151-.244a.283.283,0,0,1,.13-.422c-.022-.178-.048-.4.119-.511-.006-.045-.089.011-.1-.078.251-.165.258-.482.171-.833.223-.026.106-.238.224-.388-.011-.089-.183-.023-.11-.167-.055-.084-.083.055-.128.06a1.762,1.762,0,0,1,.222-1.154.958.958,0,0,1,.215-.838C6.249,1.265,6.217,1,6.385.889,6.368.755,6.308.627,6.342.533A.8.8,0,0,0,6.66.179c.039-.05.089-.011.094.034C6.844.2,6.739.079,6.733.035A.34.34,0,0,1,7.149.12a2.427,2.427,0,0,1,2.493,1.6.737.737,0,0,0-.036.456c-.269.393-.1,1.049-.368,1.443.152.884-.546,1.464-.356,2.3a1.667,1.667,0,0,1,.774-.319c.083-.055-.055-.084-.022-.178.184.023.261-.077.322.052a11.825,11.825,0,0,1,2.249-.812c-.011-.089.123-.1.117-.149,1.018-.167,1.781-.575,2.621-.721.484-.1,1.133.045,1.662-.064a1.778,1.778,0,0,1-.669.441c.044-.005.049.039.055.083.084-.055.178-.022.123-.1.049.039.316.007.1.078.005.045.128-.061.223-.027.011.089.027.223.1.123,0,.361-.486.465-.543.742-.173.066-.489.059-.424.231-.183-.023-.167.111-.245.21-.18.383-1.231.644-1.911,1-.384.182-.818.324-1.163.456a15.011,15.011,0,0,1-1.587.687,6.361,6.361,0,0,0-2.155.845c-.591.341-.9,5.658-1.275,6.289.036.673-.366,1.082-.425,1.72.228,1.146-.27,1.882-.291,2.832-.363,1.487-.333,3.244-.6,4.765A.666.666,0,0,0,6,24.4a3.656,3.656,0,0,0-.123,1.233c-.134.016-.028.139-.162.155a23.9,23.9,0,0,1,.176,2.6,6.591,6.591,0,0,1,.269,1.863c.137.39.109.528.308.685a2.116,2.116,0,0,1,.5-.376l.011.089-.045.005c-.018.228-.368.315-.457.326,0,.044.06.128.065.172.212-.116.329-.265.541-.38-.011-.089-.06-.129-.1-.123l.089-.011-.011-.089-.045.005c.206-.16.374-.271.386-.543.139.029.273.012.162-.155.562-.2,1.05-1.028,1.6-1.321-.11-.167.068-.188.046-.366A.207.207,0,0,0,9.415,28c-.045.005-.039.05-.083.055-.011-.089.034-.094.117-.15-.039.05-.039.05-.034.095M2.635,26.02l.089-.011.011.089c-.084.055-.095-.034-.128.06-.139-.029.084-.055.029-.139m.03-.5a.044.044,0,0,1,.039-.05l.011.089-.045.005Zm.136-.739c-.049-.039-.089.011-.1-.078.089-.011.083-.055.172-.066.06.128-.073.144-.112.194-.045.005-.006-.045.039-.05m-.046.367c.138.028.12.256.037.311-.06-.128-.121-.256-.037-.311m.108.528-.045.005c-.039.05.071.217-.062.233-.11-.167.068-.189.007-.317.045-.005.055.084.1.078m-.13-.706c.044-.006.05.039.055.083l.006.045c-.045.006-.055-.083-.06-.128m.254-2.016c-.1-.078.023-.183-.066-.173,0,0-.023.184.066.173m.437-1.993c-.128.061-.267.032-.29.215l0,.044c-.049-.039-.089.011-.134.016.05.039.05.039.056.084.083-.056.034-.1.133-.016a.044.044,0,0,1,.039-.05l-.05-.039a.3.3,0,0,0,.3-.126c-.011-.089-.055-.084-.06-.128m-.349.854.089-.011c-.05-.039-.05-.039-.055-.083l-.045.005Zm.012-1.4.016.133c.134-.016.067-.189-.016-.133m.146,3.1c-.085.416.057.85-.123,1.233.011.089.032.267.127.3l-.04.049.005.045c.039-.049.039-.049.034-.094l.039-.05-.011-.089.045-.005L3.3,24.767l.045-.005-.026-.222.039-.05-.075-.622.045-.006L3.3,23.639l.039-.05L3.325,23.5Zm-.081,5.334c-.045.005-.023.183.022.178s.023-.183-.022-.178m.058-2.895.005.045L3.174,26l-.039.049.005.045.045,0,.005.045.089-.011-.022-.178Zm-.007-.811c-.073.144-.13.421.053.445a.2.2,0,0,0-.057.278c.162-.155.085-.417,0-.723m-.044,1.134.045-.005c.005.044.011.089.055.083l-.016-.133c-.045.005-.089.011-.083.055m.109,1.656c.256-.121-.07-.578.043-.772-.207.16-.114.555-.043.772m-.052-.806c.133-.016.057-.277.007-.317a.665.665,0,0,0-.007.317m.076-4.25c-.018.227-.119.51-.02.589l-.005-.045.045-.005-.022-.178.045-.006-.032-.267.044-.006-.011-.089Zm.13-1.55c-.256.121-.226.749-.077.867a1.606,1.606,0,0,0,.077-.867M3.268,28.29c.139.028.112-.194.018-.227.061.128-.078.1-.018.227m0-8.618.044-.005L3.3,19.577l-.039.05Zm.2.879c-.011-.089-.032-.266-.154-.161.055.084.011.089.021.178Zm-.132-.345c.089-.011.134-.016.123-.1l-.134.017Zm.006.045c.011.089.1.078.188.067-.016-.134-.1-.078-.188-.067m.07,8.475L3.4,28.635l-.045,0,.011.089Zm-.052-6.446.005.044.044-.005L3.4,22.273Zm.321,7.181c-.133.016-.149-.117-.16-.206l-.134.016c.021.178.116.212.082.306a.263.263,0,0,0,.212-.116M3.4,28.635l.045-.006-.005-.045-.045.006Zm0-9.43.011.089c.095.034.068-.188-.011-.089m.019,9.924.045-.005c0,.045,0,.045.049.039,0-.045-.082-.306-.071-.217.06.128-.078.1-.023.183m.15-10.4-.045.005.005.045-.045.006.005.045-.044.005.005.044c.089-.011.172-.066.117-.15m-.048-.4.134-.016-.011-.089-.045.005a.1.1,0,0,0-.078.1m.108.528-.044.005.005.045-.045.005.016.134.045-.005.005.045.045-.005c-.011-.089.057-.277.046-.367l-.089.011ZM3.66,30.048c-.045,0-.039.049-.084.055a.044.044,0,0,0,.05.039l.045,0Zm-.028-11.5.005.045.089-.011-.016-.133-.05-.039.011.089Zm.005-1.083c.005.045.011.089.055.083-.005-.044.083-.055.034-.094ZM3.851,21.5l-.005-.045-.089.011.011.089.089-.011.039-.05Zm-.078.1.005.045.045-.005-.006-.045Zm.011.089c.049.039-.073.144.06.128,0,0,.028-.138-.06-.128m.11-4.345c-.045.005-.049-.039-.089.011-.034.094.144.073.089-.011m-.067,3.572c.005.045-.034.094.016.134.094.034.023-.183-.016-.134m1.125-6.407c-.005-.044-.05-.039-.094-.034-.291.215.051.805-.283,1.026l.048.4a.156.156,0,0,1-.094-.034.958.958,0,0,0,.043.356c-.089.011-.039.05-.128.06.082.306-.18.383-.053.683l.005.045-.039.05.011.089-.039.05.005.045-.039.05.011.089-.039.05.005.044-.039.05.011.089-.04.05.006.045-.04.05.006.045-.034.094.011.089-.034.094.005.045-.039.049.005.045-.034.094.011.089-.039.05.011.089L4,18.591l.016.134-.039.05.016.133-.04.05L3.958,19l-.034.094.011.089L3.9,19.28l.011.089-.034.094.022.178-.039.049.016.133-.039.05.032.267-.039.05.026.223-.039.049.037.312-.034.094.089-.011L3.9,20.814l.045-.005-.032-.267-.045.005-.011-.089a2.562,2.562,0,0,0,.212-1.243c.347-.492.156-1.327.459-1.815-.022-.178.012-.272-.132-.345.133-.016.028-.139.023-.183.133-.016.078-.1.212-.116l-.005-.045-.045.005-.021-.178a.164.164,0,0,0,.128-.06l-.01-.089.044-.006L4.7,16.206l.045-.006-.016-.133.039-.05-.016-.134.039-.05-.011-.089.039-.05-.016-.134.034-.094-.011-.089.039-.049-.016-.134.039-.05-.016-.134.04-.049L4.9,14.829l.039-.05-.016-.134.04-.05Zm-.934,2.368c-.084.055-.016-.133-.144-.073.016.134.116.212.144.073m.051-.322-.016-.133-.134.016c.016.133.1.123.149.117m.026-.905-.045.005.006.045-.045.005.006.045c.044-.005.133-.016.078-.1m-.021-.178.011.089c.095.033.068-.189-.011-.089m.043.356c.039-.05.039-.05.084-.055L4.2,15.725l-.089.011Zm.32-7.483.005.045.045-.005.005.045L4.4,8.436l0,.044-.045.005.005.045.089-.011-.005-.045.089-.011,0-.044.045-.006L4.57,8.326Zm.309-.8,0-.045a.165.165,0,0,0,.128-.06l.01.089Zm.6,9.538-.011-.089L5.251,17l.011.089ZM5.681,6.3c.06.128-.084.055-.023.183.089-.011.112-.194.023-.183m.032-1.99L5.7,4.219l.045-.005.005.045Zm.075-.5c-.061-.129.062-.234.2-.205-.028.139-.067.189-.2.205M5.9,5.459s.006.045-.044.005l.011.089c.094.034.073-.144.034-.094m.155.162a.138.138,0,0,0,.084-.056.14.14,0,0,0-.055-.083A.138.138,0,0,0,6,5.537l.011.089Zm.237.467.016.134-.045.005.011.089-.045.005.016.133L6.2,6.461l.032.267.045-.005,0,.045.029-.138.044-.005,0-.045-.039.05L6.3,6.539l.044-.005.006.045.028-.139-.045.005.062-.233-.045.005-.016-.134Zm-.014.633-.011-.089.045-.005ZM6.3,6.539,6.286,6.45l.044-.005Zm.124-.467,0,.045.034-.094-.045.006-.022-.178-.044.005.011.089-.04.05.011.089Zm.039-.05-.085.417.045-.006-.005-.045.044-.005L6.447,6.3l.045-.006-.022-.178.039-.05,0-.045Zm.192-.654c-.083.055-.139-.029-.178.021l.005.045.045-.005.037.312.045-.005c-.016-.133.162-.154.046-.366M6.508,5.3l.045-.005-.006-.045.045,0-.011-.089-.045.005Zm.767,25.175.011.089.045-.005-.011-.089ZM9.2,6.325c.068-.188.345-.131.413-.32a4.305,4.305,0,0,0-.9.379c.061.128-.073.144.037.311l.267-.032.039-.049.267-.032-.005-.045.134-.016.039-.05.089-.011-.005-.045.089-.011L9.659,6.36l.089-.01-.005-.045.039-.05-.005-.044.045-.005-.006-.045c-.206.16-.418.276-.612.164m.875-.6c-.066-.173-.405,0-.439.1-.228-.018-.79.185-.852.418.478-.148.9-.423,1.291-.516m-.942.79c-.039.05-.095-.034-.084.055-.089.011-.066-.173-.066-.173.05.039.144.073.149.118m-.107-.89.089-.011.05.04a.165.165,0,0,1-.128.06Zm.783,21.925c-.167.11-.045.005-.138-.029.06.128-.123.105-.063.233.134-.016.118-.149.2-.2M9.967,5.918C9.833,5.934,9.7,5.95,9.66,6l.005.045.045,0,.006.045L9.8,6.072,9.8,6.028l.089-.011-.005-.045.045-.005Zm-.073.144.011.089c.138.029.073-.144-.011-.089m.087-.777c.044-.006.039-.05.083-.055l.011.089-.045.005Zm.2,21.544.078-.1c-.05-.039-.078.1-.078.1M10.5,5.492l-.223.027-.039.049-.045.005.006.045.044,0,.005.044.089-.011.039-.05.045-.005.039-.05.045-.006Zm-.051.323-.045.005L10.4,5.776l-.045.005.011.089.089-.011Zm.1,21.466a.044.044,0,0,1,.05.039c.172-.066.156-.2.179-.383.005.044-.039.05-.084.055a.942.942,0,0,1-.146.289m.044-21.8a4.692,4.692,0,0,0,.986-.434,4.7,4.7,0,0,0-.986.434M10.712,26.4l.011.089c.139.029.073-.144-.011-.089m.16.207c-.089.011-.128.06-.067.188a.164.164,0,0,1,.128-.06.164.164,0,0,1-.06-.128m.164-.516.01.089.045-.005-.011-.089-.044.005c.044-.005.044-.005.083-.055a.6.6,0,0,1,.286-.621c-.055-.084.028-.138-.027-.223-.089.011-.078.1-.167.111.037.311-.683,1.074-.176.788m.317.007c-.005-.045-.05-.039-.1-.078-.005-.045-.011-.089-.055-.083.055.083-.078.1-.073.144.089-.011.2.156.228.018m.088-20.676s-.045.005-.055-.083c-.039.05-.178.022-.167.11.084-.055.233.062.222-.027M11.3,25.7c.049.039.406,0,.306-.082-.173.066-.095-.034-.055-.083-.094-.034-.084.055-.134.016.029-.139.156-.2.146-.288-.167.11-.19.294-.263.438m.816-20.628-.356.043-.039.05-.133.016-.039.05-.045.005.011.089Zm1.92-.546c-.132-.345-.633-.014-.945.023a4.319,4.319,0,0,0-1.475.493,20.216,20.216,0,0,1,2.42-.516M11.884,4.6c0-.045,0-.045-.055-.084l.133-.016.006.044c-.045.006-.089.011-.084.055m.262-.077c-.006-.045-.006-.045-.056-.084l.089-.011.006.045a.044.044,0,0,1-.039.05m1.134,16.964c-.236.66-.7,1.3-.937,1.963a12.375,12.375,0,0,1,.937-1.963M12.537,5.158l-.011-.089c-.045.005-.045.005-.084.055l.011.089c.045-.005.089-.011.084-.055m.429-.187-.134.016-.005-.045-.178.022.005.045-.039.049.089-.011,0,.045.089-.011.006.045.045-.005-.006-.045.045-.005-.005-.045.045-.005.005.045.045-.005Zm-.089.011-.045.005-.217.071Zm.1,17.721a.044.044,0,0,1,.039-.05c-.045.006-.045.006-.039.05m.242-17.9a.335.335,0,0,0,.228.017c.029-.139-.288-.146-.228-.017m.064,16.687a.166.166,0,0,1,.029-.139.166.166,0,0,0-.029.139m.669-1.57c-.1.283-.309.8-.455,1.093a1.728,1.728,0,0,1,.455-1.093M13.79,4.692l-.134.016.006.045-.089.011.005.044-.045.005.005.045c.079-.1.055.084.138.029-.055-.084.207-.16.113-.194m-.1,16.842-.006-.045.045-.005-.005-.044-.134.016.011.089Zm.144-2.183c.089-.011.084-.055.073-.144.144.072-.113.194-.052.322a.156.156,0,0,0-.094-.034c-.011-.089.128-.06.073-.144m.98-1.606c0-.045-.049-.039-.055-.084a1.393,1.393,0,0,0-.388.9c.128-.061.117-.149.251-.165-.107.238-.153.6-.37.676.094.034.06.128.071.217a.455.455,0,0,0-.343-.229,15.625,15.625,0,0,0,.736-1.758,5.22,5.22,0,0,0,.617-1.247c.114.573-.684,1.075-.52,1.687.134-.016.118-.15.157-.2.1.078-.157.2-.1.327a.163.163,0,0,1-.061-.128m-.7,1.708-.016-.134c.128-.06.149.118.016.134m.2-.566c-.261.076.067-.189-.071-.217-.128.06-.062.233-.146.288.045-.005.228.018.217-.071m.231-14.6c-.172.066-.228-.018-.4.048.06.128.477.213.4-.048m-.3,18.9c.045-.005.039-.05.078-.1-.039.05-.083.055-.078.1m.044-4.517a.138.138,0,0,1,.055.084.119.119,0,0,0,.118-.149c-.089.011-.034.094-.173.066m.034,4.418c-.011-.089.024-.183.013-.272a.274.274,0,0,1-.013.272m.37-1.8c-.083.055-.194-.112-.11-.168.128-.06.1.123.11.168m-.067-3.2c.039-.05.128-.061.212-.116a.727.727,0,0,0-.141.333c-.189-.068.151-.244-.071-.217M14.919,4.33c-.01-.089-.065-.172-.149-.117a.407.407,0,0,0,.071.217.268.268,0,0,1,.173-.066l-.022-.178c-.138-.028-.034.094-.073.144m.149,11.759-.045.005-.006-.045.045-.005Z" transform="matrix(1, 0.017, -0.017, 1, 40.522, 3.545)" fill="#fff"/>
    <rect id="Прямоугольник_1" data-name="Прямоугольник 1" width="48.285" height="13.063" transform="translate(64.584 4.644)" fill="#fff"/>
    <path id="Контур_8" data-name="Контур 8" d="M0,0H48.285V13.063H0Z" transform="translate(64.584 21.084)" fill="#fff"/>
  </g>
</svg>
