<svg id="Сгруппировать_88" data-name="Сгруппировать 88" xmlns="http://www.w3.org/2000/svg" xmlns:xlink="http://www.w3.org/1999/xlink" width="1512.115" height="935.107" viewBox="0 0 1512.115 935.107">
  <defs>
    <clipPath id="clip-path">
      <rect id="Прямоугольник_33" data-name="Прямоугольник 33" width="1512.115" height="935.107" fill="none" stroke="#5d6974" stroke-width="1" stroke-dasharray="5"/>
    </clipPath>
  </defs>
  <g id="Сгруппировать_32" data-name="Сгруппировать 32" clip-path="url(#clip-path)">
    <path id="Контур_223" data-name="Контур 223" d="M1512.108,487.535l-12.432,22.238-1.308,13.735h-42.531s-18.974,1.308-20.937,0-2.617.655-6.543,5.886,1.308,6.541-5.889,9.156-13.74,5.886-16.358,6.541-14.4,5.886-14.4,5.886-5.234,5.886-7.2,12.427-6.544,6.541-5.234,13.735,2.616,19.176,5.234,17.449c2.618-1.752,14.4,6.751,10.469,8.058s-4.711,10.2-4.711,10.2c-4.476-1.543-11.752-4.029-15.783-5.179-6.124-1.752-15.7,6.959-18.321,7.4s-10.469-1.752-13.53-1.752-6.989,3.924-10.024,5.677c-3.063,1.752-3.506,7.848-3.926,9.156-.445,1.309-10.05,10.91-11.777,10.02a57.349,57.349,0,0,0-7.432-2.17,138.934,138.934,0,0,1-15.26,6.094c-6.987,2.2-9.6,5.233-11.777,6.541s-1.308,5.232-1.753,8.738c-.42,3.479-5.234,4.342-8.271,4.342-3.061,0,0-6.094,0-6.094l-9.16-3.924s-19.629,4.367-23.137,7.4c-3.481,3.06.89,4.814,1.753,6.539.865,1.754-3.481,6.123-8.3,5.678-4.79-.445,0-3.924,0-3.924s-24.419-1.754-31.826-1.754c-7.434,0-5.68,11.355-5.68,11.355s-22.245,13.944-25.728,16.561c-3.506,2.615-5.679,7.848-5.679,7.848a69.214,69.214,0,0,1-3.926,8.057c-2.173,3.716-3.061,3.716-5.156,3.716-2.12,0-.523,2.615-.025,5.677.47,3.035-9.657,6.959-9.657,6.959s-4.346,1.309-8.271,2.2a31.318,31.318,0,0,0-5.679,1.727c-1.309.445-2.618-6.959-2.618-6.959s16.568-5.677,17.876-5.677,3.061-7.64,3.061-7.64,4.79-4.132,5.236-5.886c.445-1.725-2.173-4.342-2.173-4.342l-4.816-4.814,4.816-10.883-3.506-4.814-23.556,6.541h13.975v10.463l-16.591,16.587-11.334,3.479s9.606,21.793,11.334,24.409c0,0,10.912,26.607,17.456,35.11s19.629,21.583,30.1,34.663,17.011,13.082,19.629,13.082,13.087-19.621,20.284-24.2c6.307-4,6.072,14.022,5.914,16.847a.341.341,0,0,0-.026.157c0,.315.026.235.026-.157.577-2.537,14.657-4.525,28.765-9,14.394-4.579,11.778-2.617,17.666-5.886s11.123,5.886,15.048,11.773c3.873,5.808.132.183,16.541-3.114l5.391,7.693c-1.648-.655-20.937,5.232-24.235,4.892-3.245-.315-3.088,3.61-3.088,3.61l-3.115,8.163,6.2,14.075s-3.376,8.293-4.684,9.6-12.2-4.367-12.2-4.367l-12.222,4.787-22.247,2.2,3.481-8.293s-29.208-6.984-30.961-6.984-4.791,7.429-4.791,7.429-8.3,10.883-11.777,10.883c-3.506,0-6.987,2.2-11.358,3.062-4.345.863-3.926,11.773-3.926,11.773l-3.665,9.6s-8.977-6.121-10.285-6.984-7.408.445-7.408.445-13.976-.445-15.284.863-6.1,3.924-7.852,5.233c-1.728,1.307-11.777.863-13.95.863s-.863,11.353-1.308,12.662-2.618,2.615-3.483,4.342c-.888,1.754-6.542,18.314-6.542,18.314s-10.05,6.121-13.087,6.986c-3.061.862-11.777-.445-14.394-.445s-8.3,5.232-8.3,5.232-6.989-4.342-7.852-5.651-7.852-.888-7.852-.888-5.235-7.405-6.543-10.884c-1.31-3.505-3.063.864-3.063.864s-11.777-5.678-13.085-6.541,1.308-6.986,2.2-8.713c.863-1.752,4.789-4.812,7.406-6.984s-3.481-9.6-5.679-16.142c-2.173-6.541,5.679-14.809,5.234-16.116-.418-1.308-3.036-9.6-3.036-9.6s-8.3-6.986-11.777-10.465c-3.506-3.479-3.506-2.172-4.816-2.617s-8.715,1.309-8.715,1.309-3.926,1.307-4.791,0c-.89-1.309-6.543-9.6-6.543-9.6s-4.814-7.848-8.74-6.539-2.618-5.233-14.815-6.96c-11.8-1.7-4.894-7.848-4.4-8.266-.785.418-16.646,9.156-20.467,10.438-3.926,1.309-3.926,4.788-9.161,2.172s-3.926-3.034-5.234-4.344-2.618-.888-6.124-4.367c-3.481-3.481,11.358-14.834,14.4-18.314,3.061-3.479,14.839-9.157,15.7-10.465.889-1.307,15.7-7.4,15.7-7.4s7.851-7.848,11.358-12.662c3.481-4.787,12.2,0,13.505-.863s1.753-2.172,4.371-4.788,10.469.419,20.494-3.061c10.05-3.48,0,0-3.037-2.615-3.061-2.617,9.161-22.682,9.161-22.682s-8.742-8.268-12.222-12.192-8.716,9.158-10.469,10.884c-1.753,1.752-3.926,2.615-6.987,3.06-3.037.445-2.618-6.1-2.618-6.1s-19.184-3.714-21.8-3.714-14.71,1.962-14.71,1.962l-12.456.315a10.818,10.818,0,0,0,1.648,4.6c1.308,1.622,11.123-2.3,11.123-2.3s9.161,1.622,11.777,1.622-2.3,5.912-2.3,5.912l-5.549,3.244-4.24-.627a62.628,62.628,0,0,0-4.6-4.6c-.969-.628-11.439,2.3-13.087,2.957-1.623.653-5.234-5.886-5.234-5.886l-2.278-1.622s-13.74.968-17.011.968-11.439-1.962-13.087-2.617-4.581,1.649-4.581,1.649l-11.463-8.843s-11.437,1.962-17.011,3.924c-5.55,1.962-13.087-5.886-12.407-8.5.63-2.617-17.013,0-17.013,0s-8.53-3.584-8.845-8.816-1-2.957-2.3-7.221c-1.308-4.239-10.129-2.93-10.784-4.239s14.71-3.27,15.7-3.61c.993-.315,4.919,3.61,4.919,11.773,0,8.188,3.926.34,4.9.34s9.16-.34,11.122-.34,2.3-6.2,4.921-8.163,12.405,5.233,14.393,6.226c1.938.969,1.31-12.113,1.31-12.113a54.623,54.623,0,0,1,3.246-6.881c1.308-1.935,1.308-2.615,3.611-4.892s5.235.655,7.539,1.309c2.276.653,8.165,6.2,11.777,8.188,3.586,1.935,3.245-4.606,3.245-4.606l-1.308-5.232s9.5-4.892,10.808-5.859c1.31-.994,8.821-1.309,9.815-.681.995.681,3.611-6.854,3.611-6.854s-14.079-.995-15.074,0c-.97.995-16.673,4.579-16.673,4.579l-7.2-1.962s-6.544.653-10.784.653c-4.264,0-.339-1.647-.339-2.615s-9.5-.654-10.81-.34c-1.308.34-2.618-1.622-3.586-2.277s.653-11.118,1.648-13.735c.968-2.617-2.3-16.011-3.3-18.968C857.8,627.16,852.906,619,852.906,619s-7.538-.655-7.852.315c-.34.993,4.894,7.221,4.894,7.221l5.234,6.854L854.528,654l.653,7.508a81.231,81.231,0,0,1-5.889,12.426c-4.239,7.535,3.613,2.617,7.539,2.617s4.894.315,7.171,1.309a24.93,24.93,0,0,1,5.234,3.27c1.31.968,0,3.924-.628,7.194C867.929,691.6,865,684.4,865,684.4l-5.549-3.27-14.08,1.962-4.919,2.93-8.481-6.854a60.084,60.084,0,0,1-6.544-.655c-4.919-.653-4.266-7.194-4.266-7.194l2.618-22.892s-11.778,4.579-14.4,3.924,2.618,10.465,3.273,12.427-2.618,7.194-2.618,7.194l-7.2,5.233s-7.2-6.541-9.815-9.158-9.816,4.579-16.358,4.579-13.74,3.924-13.74,3.924l-7.852,22.892-28.345,51.224s-6.989,10.046-8.3,11.353-12.642,20.04-15.258,22.657-11.359,4.369-12.667,3.5c-1.308-.89-1.728-3.5-2.173-5.232-.445-1.753-1.308-6.986-2.618-7.849-1.308-.89-4.369-9.157-6.1-10.465-1.753-1.308-7.852,13.5-8.74,16.561-.865,3.06,2.616,6.539,10.05,9.6,7.407,3.035,0,0,2.618,8.266,2.616,8.295,3.036,3.062,8.27,2.617,5.235-.418,2.618,7.849,2.618,7.849l-2.33,16.011h-.026l-17.483-14.912s-5.889,1.962-7.852,3.924-8.506-9.81-13.087-11.773-6.542,7.848-6.542,7.848-30.753,5.886-33.371,6.541-7.852,5.232-13.086,11.118-7.2.655-11.123-.654-16.358-4.577-16.358-4.577L554.2,805.4l3.926-7.85h20.284c1.963,0,7.2-6.539,7.2-6.539l-7.2-13.735,12.432-11.12s1.963-10.465-.655-11.773,7.2-10.465,9.815-12.427,8.506-3.924,10.469-6.54,0-4.579-6.544-9.157,7.2-5.311,7.2-5.311l-.655-10.386L609.162,700.1l-5.235-4.577,3.273-7.848,7.2-6.541,10.469,5.232,3.271,13.735,4.581-9.156s3.926-3.924,11.123-3.27S653,683.093,653,683.093s5.889,9.156,7.852,10.465,1.963,5.232,5.889-11.12,15.7,11.12,22.9,13.735,17.668-3.924,20.284-5.232-9.16-8.5-11.123-8.5-13.087-19.621-13.087-19.621l-7.2-15.042s-18.321-15.044-20.284-16.351-6.543-18.576-6.543-18.576-11.123-21.975-13.086-23.283-34.679-33.356-34.679-33.356V535.28l-9.815-23.545-16.356.655-7.2-24.2s-37.3,5.886-40.568,3.924-1.963-5.886-3.926-11.119-9.815,0-11.777,0-6.542-10.464-6.542-10.464a33.566,33.566,0,0,1-10.469-1.962c-5.235-1.962-8.506-5.233-14.4-8.5s-14.4-9.158-14.4-9.158H454.092s-24.864,12.427-28.135,11.565c-3.273-.89-4.581,2.825-9.161.863s-18.974,0-18.974,0S389.314,473.8,386.7,475.763s-24.863-5.886-24.863-5.886-2.958,4.107-7.066,9.731c-7.826,10.675-19.839,26.739-23.687,30.165-5.889,5.232-12.432,0-23.555,1.307s-34.024,7.2-37.3,7.561-5.235,10.1-5.235,10.1-18.319,9.157-24.863,11.773-8.506-2.615-10.469-3.924-10.469-10.463-13.74-12.426S196.293,513.7,193.676,515s-9.16,7.2-14.4,11.773-10.468-5.886-12.431-6.539-34.024-5.886-41.223-7.405a182.51,182.51,0,0,1-25.518-8.4c-4.581-2.067-9.815-8.4-9.815-8.4L80.481,506.5,60.2,512.833l3.271-10.908-7.2-9.157s-11.123,6.541-12.432,4.579-9.815-15.7-9.815-15.7h-15.7L0,458.549v-21.82s3.481-8.711,6.1-11.328S9.6,415.8,9.6,415.8V401.856l15.574-19.673c5.992,1.778,10.6,3.112,10.6,3.112h4.345s6.124-7.848,5.234-10.463c-.863-2.617-8.715-7.848-8.715-12.217s-1.753-18.313-2.618-20.93-7.852-16.561-7.852-16.561,48.864-65.4,53.208-69.773c4.371-4.369,17.458-26.16,17.458-26.16l25.308-2.617L130,204.781l-4.371-14.834-5.234-6.984,9.6-7.848L95.529,129.775s-5.889,3.924-7.2-4.577-6.544-23.545-9.16-24.2c-1.2-.288-3.246-2.957-5.1-5.756,0,0,18.189-6.671,20.807-5.364s15.7,0,15.7,0,7.2-5.886,9.815-8.5S126.937,68.3,126.937,68.3l13.085-9.81s8.506,1.309,18.321,3.924,24.863-4.577,27.481-4.577,10.469-3.924,10.469-3.924l65.431,3.924,9.6,3.27s20.494,8.5,29,7.194,10.468,0,22.245.655,11.779,6.541,13.742,7.194,19.629.655,23.555,1.309,4.579,3.27,5.889,13.735,4.581,1.308,17.011.655,5.889,3.924,24.865,8.5,6.543,7.848,8.506,9.157,1.308-3.924,7.852-9.81,6.542,3.27,8.5,5.677c1.963,2.38,9.815-6.331,11.777-6.986s6.544-3.27,13.087-3.924,9.16,5.886,13.085,10.91c3.926,5,6.544-6.331,9.161-8.293s6.542,4.579,12.431,17,12.432-6.539,18.321-8.711c0,0,7.2-9.6,16.358-12.872s10.469,3.924,15.05,7.2,9.814,7.848,11.123,13.08,8.506,8.5,8.506,8.5a90.513,90.513,0,0,1,19.629-12.427c10.469-4.579,3.271,2.617,6.229,9.156,2.931,6.541,17.326-2.615,21.252-5.232s7.852-.655,21.592-2.617,11.124,11.12,15.7,17.659,11.124,0,11.124,0,5.234-12.426,4.581-22.446c-.655-10.046-5.235-7.639-7.853-13.525s0-11.774,0-11.774,3.273-15.042,7.2-21.583,6.544-9.156,12.432-16.351,18.319-8.5,20.282-8.241,34.024.392,36.642,0,15.05-2.877,15.05-2.877l.653-6.541L762.27,41.48s9.814,3.924,12.432,0,14.4-13.735,14.4-13.735.653-22.892,0-24.2,5.889,6.541,11.122,6.541S813.306,20.55,820.5,19.9s29.443-11.12,31.406-11.774,17.666-9.81,18.321-7.848,3.271,11.12,7.852,9.812a54.481,54.481,0,0,1,14.4-1.964c4.579,0,3.271-3.27,9.16-1.962s14.4,11.12,17.666,11.774,11.124,7.194,12.432,9.156S935.007,43,937.625,43.233c2.618.21,4.581,8.058,4.581,8.058s.653,9.81,5.889,11.118,13.74,3.924,13.74,3.924l7.852,15.044s.655,1.962-11.777,3.27-15.7-2.617-12.432,1.308,15.05,26.162,15.05,26.162,9.815,5.233,9.16,8.5-2.618,14.389,0,17.006,1.963,6.539,5.888,4.577,15.7,1.072,19.629.523c3.926-.523,10.469,7.326,12.432,6.018s9.16-3.4,15.049-5.939c5.889-2.564,14.395.052,18.976,2.669s21.382,14.832,21.382,14.832l-1.753,17.424,19.629,13.97s-3.926,6.1-3.481,7.405c.42,1.308,6.544,22.681,9.16,22.238s-.444,3.06,6.543,7.4c6.963,4.369,15.7,11.772,17.013,10.463s7.852-9.575,10.887-10.463c3.063-.864,16.593,2.615,18.766,4.369a49.911,49.911,0,0,1,6.987,6.252c3.037,3.349,5.653,6.384,8.271,6.384s9.6-.418,12.667,0c3.036.445,18.739,6.986,20.049,6.541,1.308-.419,6.542-5.233,10.913-6.959,4.371-1.754,18.766-15.279,22.692-12.217s3.036,6.094,11.777,2.17c8.715-3.924,11.333-8.266,12.642-8.266s9.6,10.02,10.913,10.463c1.308.419,2.618,3.036,6.963,7.405,4.369,4.369.443,4.839,6.987,7.429s25.177,22,25.177,22l19.316,20.276,5.234-8.5s1.308-13.735,5.889-12.427,23.555,9.81,23.555,9.81,5.235,11.12,11.124,11.12,1.963-5.886,13.086,0,11.124,7.848,19.629,9.81,13.74,0,13.74,0,7.853,5.232,9.816,5.232,7.852,3.271,10.468,3.271,2.618-1.309,7.2.653,5.234,3.924,11.777,6.541,12.433,8.5,16.358,8.5,13.74-6.541,16.356-7.848,17.666,0,18.321,3.27-3.271,8.5-1.963,10.465,1.963,5.886,5.235,9.81,7.852,9.81,7.852,9.81-5.236,13.735-7.852,16.351-3.272,13.08-12.432,12.427-15.7,0-13.741,5.232-1.309,9.156,4.579,13.08-.653-7.848,9.162,0a51.257,51.257,0,0,0,20.284,9.81l-15.05,9.81s-4.581-6.539-6.544-3.27-9.16,9.158-7.852,13.082-4.579,11.773,3.273,15.7,3.926,5.232,7.852,3.924-1.963,0,3.271,3.924,3.926,11.773,6.544,14.389-9.815,2.615,1.308,8.5,10.469,10.465,10.469,10.465" transform="translate(0 0)" fill="none" stroke="#5d6974" stroke-width="1" stroke-dasharray="5"/>
  </g>
</svg>
