<svg xmlns="http://www.w3.org/2000/svg" xmlns:xlink="http://www.w3.org/1999/xlink" width="890" height="542.865" viewBox="0 0 890 542.865">
  <defs>
    <clipPath id="clip-path">
      <rect id="Прямоугольник_33" data-name="Прямоугольник 33" width="590.443" height="365.136" fill="#f5b51a" stroke="#f5b51a" stroke-width="1"/>
    </clipPath>
    <clipPath id="clip-path-2">
      <rect id="Прямоугольник_34" data-name="Прямоугольник 34" width="336.081" height="256.484" fill="#657580"/>
    </clipPath>
    <clipPath id="clip-path-3">
      <rect id="Прямоугольник_36" data-name="Прямоугольник 36" width="56.969" height="84.538" fill="#213847"/>
    </clipPath>
    <clipPath id="clip-path-4">
      <rect id="Прямоугольник_36-2" data-name="Прямоугольник 36" width="31.85" height="47.263" fill="#213847"/>
    </clipPath>
    <clipPath id="clip-path-5">
      <rect id="Прямоугольник_35" data-name="Прямоугольник 35" width="129.454" height="71.812" fill="#2b5aa5"/>
    </clipPath>
  </defs>
  <g id="Сгруппировать_89" data-name="Сгруппировать 89" transform="translate(-194 -4113.282)">
    <g id="Сгруппировать_50" data-name="Сгруппировать 50">
      <g id="Сгруппировать_40" data-name="Сгруппировать 40" transform="translate(479.453 4291.011)">
        <g id="Сгруппировать_32" data-name="Сгруппировать 32" clip-path="url(#clip-path)">
          <path id="Контур_223" data-name="Контур 223" d="M590.441,190.37l-4.854,8.683-.511,5.363H568.468s-7.409.511-8.175,0-1.022.256-2.555,2.3.511,2.554-2.3,3.575-5.365,2.3-6.387,2.554-5.621,2.3-5.621,2.3A15.1,15.1,0,0,0,540.62,220c-.766,2.554-2.555,2.554-2.044,5.363s1.021,7.488,2.044,6.813,5.621,2.636,4.088,3.146-1.839,3.984-1.839,3.984c-1.748-.6-4.589-1.573-6.163-2.022-2.391-.684-6.132,2.717-7.154,2.891s-4.088-.684-5.283-.684-2.729,1.532-3.914,2.217-1.369,3.065-1.533,3.575-3.924,4.26-4.6,3.913a22.394,22.394,0,0,0-2.9-.847,54.249,54.249,0,0,1-5.959,2.38,14.266,14.266,0,0,0-4.6,2.554c-.848.511-.511,2.043-.685,3.412s-2.044,1.7-3.23,1.7,0-2.38,0-2.38l-3.577-1.532s-7.665,1.705-9.034,2.891.348,1.88.685,2.553-1.359,2.391-3.239,2.217,0-1.532,0-1.532-9.535-.685-12.427-.685-2.218,4.434-2.218,4.434-8.686,5.445-10.046,6.467a8.485,8.485,0,0,0-2.217,3.065,27.023,27.023,0,0,1-1.533,3.146c-.848,1.451-1.2,1.451-2.013,1.451s-.2,1.021-.01,2.217-3.771,2.717-3.771,2.717-1.7.511-3.23.858a12.225,12.225,0,0,0-2.217.674c-.511.174-1.022-2.717-1.022-2.717s6.469-2.217,6.98-2.217,1.2-2.983,1.2-2.983,1.871-1.614,2.044-2.3-.848-1.7-.848-1.7l-1.88-1.88,1.88-4.249-1.369-1.88-9.2,2.554h5.457v4.086l-6.479,6.477-4.426,1.359s3.751,8.51,4.426,9.531c0,0,4.261,10.389,6.816,13.709s7.665,8.428,11.753,13.535,6.642,5.108,7.665,5.108,5.11-7.661,7.92-9.449c2.463-1.563,2.371,5.475,2.309,6.578a.133.133,0,0,0-.01.061c0,.123.01.092.01-.061.225-.991,5.723-1.767,11.232-3.514,5.62-1.788,4.6-1.022,6.9-2.3s4.343,2.3,5.876,4.6c1.512,2.268.052.071,6.459-1.216l2.105,3c-.644-.256-8.175,2.043-9.463,1.91-1.267-.123-1.206,1.409-1.206,1.409l-1.216,3.187,2.422,5.5a24.337,24.337,0,0,1-1.829,3.749c-.511.511-4.763-1.705-4.763-1.705L486.967,335l-8.687.858,1.359-3.238s-11.405-2.727-12.09-2.727-1.871,2.9-1.871,2.9-3.24,4.249-4.6,4.249-2.728.858-4.435,1.2-1.533,4.6-1.533,4.6l-1.431,3.749s-3.505-2.39-4.016-2.727-2.893.174-2.893.174-5.457-.174-5.968.337-2.381,1.532-3.066,2.043-4.6.337-5.447.337-.337,4.433-.511,4.944-1.022,1.021-1.36,1.7-2.554,7.151-2.554,7.151a41.9,41.9,0,0,1-5.11,2.728c-1.2.337-4.6-.174-5.62-.174s-3.24,2.043-3.24,2.043a21.576,21.576,0,0,1-3.066-2.207c-.338-.511-3.066-.347-3.066-.347a29.855,29.855,0,0,1-2.555-4.25c-.511-1.369-1.2.337-1.2.337s-4.6-2.217-5.11-2.554.511-2.728.858-3.4a14.879,14.879,0,0,1,2.892-2.727c1.022-.848-1.359-3.749-2.217-6.3s2.217-5.782,2.044-6.293-1.185-3.749-1.185-3.749-3.24-2.728-4.6-4.086-1.369-.848-1.881-1.022a15.814,15.814,0,0,0-3.4.511s-1.533.511-1.871,0-2.555-3.75-2.555-3.75-1.88-3.065-3.413-2.553-1.022-2.043-5.785-2.718c-4.609-.664-1.911-3.065-1.717-3.228-.307.163-6.5,3.575-7.992,4.076-1.533.511-1.533,1.87-3.577.848s-1.533-1.185-2.044-1.7-1.022-.347-2.391-1.705,4.435-5.792,5.621-7.151,5.794-3.576,6.132-4.086,6.132-2.891,6.132-2.891a58.118,58.118,0,0,0,4.435-4.944c1.359-1.869,4.763,0,5.273-.337s.685-.848,1.707-1.87,4.088.164,8-1.2,0,0-1.186-1.021,3.577-8.857,3.577-8.857-3.413-3.228-4.773-4.761-3.4,3.576-4.088,4.25a4.5,4.5,0,0,1-2.728,1.195c-1.186.174-1.022-2.38-1.022-2.38s-7.491-1.45-8.513-1.45-5.744.766-5.744.766l-4.864.123a4.224,4.224,0,0,0,.644,1.8c.511.633,4.343-.9,4.343-.9s3.577.633,4.6.633-.9,2.308-.9,2.308l-2.167,1.267-1.656-.245a24.459,24.459,0,0,0-1.8-1.8c-.379-.245-4.467.9-5.11,1.154s-2.044-2.3-2.044-2.3l-.889-.633s-5.365.378-6.642.378a24.051,24.051,0,0,1-5.11-1.022c-.644-.255-1.789.644-1.789.644l-4.476-3.453a56.42,56.42,0,0,0-6.643,1.532c-2.167.766-5.11-2.3-4.845-3.32.246-1.022-6.643,0-6.643,0s-3.331-1.4-3.454-3.442-.389-1.155-.9-2.82-3.955-1.144-4.211-1.655,5.744-1.277,6.132-1.409,1.921,1.409,1.921,4.6,1.533.133,1.912.133,3.577-.133,4.343-.133.9-2.421,1.921-3.187,4.844,2.043,5.62,2.431c.757.378.511-4.73.511-4.73a21.33,21.33,0,0,1,1.267-2.687,8,8,0,0,1,1.41-1.91c.9-.888,2.044.256,2.944.511s3.188,2.421,4.6,3.2c1.4.756,1.267-1.8,1.267-1.8l-.511-2.043s3.709-1.91,4.22-2.288a8,8,0,0,1,3.832-.266c.388.266,1.41-2.676,1.41-2.676s-5.5-.388-5.886,0-6.51,1.788-6.51,1.788l-2.81-.766s-2.555.255-4.211.255-.132-.643-.132-1.021-3.71-.256-4.221-.133-1.022-.633-1.4-.889.255-4.341.644-5.363-.9-6.252-1.287-7.407a38.19,38.19,0,0,0-2.289-4.341s-2.944-.256-3.066.123,1.911,2.82,1.911,2.82l2.044,2.676-.255,8.05.255,2.932a31.715,31.715,0,0,1-2.3,4.852c-1.655,2.942,1.411,1.022,2.944,1.022a5.406,5.406,0,0,1,2.8.511,9.734,9.734,0,0,1,2.044,1.277c.511.378,0,1.532-.245,2.809-.266,1.277-1.411-1.532-1.411-1.532l-2.167-1.277-5.5.766-1.921,1.144-3.312-2.676a23.461,23.461,0,0,1-2.555-.256c-1.921-.255-1.666-2.809-1.666-2.809l1.022-8.939s-4.6,1.788-5.621,1.532,1.022,4.086,1.278,4.853-1.022,2.809-1.022,2.809l-2.81,2.043s-2.811-2.554-3.832-3.576-3.833,1.788-6.387,1.788a13.34,13.34,0,0,0-5.365,1.532l-3.066,8.939-11.068,20s-2.729,3.923-3.24,4.433-4.936,7.825-5.958,8.847-4.436,1.706-4.946,1.368-.675-1.368-.848-2.043-.511-2.728-1.022-3.065-1.706-3.576-2.381-4.086-3.066,5.271-3.413,6.467,1.022,2.553,3.924,3.749,0,0,1.022,3.228,1.185,1.2,3.229,1.022,1.022,3.065,1.022,3.065l-.91,6.252h-.01l-6.827-5.823a10.92,10.92,0,0,0-3.066,1.532c-.766.766-3.322-3.831-5.11-4.6s-2.554,3.065-2.554,3.065-12.008,2.3-13.031,2.554-3.066,2.043-5.11,4.341-2.81.256-4.343-.256-6.387-1.787-6.387-1.787l-7.41-6.9,1.533-3.065h7.92c.766,0,2.811-2.553,2.811-2.553l-2.811-5.363,4.854-4.342s.766-4.086-.256-4.6,2.811-4.086,3.832-4.852,3.322-1.532,4.088-2.554,0-1.788-2.555-3.576,2.811-2.074,2.811-2.074l-.256-4.055-.511-4.086-2.044-1.787,1.278-3.065,2.81-2.554,4.088,2.043,1.277,5.363,1.789-3.575a5.62,5.62,0,0,1,4.343-1.277,3.268,3.268,0,0,0,3.577-1.788s2.3,3.575,3.066,4.086.766,2.043,2.3-4.342,6.132,4.342,8.942,5.363,6.9-1.532,7.92-2.043-3.577-3.32-4.343-3.32-5.11-7.661-5.11-7.661l-2.81-5.874s-7.154-5.874-7.92-6.385-2.555-7.253-2.555-7.253-4.343-8.581-5.11-9.091-13.541-13.025-13.541-13.025v-8.173l-3.832-9.194-6.387.256-2.811-9.449s-14.563,2.3-15.841,1.532-.766-2.3-1.533-4.342-3.832,0-4.6,0-2.554-4.086-2.554-4.086a13.106,13.106,0,0,1-4.088-.766c-2.044-.766-3.322-2.043-5.621-3.32s-5.621-3.576-5.621-3.576h-5.62s-9.709,4.852-10.986,4.516-1.789,1.1-3.577.337-7.409,0-7.409,0A55.292,55.292,0,0,1,151,185.773c-1.022.766-9.708-2.3-9.708-2.3s-1.155,1.6-2.759,3.8c-3.056,4.168-7.747,10.441-9.249,11.779-2.3,2.043-4.854,0-9.2.511s-13.286,2.81-14.563,2.952-2.044,3.943-2.044,3.943-7.153,3.576-9.708,4.6-3.322-1.021-4.088-1.532-4.088-4.086-5.365-4.852-7.665-4.086-8.687-3.576a50.243,50.243,0,0,0-5.621,4.6c-2.044,1.788-4.087-2.3-4.854-2.553s-13.286-2.3-16.1-2.892a71.265,71.265,0,0,1-9.964-3.279,14.338,14.338,0,0,1-3.832-3.279l-3.832,4.086-7.92,2.472,1.277-4.259-2.81-3.576s-4.343,2.554-4.854,1.788-3.832-6.129-3.832-6.129H7.154L0,179.052v-8.52s1.359-3.4,2.381-4.423S3.75,162.36,3.75,162.36v-5.445l6.081-7.682c2.34.694,4.138,1.215,4.138,1.215h1.7s2.391-3.065,2.044-4.086-3.4-3.065-3.4-4.771a53.748,53.748,0,0,0-1.022-8.173c-.337-1.022-3.066-6.467-3.066-6.467S29.3,101.414,31,99.708s6.817-10.215,6.817-10.215L47.7,88.471l3.066-8.51-1.707-5.792-2.044-2.727,3.75-3.065L37.3,50.674s-2.3,1.532-2.81-1.787-2.555-9.194-3.577-9.449c-.47-.112-1.267-1.154-1.993-2.248,0,0,7.1-2.6,8.125-2.094s6.132,0,6.132,0,2.81-2.3,3.832-3.32,2.555-5.108,2.555-5.108l5.11-3.831s3.322.511,7.154,1.532,9.708-1.787,10.731-1.787,4.088-1.532,4.088-1.532L102.2,22.582l3.75,1.277s8,3.32,11.324,2.809,4.087,0,8.686.256,4.6,2.554,5.366,2.809,7.665.256,9.2.511,1.788,1.277,2.3,5.363,1.789.511,6.642.256,2.3,1.532,9.709,3.32,2.555,3.065,3.322,3.576.511-1.532,3.066-3.831,2.554,1.277,3.321,2.217,3.832-2.472,4.6-2.728a17.524,17.524,0,0,1,5.11-1.532c2.555-.256,3.577,2.3,5.11,4.26s2.555-2.472,3.577-3.238,2.554,1.788,4.854,6.64,4.854-2.553,7.154-3.4c0,0,2.811-3.749,6.387-5.026s4.088,1.532,5.877,2.81,3.832,3.065,4.343,5.107,3.322,3.32,3.322,3.32a35.343,35.343,0,0,1,7.665-4.852c4.088-1.788,1.277,1.022,2.432,3.575s6.765-1.021,8.3-2.043,3.066-.256,8.431-1.022,4.344,4.342,6.132,6.9,4.344,0,4.344,0,2.044-4.852,1.789-8.764-2.044-2.983-3.066-5.281a6.179,6.179,0,0,1,0-4.6s1.278-5.874,2.811-8.428a47.025,47.025,0,0,1,4.854-6.385c2.3-2.809,7.153-3.32,7.92-3.218s13.286.153,14.308,0,5.877-1.123,5.877-1.123l.255-2.554,6.387,6.64s3.832,1.532,4.855,0,5.621-5.363,5.621-5.363.255-8.939,0-9.449,2.3,2.554,4.343,2.554,5.11,4.086,7.92,3.831,11.5-4.342,12.263-4.6,6.9-3.831,7.154-3.065,1.277,4.342,3.066,3.831a21.274,21.274,0,0,1,5.621-.767c1.788,0,1.277-1.277,3.577-.766s5.621,4.342,6.9,4.6,4.344,2.809,4.855,3.575,1.277,6.211,2.3,6.3,1.789,3.146,1.789,3.146.255,3.831,2.3,4.341,5.365,1.532,5.365,1.532l3.066,5.874s.256.766-4.6,1.277-6.132-1.022-4.854.511,5.877,10.216,5.877,10.216,3.832,2.043,3.577,3.32-1.022,5.619,0,6.64.766,2.553,2.3,1.787,6.132.419,7.665.2,4.088,2.861,4.854,2.35,3.577-1.328,5.876-2.319,5.621.02,7.41,1.042,8.349,5.792,8.349,5.792l-.685,6.8,7.665,5.455s-1.533,2.38-1.359,2.892,2.555,8.856,3.577,8.683-.173,1.195,2.555,2.891,6.132,4.6,6.643,4.086,3.066-3.739,4.251-4.086,6.479,1.021,7.328,1.706a19.49,19.49,0,0,1,2.728,2.441c1.186,1.308,2.208,2.493,3.23,2.493s3.75-.163,4.946,0,7.317,2.728,7.829,2.554,2.554-2.043,4.261-2.717,7.328-5.966,8.861-4.771,1.185,2.38,4.6.847,4.425-3.228,4.936-3.228,3.75,3.913,4.261,4.086,1.022,1.186,2.719,2.892.173,1.89,2.728,2.9S506,107.114,506,107.114l7.542,7.917,2.044-3.32s.511-5.363,2.3-4.852,9.2,3.831,9.2,3.831,2.044,4.342,4.344,4.342.766-2.3,5.11,0,4.344,3.065,7.665,3.831a10.045,10.045,0,0,0,5.365,0s3.067,2.043,3.833,2.043,3.066,1.277,4.087,1.277,1.022-.511,2.811.255,2.044,1.532,4.6,2.554,4.855,3.32,6.387,3.32,5.365-2.554,6.387-3.065,6.9,0,7.154,1.277-1.277,3.32-.767,4.086.767,2.3,2.044,3.831,3.066,3.831,3.066,3.831-2.044,5.363-3.066,6.385-1.278,5.107-4.854,4.852-6.132,0-5.365,2.043-.511,3.575,1.788,5.107-.255-3.065,3.577,0a20.015,20.015,0,0,0,7.92,3.831l-5.877,3.831s-1.789-2.553-2.555-1.277-3.577,3.576-3.066,5.108-1.788,4.6,1.278,6.129,1.533,2.043,3.066,1.532-.766,0,1.277,1.532,1.533,4.6,2.555,5.619-3.832,1.021.511,3.32,4.088,4.086,4.088,4.086" transform="translate(0 0)" fill="#f5b51a" stroke="#f5b51a" stroke-width="1"/>
        </g>
      </g>
      <g id="Сгруппировать_42" data-name="Сгруппировать 42" transform="translate(194 4184.967)" opacity="0.544">
        <g id="Сгруппировать_41" data-name="Сгруппировать 41" clip-path="url(#clip-path-2)">
          <path id="Контур_225" data-name="Контур 225" d="M334.377,180.286l1.7,5.786-3.061,8.5-9.868,1.02s-5.1,8.5-6.806,10.2S295.6,233.013,295.6,233.013s2.724,5.439,3.061,6.46a53.782,53.782,0,0,1,1.021,8.163c0,1.7,3.061,3.745,3.4,4.766s-2.041,4.082-2.041,4.082h-1.694s-1.8-.521-4.133-1.214c-3.939-1.194-9.429-2.908-10.5-3.552-1.694-1.021-9.858-4.419-9.858-4.419v-2.725c0-1.357-5.1-3.4-6.807-3.4a51.646,51.646,0,0,1-6.459-1.021l-18.287.592s-2.3,3.061-2.806,3.827-3.827-.765-7.909-.51-3.827-.765-5.868-.765a31.712,31.712,0,0,1-5.867-1.021l-7.143-.51s-2.3,4.082-2.041,5.357-3.572,2.806-4.337,3.061a3.79,3.79,0,0,1-1.785,0s-3.572-6.378-4.337-7.143-3.316,1.531-3.316,1.531l-5.358-10.2-7.143.255-5.358,4.337h-3.061l-6.377-3.827-4.082-4.847s-3.572-3.827-5.357-3.827,0-10.46,0-10.46-8.929,2.214-9.613,2.214-2.551-1.367-3.735-2.551-1.531-1.194-4.256-1.878-4.765,2.041-5.439,2.041a18.932,18.932,0,0,1-3.918-1.021c-1.531-.51-2.041-1.694-2.776-3.224s-1.133-1.194-2.836-2.388-.511-2.378-.511-2.378l2.9-3.061s1.02-3.235,0-3.4-8.674-.347-8.674-.347-3.061.511-3.918.684-2.2-1.021-3.735-.684-9.358-6.969-9.868-6.8-1.357,1.531-2.551,2.551.336,3.225.336,3.225l4.082,1.194s-1.868,4.082-3.061,4.082a2.193,2.193,0,0,0-2.041.684c-.847.674-7.99,5.1-7.99,5.1l-2.725-.857a21.751,21.751,0,0,0-2.714-2.551c-.684-.336-1.7-5.776-1.7-7.306s-1.531-1.021-2.551-1.021-3.061-1.194-4.929-2.388,1.531-1.531,1.531-1.531l4.592-2.715v-3.745l-4.256.684-3.4-3.918L75,187.6s-1.358.847-2.2,1.357a15.155,15.155,0,0,1-2.9,1.021L68.371,185.9l-12.245-6.97s-6.46,1.02-7.481.674-1.7-3.4-1.7-5.1-2.378-6.459-2.378-6.459H40.145l-4.765-2.725V151.029a3.2,3.2,0,0,0-2.041-3.061l-4.419-5.1A21.111,21.111,0,0,1,26.2,139.13c-.337-1.021-5.439-8.164-5.439-8.164l1.694-11.551v-5.122l-3.4-7.143v-3.061s-4.419-5.439-5.439-6.123-5.449-5.1-6.47-5.1S0,83.342,0,83.342l8.51-4.766V62.249L5.1,56.472l-2.266-9.8,3.123,1.286S9.02,51.88,9.531,52.391s3.909-6.3,3.909-6.3L3.408,42.523l4.756.337,7.826-4.419s9.868-2.724,11.563-2.724,12.929-6.46,17.011-7.143S55.789,33,55.789,33l12.93-15.307,6.8-8.51L84.362,7.49l4.765-6.123L115.66,0l12.583.346,7.143,2.041,9.521,5.776L128.926,5.786s7.817,4.419,8.838,4.419,4.428,6.806,4.428,6.806l9.521,4.419s12.583-1.694,13.95-2.378L208.6,20.328s54.6,1.275,56.636,0,5.613-1.276,5.613-1.276l-2.123-5.1c1.358,0,5.439,2.378,5.439,2.378l5.786,2.388s12.919,7.48,14.287,7.48,2.714,7.48,2.714,7.48V38.1l3.827,8.572,4,13.96s3.317,4.082,4.082,5.357,4.592,4.082,4.592,5.867,2.3,7.654,2.3,7.654.51,6.888.51,7.653.511,6.378.511,6.378-7.4,2.551-8.929,3.827-8.163,9.184-8.163,9.184l-.765,7.143s9.949,3.316,11.225,4.081,3.061,2.551,4.082,3.317.255,7.143-.255,8.929-1.275,10.715-1.275,10.715.745,1.337,1.582,2.6c.724,1.092,1.521,2.133,1.99,2.245,1.021.255,3.061,6.123,3.572,9.439s2.806,1.786,2.806,1.786l13.44,17.685-3.745,3.061Z" fill="#657580"/>
        </g>
      </g>
      <g id="Сгруппировать_48" data-name="Сгруппировать 48" transform="translate(732.219 4286.16)">
        <path id="Контур_228" data-name="Контур 228" d="M17.869,146.671l27.353-42.242-16.187-4.221Z" transform="translate(-11.079 -62.133)" fill="#213847"/>
        <g id="Сгруппировать_47" data-name="Сгруппировать 47">
          <g id="Сгруппировать_46" data-name="Сгруппировать 46" clip-path="url(#clip-path-3)">
            <path id="Контур_229" data-name="Контур 229" d="M28.189,103.455l-3.247,15.667,4.205,2.059a.818.818,0,0,1,.388,1.065L17.869,148.684l27.353-42.242Z" transform="translate(-11.079 -64.146)" fill="#213847"/>
            <path id="Контур_230" data-name="Контур 230" d="M56.969,28.485A28.485,28.485,0,1,1,28.485,0,28.485,28.485,0,0,1,56.969,28.485" transform="translate(0 -0.001)" fill="#213847"/>
            <path id="Контур_231" data-name="Контур 231" d="M58.41,32.2A26.206,26.206,0,1,1,32.2,6,26.206,26.206,0,0,1,58.41,32.2" transform="translate(-3.719 -3.718)" fill="#213847"/>
          </g>
        </g>
      </g>
      <g id="Сгруппировать_49" data-name="Сгруппировать 49" transform="translate(479.453 4346.709)">
        <path id="Контур_228-2" data-name="Контур 228" d="M33.161,126.184,17.869,102.568l9.05-2.36Z" transform="translate(-5.106 -78.921)" fill="#213847"/>
        <g id="Сгруппировать_47-2" data-name="Сгруппировать 47">
          <g id="Сгруппировать_46-2" data-name="Сгруппировать 46" clip-path="url(#clip-path-4)">
            <path id="Контур_229-2" data-name="Контур 229" d="M27.392,103.455l1.815,8.759-2.351,1.151a.457.457,0,0,0-.217.6l6.522,14.781L17.869,105.125Z" transform="translate(-5.107 -81.478)" fill="#213847"/>
            <path id="Контур_230-2" data-name="Контур 230" d="M0,15.926A15.925,15.925,0,1,0,15.925,0,15.925,15.925,0,0,0,0,15.926" transform="translate(0 -0.001)" fill="#213847"/>
            <path id="Контур_231-2" data-name="Контур 231" d="M6,20.648A14.651,14.651,0,1,0,20.649,6,14.651,14.651,0,0,0,6,20.648" transform="translate(-4.724 -4.723)" fill="#213847"/>
          </g>
        </g>
      </g>
      <path id="Контур_232" data-name="Контур 232" d="M532.148,4408.2s29.2,26.938,102.157-5.266,126.909-18.881,126.909-18.881" transform="translate(-23.206 -13.475)" fill="none" stroke="#213847" stroke-width="1" stroke-dasharray="5"/>
      <text id="Kiev" transform="translate(723 4387)" fill="#213847" font-size="18" font-family="ArialMT, Arial"><tspan x="0" y="0">Kiev</tspan></text>
      <text id="Polish_border" data-name="Polish border" transform="translate(442 4401)" fill="#213847" font-size="20" font-family="ArialMT, Arial"><tspan x="0" y="18">Polish border</tspan></text>
    </g>
    <g id="Сгруппировать_51" data-name="Сгруппировать 51" transform="translate(112 44.152)">
      <g id="Сгруппировать_37" data-name="Сгруппировать 37" transform="translate(512.702 4022.512)">
        <g id="Сгруппировать_43" data-name="Сгруппировать 43" transform="translate(21.527 46.618)">
          <path id="Контур_2" data-name="Контур 2" d="M45.716,100.961l89.017-1.143c-42.75,57.337-39.831,100.339-10.4,120.627h-74c13.162-26.666,37.606-82.22,41.879-116.749-21.88,5.47-40,24.786-44.785,48.546Z" transform="translate(-45.716 -98.91)" fill="#f5b51a"/>
          <path id="Контур_3" data-name="Контур 3" d="M134.284,148.281c16.549,2.159,34,17.45,23.206,44.614-6.3-6.477-14.033-9.175-20.149-9.175a17.081,17.081,0,0,0-5.4.719c-18.169,5.937-11.513,34.72,12.773,34.54,19.429-.361,27.164-22.847,26.8-40.835-.54-25.725-22.847-46.413-48.391-46.413l7.016-31.122c17.985-.449,114.455-.639,114.455-.639s-12.667,1.987-22.815,22.79c-10.831,22.2-69.155-3.8-93.261-2.542l-2.158,9.534a125.687,125.687,0,0,1,18.349-1.26c35.438,0,68.539,14.572,70.878,47.672,2.338,30.761-25.184,44.793-51.989,46.411-29.862,1.8-61.344-9.175-62.064-45.333-.359-21.227,17.091-30.941,32.741-28.963" transform="translate(-39.408 -98.893)" fill="#f5b51a"/>
          <path id="Контур_4" data-name="Контур 4" d="M264.427,99c78.63,0,78.459,123.586,0,123.586-78.289,0-78.459-123.586,0-123.586m0,121.535c23.589,0,23.589-119.484,0-119.484-23.418,0-23.418,119.484,0,119.484" transform="translate(-27.642 -99.002)" fill="#f5b51a"/>
        </g>
      </g>
      <g id="Сгруппировать_45" data-name="Сгруппировать 45" transform="translate(825.551 4121.188)">
        <g id="Сгруппировать_44" data-name="Сгруппировать 44" transform="translate(0 0)" clip-path="url(#clip-path-5)">
          <path id="Контур_226" data-name="Контур 226" d="M14.383,0H33.813C29.3,7.836,21.468,20.4,18.355,44.977Q33.49,33.224,35.744,21.146H54.422c-8.266,5.26-16.96,12.345-24.368,18.463,16.961-.43,16.21,20.4,20.4,32.2H31.021c4.08-4.079,9.124-29.841-3.113-28.983-9.66,1.288-11.057,20.4-8.479,28.983H0C13.632,47.767,17.926,24.044,14.383,0" transform="translate(0 0)" fill="#2b5aa5"/>
          <path id="Контур_227" data-name="Контур 227" d="M90.839,26.321l-.967,4.938a15.854,15.854,0,0,1,13.1-6.118h1.075c6.333.322,9.017,3.756,9.982,9.016,4.295-5.581,9.447-9.016,16.424-9.016h.859c10.305.429,11.807,10.412,11.807,18.569,0,1.611-.107,6.334-.859,13.955s-.751,11.163-.751,12.021a24.367,24.367,0,0,0,1.073,7.3H123.685c2.791-4.293,7.085-15.995,9.554-26.622,1.61-7.191,1.288-10.2,1.288-10.626,0-5.475-1.4-9.662-6.012-9.984-7.836.215-12.345,9.553-14.276,19.966a82.524,82.524,0,0,0-1.611,15.993A53.229,53.229,0,0,0,113.7,76.987H94.6c2.577-4.293,7.514-15.995,10.412-26.622,1.931-7.191,1.825-10.626,1.825-11.807,0-4.4-1.074-8.481-5.475-8.8C91.59,30.078,87.3,43.818,85.9,51.118c-1.931,10.2-1.825,21.361-.108,25.869H66.365c5.581-7.836,9.016-14.813,10.412-20.717a66.52,66.52,0,0,0,2.147-14.277,54.165,54.165,0,0,0-2.468-15.672Z" transform="translate(-13.66 -5.174)" fill="#2b5aa5"/>
        </g>
      </g>
      <line id="Линия_2" data-name="Линия 2" x2="445" transform="translate(526.5 4203.5)" fill="none" stroke="#707070" stroke-width="1" stroke-dasharray="5"/>
      <line id="Линия_3" data-name="Линия 3" y2="19" transform="translate(526.5 4193.5)" fill="none" stroke="#707070" stroke-width="1"/>
      <line id="Линия_4" data-name="Линия 4" y2="19" transform="translate(971.5 4193.5)" fill="none" stroke="#707070" stroke-width="1"/>
    </g>
  </g>
</svg>
