<svg xmlns="http://www.w3.org/2000/svg" xmlns:xlink="http://www.w3.org/1999/xlink" width="48.438" height="28.167" viewBox="0 0 48.438 28.167">
  <defs>
    <clipPath id="clip-path">
      <rect id="Прямоугольник_24" data-name="Прямоугольник 24" width="20.438" height="28.167" fill="#f5b51a"/>
    </clipPath>
  </defs>
  <g id="Сгруппировать_35" data-name="Сгруппировать 35" transform="translate(-1221.493 -3588.896)">
    <g id="Сгруппировать_33" data-name="Сгруппировать 33" transform="translate(1221.493 3588.896)">
      <g id="Сгруппировать_19" data-name="Сгруппировать 19" transform="translate(0 0)" clip-path="url(#clip-path)">
        <path id="Контур_210" data-name="Контур 210" d="M20.431,0a10.787,10.787,0,0,0-.845,5.983q.361,3.57.724,7.558a30.138,30.138,0,0,1-.3,7.857,11.542,11.542,0,0,1-3.928,6.769H8.825a7.9,7.9,0,0,0,2.237-3.808,2.409,2.409,0,0,0-1.148-2.418,8.858,8.858,0,0,0-3.928-1.208A52.5,52.5,0,0,0,0,20.43Q5.319,10.761,0,0Z" transform="translate(0 0)" fill="#f5b51a"/>
      </g>
    </g>
    <g id="Сгруппировать_34" data-name="Сгруппировать 34" transform="translate(1249.493 3588.896)">
      <g id="Сгруппировать_19-2" data-name="Сгруппировать 19" transform="translate(0 0)" clip-path="url(#clip-path)">
        <path id="Контур_210-2" data-name="Контур 210" d="M20.431,0a10.787,10.787,0,0,0-.845,5.983q.361,3.57.724,7.558a30.138,30.138,0,0,1-.3,7.857,11.542,11.542,0,0,1-3.928,6.769H8.825a7.9,7.9,0,0,0,2.237-3.808,2.409,2.409,0,0,0-1.148-2.418,8.858,8.858,0,0,0-3.928-1.208A52.5,52.5,0,0,0,0,20.43Q5.319,10.761,0,0Z" transform="translate(0 0)" fill="#f5b51a"/>
      </g>
    </g>
  </g>
</svg>
