<svg xmlns="http://www.w3.org/2000/svg" xmlns:xlink="http://www.w3.org/1999/xlink" width="142" height="142" viewBox="0 0 142 142">
  <defs>
    <clipPath id="clip-path">
      <rect id="Прямоугольник_13" data-name="Прямоугольник 13" width="114.185" height="112.448" fill="none"/>
    </clipPath>
  </defs>
  <g id="Сгруппировать_89" data-name="Сгруппировать 89" transform="translate(-905 -998)">
    <circle id="Эллипс_1" data-name="Эллипс 1" cx="71" cy="71" r="71" transform="translate(905 998)" fill="#f5b51a"/>
    <g id="Сгруппировать_5" data-name="Сгруппировать 5">
      <g id="Прямоугольник_4" data-name="Прямоугольник 4" transform="translate(953 1036)" fill="none" stroke="#fff" stroke-width="3">
        <rect width="46" height="66" rx="23" stroke="none"/>
        <rect x="1.5" y="1.5" width="43" height="63" rx="21.5" fill="none"/>
      </g>
      <g id="Эллипс_3" data-name="Эллипс 3" transform="translate(969 1047)" fill="none" stroke="#fff" stroke-width="3">
        <circle cx="7" cy="7" r="7" stroke="none"/>
        <circle cx="7" cy="7" r="5.5" fill="none"/>
      </g>
    </g>
    <g id="Сгруппировать_7" data-name="Сгруппировать 7" transform="translate(918.907 1012.776)">
      <g id="Сгруппировать_6" data-name="Сгруппировать 6" clip-path="url(#clip-path)">
        <path id="Контур_10" data-name="Контур 10" d="M122.414,6.542a2.015,2.015,0,0,1-1.208,1.393,3.358,3.358,0,0,1-2.214-.011A5.078,5.078,0,0,1,116.976,6.9l.345-1.187a6.076,6.076,0,0,0,1,.713,4.923,4.923,0,0,0,1.059.461,1.826,1.826,0,0,0,1.184.036.966.966,0,0,0,.576-.659.994.994,0,0,0-.114-.825,5.084,5.084,0,0,0-1.139-1.1,3.713,3.713,0,0,1-1.2-1.4,2.15,2.15,0,0,1-.05-1.439A1.92,1.92,0,0,1,119.764.183a2.951,2.951,0,0,1,1.994-.019,5.6,5.6,0,0,1,2.056,1.121l-.7.909a5,5,0,0,0-1.7-.962,1.462,1.462,0,0,0-1,0,.907.907,0,0,0-.519.61,1.029,1.029,0,0,0-.023.549,1.349,1.349,0,0,0,.3.523,7.363,7.363,0,0,0,.9.8,5.958,5.958,0,0,1,1.049,1.017,2.009,2.009,0,0,1,.378.857,2.154,2.154,0,0,1-.078.957" transform="translate(-47.974 0)" fill="#fff"/>
        <path id="Контур_11" data-name="Контур 11" d="M129.6,12.951a2.648,2.648,0,0,1-1.615-1.547,3.348,3.348,0,0,1,.232-2.4,3.368,3.368,0,0,1,1.6-1.875,2.769,2.769,0,0,1,2.308.078,4.048,4.048,0,0,1,1.452,1l-.758.8a3.9,3.9,0,0,0-1.118-.813q-1.448-.608-2.256,1.314a2.493,2.493,0,0,0-.231,1.562,1.353,1.353,0,0,0,.859.915,3.284,3.284,0,0,0,1.663.235l-.434,1.035a2.543,2.543,0,0,1-.791-.018,4.427,4.427,0,0,1-.909-.287" transform="translate(-52.435 -2.835)" fill="#fff"/>
        <path id="Контур_12" data-name="Контур 12" d="M141.006,11.4a3.117,3.117,0,0,1,.536.355l-.684.992a2.417,2.417,0,0,0-.468-.33,1.645,1.645,0,0,0-1.338-.156,1.82,1.82,0,0,0-1.047.92l-1.513,2.778-1.129-.615,2.9-5.315.884.482-.361,1.018.057.032a2.4,2.4,0,0,1,1.1-.379,1.867,1.867,0,0,1,1.068.22" transform="translate(-55.515 -4.114)" fill="#fff"/>
        <path id="Контур_13" data-name="Контур 13" d="M148.879,20.534a3.3,3.3,0,0,1-1.953,1.456,2.726,2.726,0,0,1-2.211-.537,2.9,2.9,0,0,1-1.006-1.176,2.53,2.53,0,0,1-.188-1.476,3.759,3.759,0,0,1,.67-1.563,3.285,3.285,0,0,1,1.94-1.446,2.738,2.738,0,0,1,2.217.548,2.668,2.668,0,0,1,1.216,1.888,3.266,3.266,0,0,1-.684,2.305M145.275,18q-1.2,1.715.062,2.606t2.459-.834q1.193-1.7-.07-2.584a1.316,1.316,0,0,0-1.269-.236A2.725,2.725,0,0,0,145.275,18" transform="translate(-58.846 -6.454)" fill="#fff"/>
        <rect id="Прямоугольник_5" data-name="Прямоугольник 5" width="8.515" height="1.286" transform="translate(89.239 17.441) rotate(-49.39)" fill="#fff"/>
        <rect id="Прямоугольник_6" data-name="Прямоугольник 6" width="8.515" height="1.286" transform="matrix(0.696, -0.718, 0.718, 0.696, 91.499, 19.448)" fill="#fff"/>
        <path id="Контур_14" data-name="Контур 14" d="M169.168,39.61a3.984,3.984,0,0,1-3.091.911,4.416,4.416,0,0,1-2.723-1.93l-1.327-1.8,6.441-4.746,1.467,1.991a4.091,4.091,0,0,1,.934,3,3.842,3.842,0,0,1-1.7,2.572m-.854-1.084q2.313-1.7.72-3.867l-.672-.912-4.674,3.444.552.749q1.713,2.326,4.075.586" transform="translate(-66.45 -13.142)" fill="#fff"/>
        <path id="Контур_15" data-name="Контур 15" d="M175.357,52.7a3.3,3.3,0,0,1-2.4.414,2.72,2.72,0,0,1-1.728-1.48,2.906,2.906,0,0,1-.365-1.5,2.529,2.529,0,0,1,.5-1.4,3.75,3.75,0,0,1,1.3-1.09,3.282,3.282,0,0,1,2.384-.411,2.74,2.74,0,0,1,1.728,1.492,2.669,2.669,0,0,1,.229,2.233,3.267,3.267,0,0,1-1.654,1.745m-2.066-3.89q-1.851.982-1.124,2.351t2.57.37q1.832-.973,1.108-2.336a1.316,1.316,0,0,0-1.024-.785,2.72,2.72,0,0,0-1.529.4" transform="translate(-70.073 -19.336)" fill="#fff"/>
        <path id="Контур_16" data-name="Контур 16" d="M176.652,63.567l2.415-1.659q.378-.281,1.8-1.166l-.015-.047q-1.5.181-2.146.206l-2.922.156-.463-1.346,5.17-3.575.428,1.242-2.568,1.7q-.96.609-1.669.969l.011.031q.4-.078.921-.14t.795-.068l3.312-.168.46,1.335-2.721,1.881c-.151.11-.388.264-.709.461a6.311,6.311,0,0,1-.765.417l.014.041a16.711,16.711,0,0,1,1.9-.251l3.075-.231.42,1.221-6.279.356Z" transform="translate(-71.904 -23.023)" fill="#fff"/>
        <path id="Контур_17" data-name="Контур 17" d="M180.311,79.629l-.221-1.272,3.667-.637a1.631,1.631,0,0,0,.981-.457,1.088,1.088,0,0,0,.186-.941,1.42,1.42,0,0,0-.678-1.092,2.656,2.656,0,0,0-1.655-.1l-2.971.516-.22-1.267,5.963-1.036.172.992-.75.313.011.065a1.789,1.789,0,0,1,.79.651,2.594,2.594,0,0,1,.423,1.06,1.942,1.942,0,0,1-1.81,2.525Z" transform="translate(-73.575 -30.081)" fill="#fff"/>
        <path id="Контур_18" data-name="Контур 18" d="M181.691,86.287a.845.845,0,0,1,.626.162.8.8,0,0,1,.257.585.792.792,0,0,1-.176.622.849.849,0,0,1-.588.252.869.869,0,0,1-.629-.165.92.92,0,0,1-.091-1.2.876.876,0,0,1,.6-.252" transform="translate(-74.193 -35.386)" fill="#fff"/>
        <path id="Контур_19" data-name="Контур 19" d="M181.544,110.715a2.014,2.014,0,0,1-1.5-1.066,3.359,3.359,0,0,1-.206-2.2,5.079,5.079,0,0,1,.822-2.107l1.216.227a6.046,6.046,0,0,0-.611,1.069,4.918,4.918,0,0,0-.356,1.1,1.828,1.828,0,0,0,.08,1.182.966.966,0,0,0,.713.509,1,1,0,0,0,.81-.194,5.111,5.111,0,0,0,.983-1.242,3.709,3.709,0,0,1,1.278-1.331,2.143,2.143,0,0,1,1.428-.19,1.917,1.917,0,0,1,1.419.989,2.957,2.957,0,0,1,.214,1.983,5.622,5.622,0,0,1-.914,2.156l-.973-.6a5,5,0,0,0,.791-1.79,1.46,1.46,0,0,0-.095-1,.909.909,0,0,0-.658-.457,1.032,1.032,0,0,0-.549.031,1.341,1.341,0,0,0-.491.348,7.361,7.361,0,0,0-.71.97,5.941,5.941,0,0,1-.91,1.144,2.016,2.016,0,0,1-.815.46,2.159,2.159,0,0,1-.96.015" transform="translate(-73.717 -43.201)" fill="#fff"/>
        <path id="Контур_20" data-name="Контур 20" d="M177.071,118.275a2.648,2.648,0,0,1,1.382-1.758,4.061,4.061,0,0,1,4.432,1.4,2.768,2.768,0,0,1,.147,2.3,4.037,4.037,0,0,1-.848,1.542l-.874-.676a3.893,3.893,0,0,0,.7-1.193q.464-1.5-1.528-2.116a2.5,2.5,0,0,0-1.577-.078,1.356,1.356,0,0,0-.827.944,3.3,3.3,0,0,0-.072,1.679L176.934,120a2.533,2.533,0,0,1-.06-.789,4.387,4.387,0,0,1,.2-.933" transform="translate(-72.536 -47.694)" fill="#fff"/>
        <path id="Контур_21" data-name="Контур 21" d="M179.892,129.606a3.09,3.09,0,0,1-.3.568l-1.054-.584a2.447,2.447,0,0,0,.283-.5,1.652,1.652,0,0,0,.025-1.348,1.822,1.822,0,0,0-1.018-.951l-2.912-1.235.5-1.184,5.571,2.364-.393.927-1.048-.261-.026.061a2.393,2.393,0,0,1,.484,1.058,1.866,1.866,0,0,1-.115,1.084" transform="translate(-71.736 -51.008)" fill="#fff"/>
        <path id="Контур_22" data-name="Контур 22" d="M171.424,138.192a3.3,3.3,0,0,1-1.639-1.8,2.725,2.725,0,0,1,.32-2.252,2.9,2.9,0,0,1,1.072-1.116,2.53,2.53,0,0,1,1.451-.329,3.748,3.748,0,0,1,1.62.515,3.278,3.278,0,0,1,1.627,1.79,2.741,2.741,0,0,1-.33,2.26,2.666,2.666,0,0,1-1.761,1.392,3.267,3.267,0,0,1-2.361-.457m2.172-3.833q-1.825-1.033-2.587.314t1.068,2.366q1.805,1.023,2.565-.32a1.315,1.315,0,0,0,.112-1.285,2.732,2.732,0,0,0-1.159-1.075" transform="translate(-69.583 -54.417)" fill="#fff"/>
        <rect id="Прямоугольник_7" data-name="Прямоугольник 7" width="1.286" height="8.515" transform="matrix(0.575, -0.818, 0.818, 0.575, 97.67, 84.374)" fill="#fff"/>
        <rect id="Прямоугольник_8" data-name="Прямоугольник 8" width="1.286" height="8.515" transform="matrix(0.623, -0.782, 0.782, 0.623, 95.835, 86.76)" fill="#fff"/>
        <path id="Контур_23" data-name="Контур 23" d="M152.974,160.318a3.984,3.984,0,0,1-1.206-2.988,4.417,4.417,0,0,1,1.657-2.9l1.665-1.5,5.346,5.953-1.84,1.653a4.093,4.093,0,0,1-2.9,1.22,3.843,3.843,0,0,1-2.724-1.445m1-.954q1.92,2.138,3.919.342l.842-.757-3.88-4.32-.692.621q-2.149,1.931-.19,4.113" transform="translate(-62.239 -62.722)" fill="#fff"/>
        <path id="Контур_24" data-name="Контур 24" d="M142.149,167.619a3.3,3.3,0,0,1-.645-2.349,2.724,2.724,0,0,1,1.305-1.863,2.9,2.9,0,0,1,1.461-.51,2.524,2.524,0,0,1,1.442.363,3.738,3.738,0,0,1,1.212,1.193,3.284,3.284,0,0,1,.641,2.333,2.737,2.737,0,0,1-1.318,1.865,2.665,2.665,0,0,1-2.2.445,3.264,3.264,0,0,1-1.9-1.476m3.671-2.434q-1.158-1.747-2.449-.891t-.119,2.594q1.146,1.728,2.433.875a1.317,1.317,0,0,0,.682-1.1,2.726,2.726,0,0,0-.547-1.483" transform="translate(-58.021 -66.805)" fill="#fff"/>
        <path id="Контур_25" data-name="Контур 25" d="M129.5,170.013l1.888,2.241q.317.349,1.336,1.682l.045-.021q-.326-1.476-.415-2.115l-.44-2.892,1.294-.593,4.063,4.8-1.195.547-1.943-2.39q-.7-.9-1.127-1.566l-.029.014q.116.386.229.9t.146.785l.49,3.279-1.283.588-2.137-2.524q-.187-.21-.529-.661a6.394,6.394,0,0,1-.49-.721l-.04.018a16.954,16.954,0,0,1,.436,1.871l.53,3.037-1.174.538-.969-6.214Z" transform="translate(-52.57 -69.029)" fill="#fff"/>
        <path id="Контур_26" data-name="Контур 26" d="M115.569,175.047l1.244-.344.993,3.586a1.627,1.627,0,0,0,.551.932,1.089,1.089,0,0,0,.954.093,1.422,1.422,0,0,0,1.021-.782,2.652,2.652,0,0,0-.067-1.656l-.8-2.906,1.239-.343,1.616,5.833-.971.269-.386-.717-.064.017a1.784,1.784,0,0,1-.57.851,2.6,2.6,0,0,1-1.013.524,1.943,1.943,0,0,1-2.691-1.555Z" transform="translate(-47.397 -71.207)" fill="#fff"/>
        <path id="Контур_27" data-name="Контур 27" d="M112.252,177.054a.841.841,0,0,1-.1.639.8.8,0,0,1-.557.312.792.792,0,0,1-.636-.116.848.848,0,0,1-.307-.56.873.873,0,0,1,.1-.643.919.919,0,0,1,1.189-.206.875.875,0,0,1,.31.574" transform="translate(-45.372 -72.322)" fill="#fff"/>
        <path id="Контур_28" data-name="Контур 28" d="M80.036,178.673a2.016,2.016,0,0,1,1-1.547,3.36,3.36,0,0,1,2.194-.295,5.072,5.072,0,0,1,2.138.736l-.178,1.224a6,6,0,0,0-1.092-.568,4.926,4.926,0,0,0-1.114-.311,1.822,1.822,0,0,0-1.177.128.963.963,0,0,0-.48.732.994.994,0,0,0,.227.8,5.113,5.113,0,0,0,1.28.932,3.7,3.7,0,0,1,1.382,1.224,2.141,2.141,0,0,1,.248,1.418,1.916,1.916,0,0,1-.931,1.458,2.953,2.953,0,0,1-1.973.294,5.605,5.605,0,0,1-2.191-.827l.565-1a5,5,0,0,0,1.82.718,1.466,1.466,0,0,0,.993-.135.909.909,0,0,0,.43-.676,1.031,1.031,0,0,0-.054-.547,1.351,1.351,0,0,0-.367-.477,7.335,7.335,0,0,0-1-.67,5.946,5.946,0,0,1-1.18-.862,2.013,2.013,0,0,1-.493-.8,2.151,2.151,0,0,1-.054-.959" transform="translate(-32.553 -72.499)" fill="#fff"/>
        <path id="Контур_29" data-name="Контур 29" d="M72.8,174.519a2.649,2.649,0,0,1,1.813,1.31,4.063,4.063,0,0,1-1.222,4.485,2.769,2.769,0,0,1-2.3.241,4.031,4.031,0,0,1-1.575-.785l.64-.9a3.883,3.883,0,0,0,1.22.651q1.518.4,2.052-1.613a2.5,2.5,0,0,0,.014-1.579,1.358,1.358,0,0,0-.977-.788,3.292,3.292,0,0,0-1.681,0l.287-1.085a2.556,2.556,0,0,1,.786-.092,4.418,4.418,0,0,1,.94.159" transform="translate(-28.512 -71.508)" fill="#fff"/>
        <path id="Контур_30" data-name="Контур 30" d="M61.347,177.746a3.117,3.117,0,0,1-.58-.277l.541-1.077a2.426,2.426,0,0,0,.509.262,1.645,1.645,0,0,0,1.348-.03,1.819,1.819,0,0,0,.91-1.055l1.116-2.96,1.2.454-2.135,5.663-.943-.355.218-1.059-.062-.023a2.394,2.394,0,0,1-1.038.527,1.868,1.868,0,0,1-1.088-.071" transform="translate(-24.922 -70.79)" fill="#fff"/>
        <path id="Контур_31" data-name="Контур 31" d="M52.235,169.682a3.3,3.3,0,0,1,1.735-1.711,2.726,2.726,0,0,1,2.264.228,2.9,2.9,0,0,1,1.159,1.026,2.53,2.53,0,0,1,.388,1.436,3.742,3.742,0,0,1-.449,1.639,3.281,3.281,0,0,1-1.723,1.7,2.736,2.736,0,0,1-2.271-.238,2.668,2.668,0,0,1-1.463-1.7,3.266,3.266,0,0,1,.361-2.377m3.918,2.014q.958-1.864-.419-2.572t-2.322,1.164q-.948,1.844.425,2.55a1.315,1.315,0,0,0,1.289.06,2.732,2.732,0,0,0,1.027-1.2" transform="translate(-21.237 -68.826)" fill="#fff"/>
        <rect id="Прямоугольник_9" data-name="Прямоугольник 9" width="8.515" height="1.286" transform="translate(25.63 103.878) rotate(-57.228)" fill="#fff"/>
        <rect id="Прямоугольник_10" data-name="Прямоугольник 10" width="8.515" height="1.286" transform="matrix(0.591, -0.806, 0.806, 0.591, 22.742, 101.845)" fill="#fff"/>
        <path id="Контур_32" data-name="Контур 32" d="M27.456,152.186a3.985,3.985,0,0,1,2.938-1.325,4.417,4.417,0,0,1,2.961,1.539l1.561,1.6-5.733,5.581-1.725-1.772a4.091,4.091,0,0,1-1.335-2.847,3.844,3.844,0,0,1,1.334-2.78m.993.957q-2.059,2-.184,3.93l.79.812,4.16-4.051-.649-.667q-2.016-2.07-4.117-.024" transform="translate(-10.713 -61.87)" fill="#fff"/>
        <path id="Контур_33" data-name="Контур 33" d="M21.474,141.621a3.3,3.3,0,0,1,2.322-.74,2.722,2.722,0,0,1,1.915,1.229,2.9,2.9,0,0,1,.569,1.439,2.531,2.531,0,0,1-.3,1.456,3.74,3.74,0,0,1-1.143,1.258,3.281,3.281,0,0,1-2.3.735,2.738,2.738,0,0,1-1.917-1.241,2.665,2.665,0,0,1-.533-2.18,3.265,3.265,0,0,1,1.4-1.957m2.581,3.57q1.7-1.228.791-2.483t-2.6-.014q-1.68,1.215-.776,2.466a1.319,1.319,0,0,0,1.123.637,2.732,2.732,0,0,0,1.459-.606" transform="translate(-8.211 -57.771)" fill="#fff"/>
        <path id="Контур_34" data-name="Контур 34" d="M16.957,129.064l-2.163,1.977q-.335.33-1.626,1.4l.022.044q1.461-.387,2.1-.5l2.872-.557L18.8,132.7l-4.626,4.255-.6-1.171,2.309-2.039q.866-.735,1.52-1.19l-.015-.029q-.382.132-.893.267t-.778.178l-3.256.624-.639-1.259,2.434-2.239c.136-.13.348-.315.639-.555a6.363,6.363,0,0,1,.7-.519l-.02-.039a16.759,16.759,0,0,1-1.852.511l-3.013.654L10.133,129l6.168-1.221Z" transform="translate(-4.156 -52.403)" fill="#fff"/>
        <path id="Контур_35" data-name="Контур 35" d="M12.525,115.315l.4,1.229-3.543,1.138a1.625,1.625,0,0,0-.909.588,1.089,1.089,0,0,0-.055.957,1.423,1.423,0,0,0,.823.989,2.662,2.662,0,0,0,1.653-.134l2.87-.922.393,1.224-5.763,1.851-.308-.959.7-.415-.02-.063a1.786,1.786,0,0,1-.873-.536,2.6,2.6,0,0,1-.566-.991,1.942,1.942,0,0,1,1.444-2.751Z" transform="translate(-2.938 -47.293)" fill="#fff"/>
        <path id="Контур_36" data-name="Контур 36" d="M13.955,112.076a.843.843,0,0,1-.643-.075.8.8,0,0,1-.334-.544.792.792,0,0,1,.09-.641.846.846,0,0,1,.547-.33.868.868,0,0,1,.647.077.92.92,0,0,1,.255,1.179.873.873,0,0,1-.561.333" transform="translate(-5.311 -45.301)" fill="#fff"/>
        <path id="Контур_37" data-name="Контур 37" d="M6.056,85.267a2.013,2.013,0,0,1,1.636.85A3.356,3.356,0,0,1,8.2,88.272a5.076,5.076,0,0,1-.527,2.2l-1.235-.059a5.993,5.993,0,0,0,.46-1.142,4.915,4.915,0,0,0,.2-1.138,1.826,1.826,0,0,0-.241-1.159.962.962,0,0,0-.775-.406.992.992,0,0,0-.776.3,5.078,5.078,0,0,0-.8,1.364,3.707,3.707,0,0,1-1.085,1.494,2.142,2.142,0,0,1-1.388.383,1.915,1.915,0,0,1-1.54-.785A2.952,2.952,0,0,1,.005,87.39a5.611,5.611,0,0,1,.612-2.261l1.046.466a5,5,0,0,0-.539,1.881,1.458,1.458,0,0,0,.231.975.906.906,0,0,0,.714.363,1.024,1.024,0,0,0,.539-.106,1.337,1.337,0,0,0,.438-.412,7.308,7.308,0,0,0,.571-1.058,5.944,5.944,0,0,1,.744-1.258,2.008,2.008,0,0,1,.745-.567,2.154,2.154,0,0,1,.949-.147" transform="translate(0 -34.913)" fill="#fff"/>
        <path id="Контур_38" data-name="Контур 38" d="M10.742,77.551a2.649,2.649,0,0,1-1.126,1.932,3.347,3.347,0,0,1-2.386.336,3.369,3.369,0,0,1-2.2-1.114,2.772,2.772,0,0,1-.464-2.263A4.051,4.051,0,0,1,5.2,74.8l.959.55a3.89,3.89,0,0,0-.529,1.278q-.252,1.55,1.806,1.885A2.5,2.5,0,0,0,9,78.369a1.358,1.358,0,0,0,.689-1.05,3.288,3.288,0,0,0-.161-1.672l1.107.18a2.514,2.514,0,0,1,.168.773,4.413,4.413,0,0,1-.065.951" transform="translate(-1.851 -30.676)" fill="#fff"/>
        <path id="Контур_39" data-name="Контур 39" d="M6.632,66.437a3.124,3.124,0,0,1,.219-.6l1.125.432a2.452,2.452,0,0,0-.211.533,1.648,1.648,0,0,0,.162,1.338,1.821,1.821,0,0,0,1.139.8l3.054.821L11.786,71l-5.845-1.57.261-.973,1.075.113.017-.064a2.4,2.4,0,0,1-.626-.981,1.863,1.863,0,0,1-.036-1.09" transform="translate(-2.437 -26.999)" fill="#fff"/>
        <path id="Контур_40" data-name="Контур 40" d="M13.581,56.473a3.3,3.3,0,0,1,1.872,1.56,2.726,2.726,0,0,1-.006,2.275,2.905,2.905,0,0,1-.908,1.253,2.531,2.531,0,0,1-1.392.526,3.745,3.745,0,0,1-1.676-.287,3.278,3.278,0,0,1-1.859-1.548,2.737,2.737,0,0,1,.016-2.283,2.665,2.665,0,0,1,1.552-1.622,3.265,3.265,0,0,1,2.4.127m-1.622,4.1q1.949.772,2.519-.668.564-1.425-1.384-2.2-1.929-.764-2.5.671a1.316,1.316,0,0,0,.067,1.289,2.728,2.728,0,0,0,1.3.9" transform="translate(-3.843 -23.038)" fill="#fff"/>
        <rect id="Прямоугольник_11" data-name="Прямоугольник 11" width="1.286" height="8.515" transform="translate(5.618 29.536) rotate(-62.812)" fill="#fff"/>
        <rect id="Прямоугольник_12" data-name="Прямоугольник 12" width="1.286" height="8.516" transform="matrix(0.51, -0.86, 0.86, 0.51, 7.289, 26.43)" fill="#fff"/>
        <path id="Контур_41" data-name="Контур 41" d="M26.96,30.138a3.988,3.988,0,0,1,1.6,2.8,4.42,4.42,0,0,1-1.246,3.1l-1.446,1.709L19.761,32.57l1.6-1.888a4.094,4.094,0,0,1,2.705-1.6,3.847,3.847,0,0,1,2.9,1.059M26.1,31.219q-2.193-1.856-3.929.2l-.732.865,4.432,3.75.6-.71q1.866-2.207-.373-4.1" transform="translate(-8.104 -11.919)" fill="#fff"/>
        <path id="Контур_42" data-name="Контур 42" d="M38.646,23.117a3.3,3.3,0,0,1,.961,2.239,2.727,2.727,0,0,1-1.038,2.025,2.9,2.9,0,0,1-1.378.7,2.525,2.525,0,0,1-1.479-.162,3.746,3.746,0,0,1-1.363-1.016,3.284,3.284,0,0,1-.954-2.223,2.74,2.74,0,0,1,1.05-2.028,2.666,2.666,0,0,1,2.119-.741,3.267,3.267,0,0,1,2.082,1.2m-3.3,2.914q1.387,1.572,2.548.547t-.238-2.585q-1.371-1.556-2.529-.534a1.317,1.317,0,0,0-.526,1.179,2.73,2.73,0,0,0,.744,1.394" transform="translate(-13.696 -8.981)" fill="#fff"/>
        <path id="Контур_43" data-name="Контур 43" d="M48.718,17.268l-2.178-1.96q-.361-.3-1.554-1.482l-.042.026q.526,1.417.7,2.039l.834,2.8-1.2.764L40.6,15.267l1.108-.705,2.254,2.1q.816.791,1.331,1.4l.028-.018q-.169-.366-.352-.862t-.252-.758l-.937-3.179,1.191-.759,2.464,2.206q.213.183.614.582a6.318,6.318,0,0,1,.585.647l.037-.024a16.736,16.736,0,0,1-.688-1.793l-.943-2.936,1.089-.694,1.813,6.022Z" transform="translate(-16.649 -4.294)" fill="#fff"/>
        <path id="Контур_44" data-name="Контур 44" d="M63.34,11.637l-1.186.513L60.676,8.735A1.628,1.628,0,0,0,60,7.887a1.092,1.092,0,0,0-.958.039,1.424,1.424,0,0,0-.9.916,2.659,2.659,0,0,0,.295,1.632l1.2,2.767-1.18.511L56.049,8.2l.924-.4.481.657.061-.026a1.783,1.783,0,0,1,.448-.921,2.6,2.6,0,0,1,.93-.66,1.943,1.943,0,0,1,2.88,1.169Z" transform="translate(-22.987 -2.702)" fill="#fff"/>
        <path id="Контур_45" data-name="Контур 45" d="M70.291,12.6a.845.845,0,0,1,.012-.647.8.8,0,0,1,.508-.386.8.8,0,0,1,.647.027.846.846,0,0,1,.382.513.866.866,0,0,1-.014.65.918.918,0,0,1-1.148.37.877.877,0,0,1-.386-.526" transform="translate(-28.804 -4.721)" fill="#fff"/>
      </g>
    </g>
  </g>
</svg>
