<svg xmlns="http://www.w3.org/2000/svg" xmlns:xlink="http://www.w3.org/1999/xlink" width="793.869" height="253.319" viewBox="0 0 793.869 253.319">
  <defs>
    <clipPath id="clip-path">
      <rect id="Прямоугольник_23" data-name="Прямоугольник 23" width="110.954" height="148.53" fill="#f5b51a"/>
    </clipPath>
    <clipPath id="clip-path-2">
      <rect id="Прямоугольник_24" data-name="Прямоугольник 24" width="20.438" height="28.167" fill="#f5b51a"/>
    </clipPath>
  </defs>
  <g id="Сгруппировать_22" data-name="Сгруппировать 22" transform="translate(-516 -2671.558)">
    <g id="Сгруппировать_21" data-name="Сгруппировать 21" transform="translate(516 2686.264)">
      <path id="Контур_204" data-name="Контур 204" d="M45.716,101.218l109-1.4c-52.344,70.2-48.77,122.858-12.737,147.7H51.368c16.116-32.65,46.046-100.673,51.278-142.951-26.79,6.7-48.976,30.348-54.836,59.441Z" transform="translate(82.69 -17.508)" fill="#f5b51a"/>
      <path id="Контур_205" data-name="Контур 205" d="M141.633,159.123c20.263,2.644,41.629,21.366,28.414,54.626-7.709-7.93-17.182-11.234-24.671-11.234a20.915,20.915,0,0,0-6.608.88c-22.246,7.269-14.1,42.512,15.639,42.292,23.789-.442,33.26-27.974,32.82-50-.661-31.5-27.974-56.829-59.252-56.829l8.591-38.107c22.021-.549,140.142-.782,140.142-.782s-15.51,2.433-27.935,27.9c-13.261,27.185-84.675-4.655-114.192-3.113l-2.642,11.674a153.9,153.9,0,0,1,22.467-1.543c43.392,0,83.921,17.842,86.784,58.371,2.863,37.665-30.836,54.846-63.656,56.827-36.564,2.2-75.111-11.234-75.992-55.507-.44-25.991,20.927-37.884,40.089-35.463" transform="translate(102.942 -17.453)" fill="#f5b51a"/>
      <path id="Контур_206" data-name="Контур 206" d="M277.619,99c96.276,0,96.068,151.322,0,151.322-95.859,0-96.068-151.322,0-151.322m0,148.811c28.883,0,28.883-146.3,0-146.3-28.673,0-28.673,146.3,0,146.3" transform="translate(140.713 -17.804)" fill="#f5b51a"/>
      <path id="Контур_207" data-name="Контур 207" d="M277.619,99c96.276,0,96.068,151.322,0,151.322-95.859,0-96.068-151.322,0-151.322m0,148.811c28.883,0,28.883-146.3,0-146.3-28.673,0-28.673,146.3,0,146.3" transform="translate(292.417 -17.804)" fill="#f5b51a"/>
      <path id="Контур_208" data-name="Контур 208" d="M277.619,99c96.276,0,96.068,151.322,0,151.322-95.859,0-96.068-151.322,0-151.322m0,148.811c28.883,0,28.883-146.3,0-146.3-28.673,0-28.673,146.3,0,146.3" transform="translate(444.121 -17.804)" fill="#f5b51a"/>
      <text id="The_target_is" data-name="The target is" transform="translate(12.075)" fill="#2b5aa5" font-size="50" font-family="OpenSans-Bold, Open Sans" font-weight="700"><tspan x="0" y="53">The target </tspan></text>
      <g id="Сгруппировать_18" data-name="Сгруппировать 18" transform="translate(0 75.275)">
        <g id="Сгруппировать_17" data-name="Сгруппировать 17" transform="translate(0 0)" clip-path="url(#clip-path)">
          <path id="Контур_209" data-name="Контур 209" d="M0,148.53A128.7,128.7,0,0,0,8.627,131.6a92.741,92.741,0,0,0,4.7-14.524A58.173,58.173,0,0,0,14.852,104.3a76.872,76.872,0,0,0-.874-11.685A104.8,104.8,0,0,0,1.529,93.927,32.183,32.183,0,0,0,4.15,80.712,32.2,32.2,0,0,0,1.529,67.5c1.312.145,2.584.294,3.823.436l3.6.436Q7.86,63.353,7.1,57.78a86.932,86.932,0,0,1-.766-11.9A46.411,46.411,0,0,1,9.83,26.22,40.6,40.6,0,0,1,20.2,11.806,43.86,43.86,0,0,1,35.928,2.959,61.368,61.368,0,0,1,55.041.011Q71.2-.207,82.234,3.833T99.6,13.989a28.348,28.348,0,0,1,8.191,13.433,23.709,23.709,0,0,1-.22,13.54A20.459,20.459,0,0,1,99.6,51.339q-5.9,4.145-15.288,4.146A43.793,43.793,0,0,1,70.766,53.3,68.5,68.5,0,0,0,73.5,37.032a43.459,43.459,0,0,0-1.529-14.2A21.8,21.8,0,0,0,65.96,12.787a16.009,16.009,0,0,0-10.7-4.04q-7.2-.436-11.137,3.275a21.286,21.286,0,0,0-5.68,9.283A36.826,36.826,0,0,0,36.8,33.1a68.436,68.436,0,0,0,.984,11.032q1.088,6.115,2.075,12.775t1.419,13.65q10.7.223,21.186-.546T85.4,67.5a37.507,37.507,0,0,0,0,26.427Q72.95,92.184,62.467,91.414T41.28,90.868a70.8,70.8,0,0,1-5.46,21.844,37.06,37.06,0,0,1-13.978,16.381q10.263,0,22.387-.764a196.627,196.627,0,0,0,24.244-3.059,145.834,145.834,0,0,0,23.151-6.333,69.5,69.5,0,0,0,19.33-10.592L98.941,148.53Z" transform="translate(0 0)" fill="#f5b51a"/>
        </g>
      </g>
    </g>
    <rect id="Прямоугольник_25" data-name="Прямоугольник 25" width="130.166" height="35.214" transform="translate(1169.017 2671.558)" fill="#2b5aa5"/>
    <path id="Контур_211" data-name="Контур 211" d="M0,0H130.166V35.214H0Z" transform="translate(1169.017 2715.878)" fill="#f5b51a"/>
    <g id="Сгруппировать_38" data-name="Сгруппировать 38" transform="translate(853.216 2896.711)">
      <g id="Сгруппировать_19" data-name="Сгруппировать 19" transform="translate(0 0)" clip-path="url(#clip-path-2)">
        <path id="Контур_210" data-name="Контур 210" d="M20.431,0a10.787,10.787,0,0,0-.845,5.983q.361,3.57.724,7.558a30.138,30.138,0,0,1-.3,7.857,11.542,11.542,0,0,1-3.928,6.769H8.825a7.9,7.9,0,0,0,2.237-3.808,2.409,2.409,0,0,0-1.148-2.418,8.858,8.858,0,0,0-3.928-1.208A52.5,52.5,0,0,0,0,20.43Q5.319,10.761,0,0Z" transform="translate(0 0)" fill="#f5b51a"/>
      </g>
    </g>
  </g>
</svg>
