<svg xmlns="http://www.w3.org/2000/svg" width="252" height="252" viewBox="0 0 252 252">
  <g id="Сгруппировать_89" data-name="Сгруппировать 89" transform="translate(-1284 -6274.734)">
    <g id="Эллипс_6" data-name="Эллипс 6" transform="translate(1284 6274.734)" fill="#fff" stroke="#eaaf23" stroke-width="5">
      <circle cx="126" cy="126" r="126" stroke="none"/>
      <circle cx="126" cy="126" r="123.5" fill="none"/>
    </g>
    <path id="Контур_239" data-name="Контур 239" d="M53.21,113.789h6.147v-6.081H53.21Zm6.146-12.16v6.079H65.4v6.081h6.147v-6.081H65.5v-6.079Zm41.313,9.082h10.6v-10.6h-10.6Zm-88.607,4.57H31.1V96.244H12.062Zm35-7.572h6.147V95.548H47.062ZM97.451,97.067h16.792v16.792H97.451Zm-3.5,20.29h23.789V93.568H93.952ZM83.792,92.822v20.967H71.546v13.238h6.148v-7.158h6.1v-6.08h5.693V92.822Zm-6.147,0h6.147v-6.08H77.644ZM6.283,90.778H36.438v30.155H6.283ZM0,127.216H42.719V84.5H0ZM58.658,75.538v6.081h6.112V94.558h6.147V81.619h.035V75.538ZM42.351,80.629H47.8V75.238H42.351ZM89.637,74.52v5.273h8.6v4.941h5.45V74.52Zm-9.429,8.833h6.081V69.967H80.208Zm-9.255-7.815H77.1v-6.08H70.953Zm-28.6-17.683V69.967H28.3v5.272H22.955v5.39h5.451v-5.39H42.351V69.967H55.736v-6.08H48.5V57.855Zm48.136-.034v6.148h6.08V69.9h6.08V63.748h-6.08V57.821ZM58.658,63.379h6.147V57.3H58.658Zm59.083-8.7V65.55h-5.33v13.9h5.33v5.286H103.689v5.272h14.052V84.734h5.45V79.343h-5.45V65.55h5.45V54.681Zm-6.08,0h6.08V48.534h-6.08ZM27.952,47.444v8.505h-5v5.392H12.089v-5.3h-6v-6.02H.005V72.932H12.089v-6.11h5.536v8.417h5.33v-13.9H33.281v-13.9ZM90.665,51.4h13.9v-5.33h-13.9ZM77.1,45.291V57.4H70.953v5.976H64.807v6.08h6.146V63.483H77.1V57.4H90.486v-6.08H83.249V45.291ZM55.9,21.734v6.079H49.755v6.081H55.9V27.814H62.05V21.734Zm15.5-3.041V39.66H62.05V33.895H55.9v11.4H49.755v6.08H55.9v-6.08H77.1v-26.6Zm-6.208,0h6.147v-6.08H65.2ZM12.062,30.783H31.1V11.747H12.062Zm84.622,0H115.72V11.747H96.684Zm-90.4-24.5H36.438V36.438H6.283ZM0,42.719H42.719V0H0ZM48,0V5.272h8.6v4.941h5.45V0ZM90.9,6.283h30.155V36.438H90.9ZM84.622,42.719h42.719V0H84.622Z" transform="translate(1345.998 6336.734)" fill="#0a090a"/>
  </g>
</svg>
